<svg xmlns="http://www.w3.org/2000/svg" xmlns:xlink="http://www.w3.org/1999/xlink" id="&#x421;&#x43B;&#x43E;&#x439;_1" x="0px" y="0px" width="60px" height="60px" viewBox="0 0 60 60" style="enable-background:new 0 0 60 60;" xml:space="preserve"><style type="text/css">	.st0{clip-path:url(#SVGID_00000096757618106931550920000015883639540864848264_);}	.st1{fill:#1037B6;}	.st2{fill:#FFFFFF;}</style><g>	<defs>		<rect id="SVGID_1_" x="0" width="60" height="60"></rect>	</defs>	<clipPath id="SVGID_00000154400146592383412060000015305707504055837588_">		<use xlink:href="#SVGID_1_" style="overflow:visible;"></use>	</clipPath>	<g style="clip-path:url(#SVGID_00000154400146592383412060000015305707504055837588_);">		<path class="st1" d="M22.2,17.6v-7.3c0-0.5-0.4-0.9-0.9-0.9c-0.5,0-0.9,0.4-0.9,0.9v7.3c-1.6,0.4-2.8,1.9-2.8,3.6   c0,1.1,0.5,2,1.1,2.7l-3.3,5.5c-0.3,0.5-0.1,1,0.4,1.3c0.5,0.3,1,0.1,1.3-0.4l3.3-5.5c0.4,0.1,0.7,0.2,1.1,0.2   c2.1,0,3.7-1.7,3.7-3.7C25,19.5,23.7,18,22.2,17.6z M21.3,23.2c-1.1,0-1.9-0.9-1.9-1.9c0-1.1,0.9-1.9,1.9-1.9   c1.1,0,1.9,0.9,1.9,1.9S22.3,23.2,21.3,23.2z"></path>		<path class="st1" d="M21.3,7.1c0.5,0,0.9-0.4,0.9-0.9V4.4c0-0.5-0.4-0.9-0.9-0.9c-0.5,0-0.9,0.4-0.9,0.9v1.8   C20.4,6.6,20.7,7.1,21.3,7.1z"></path>		<path class="st1" d="M21.3,35.4c-0.5,0-0.9,0.4-0.9,0.9v1.8c0,0.5,0.4,0.9,0.9,0.9c0.5,0,0.9-0.4,0.9-0.9v-1.8   C22.2,35.8,21.7,35.4,21.3,35.4z"></path>		<path class="st1" d="M7.1,21.3c0-0.5-0.4-0.9-0.9-0.9H4.4c-0.5,0-0.9,0.4-0.9,0.9c0,0.5,0.4,0.9,0.9,0.9h1.8   C6.6,22.2,7.1,21.7,7.1,21.3z"></path>		<path class="st1" d="M35.4,21.3c0,0.5,0.4,0.9,0.9,0.9h1.8c0.5,0,0.9-0.4,0.9-0.9c0-0.5-0.4-0.9-0.9-0.9h-1.8   C35.8,20.4,35.4,20.7,35.4,21.3z"></path>		<path class="st1" d="M6.1,13.5l1.6,0.9c0.5,0.3,1,0.1,1.3-0.4c0.3-0.5,0.1-1-0.4-1.3L7,11.9c-0.5-0.3-1-0.1-1.3,0.4   C5.5,12.8,5.6,13.4,6.1,13.5z"></path>		<path class="st1" d="M14.2,33.5c-0.5-0.3-1-0.1-1.3,0.4L12,35.5c-0.3,0.5-0.1,1,0.4,1.3c0.5,0.3,1,0.1,1.3-0.4l0.9-1.6   C14.7,34.3,14.6,33.7,14.2,33.5z"></path>		<path class="st1" d="M28.3,9c0.5,0.3,1,0.1,1.3-0.4L30.5,7c0.3-0.5,0.1-1-0.4-1.3c-0.5-0.3-1-0.1-1.3,0.4l-0.9,1.6   C27.7,8.2,27.8,8.7,28.3,9z"></path>		<path class="st1" d="M14,9.1c0.5-0.3,0.5-0.8,0.3-1.3l-0.9-1.6c-0.3-0.5-0.8-0.5-1.3-0.3c-0.5,0.3-0.5,0.8-0.3,1.3l0.9,1.6   C13,9.2,13.5,9.4,14,9.1z"></path>		<path class="st1" d="M7.8,28.2l-1.6,0.9c-0.5,0.3-0.5,0.8-0.3,1.3c0.3,0.5,0.8,0.5,1.3,0.3l1.6-0.9c0.5-0.3,0.5-0.8,0.3-1.3   C8.8,28,8.3,27.9,7.8,28.2z"></path>		<path class="st1" d="M34.6,14.4l1.6-0.9c0.5-0.3,0.5-0.8,0.3-1.3c-0.3-0.5-0.8-0.5-1.3-0.3l-1.6,0.9c-0.5,0.3-0.5,0.8-0.3,1.3   C33.6,14.5,34.2,14.5,34.6,14.4z"></path>		<path class="st2" d="M37.2,1.8h15.7v21.8l-3.7-3.7c-0.4-0.4-0.9-0.4-1.3,0c-0.4,0.4-0.4,0.9,0,1.3l5.3,5.3   c0.2,0.2,0.4,0.3,0.6,0.3c0.3,0,0.5-0.1,0.6-0.3l5.3-5.3c0.4-0.4,0.4-0.9,0-1.3c-0.4-0.4-0.9-0.4-1.3,0l-3.7,3.7V0.9   c0-0.5-0.4-0.9-0.9-0.9H37.2c-0.5,0-0.9,0.4-0.9,0.9C36.3,1.5,36.7,1.8,37.2,1.8z"></path>		<path class="st1" d="M59.4,33.1c-0.2-0.1-16.9-9.3-17.1-9.3c0.1-0.9,0.2-1.7,0.2-2.5C42.5,9.5,32.9,0,21.2,0C9.5,0,0,9.5,0,21.3   C0,33,9.5,42.5,21.2,42.5c0.9,0,2-0.1,3.1-0.3v6.2c0,0.3,0.2,0.6,0.5,0.7l16.8,10.6c0.2,0.1,0.3,0.2,0.5,0.2s0.4-0.1,0.5-0.1l17-9   c0.3-0.2,0.5-0.5,0.5-0.8V33.9C59.9,33.5,59.7,33.3,59.4,33.1z M57.1,33.9l-4,2.2L38,27.8l4-2.1L57.1,33.9z M49.5,38.5L33.8,30   l2.3-1.3l16.1,8.8v4.5L50,43.5v-4.1C50,39,49.7,38.6,49.5,38.5z M42.1,42.1l-15-8.5l4.8-2.5l15.3,8.3L42.1,42.1z M21.2,40.6   c-10.6,0-19.4-8.7-19.4-19.4c0-10.7,8.7-19.5,19.4-19.5c10.7,0,19.5,8.7,19.5,19.5c0,0.9-0.1,2.2-0.3,3.3c0,0-15.5,8.3-15.6,8.3   c-0.3,0.2-0.5,0.5-0.5,0.8v6.8C23.2,40.5,22.1,40.6,21.2,40.6z M26.1,47.9V35.2l15,8.5v13.8L26.1,47.9z M42.9,57.5V43.7l5.2-2.8   V45c0,0.4,0.2,0.6,0.5,0.8c0.3,0.2,0.6,0.2,0.9,0l4.1-2.3c0.3-0.2,0.5-0.5,0.5-0.8v-5.1l4-2.2v14.1L42.9,57.5z"></path>		<path class="st1" d="M39.1,47.1l-9.9-6.4c-0.5-0.3-1-0.1-1.3,0.4c-0.3,0.5-0.1,1.1,0.4,1.4l9.9,6.3c0.5,0.3,1,0.1,1.3-0.4   C39.6,48,39.5,47.3,39.1,47.1z"></path>		<path class="st1" d="M39,50.2l-9.9-5.8c-0.5-0.3-1-0.1-1.3,0.4c-0.3,0.5-0.1,1,0.4,1.3l9.9,5.7c0.5,0.3,1,0.1,1.3-0.4   C39.5,50.9,39.4,50.4,39,50.2z"></path>	</g></g></svg>