<svg xmlns="http://www.w3.org/2000/svg" xmlns:xlink="http://www.w3.org/1999/xlink" x="0px" y="0px" width="900px" height="222.64px" viewBox="0 0 900 222.64" style="enable-background:new 0 0 900 222.64;" xml:space="preserve"><style type="text/css">	.st0{fill:#FFFFFF;}	.st1{fill:#F68B21;}	.st2{fill:#1037B6;}</style><g id="Logo">	<rect x="-2439.87" y="-810.4" width="1000" height="300"></rect>	<rect x="-2439.87" y="-445.18" width="300" height="300"></rect>	<rect x="-2439.87" y="-2316.59" width="1000" height="1000"></rect>	<rect x="-2439.87" y="-1272.48" width="1000" height="400"></rect>	<g>		<g>			<path d="M-2705.29-1914.54h-60.23l18.81-47.91h41.37v-30.49h-320.09v30.49h43.55l28.31,47.91h-71.86v32.66h258.45l20.27,32.66    h-278.72v54.44c0,0-11.6-1.83-13.76-36.11c-2.47-39.18-15.64-70.59-53.74-70.59c-38.11,0-40.28,19.6-40.28,19.6h-18.51    l-2.18-258.5l82.75-28.93l242.79,15.47v-53.18l-360.38-28.71l-263.48,142.66v14.02l263.48-119.22v316.39l-263.48,32.66v54.44    h104.52c0-28.31,7.02-58.44,27.52-58.44c20.5,0,26.92,17.07,26.92,58.44c0,41.37-19.73,56.62-19.73,56.62s26.32,0,44.59,0    c11.51,0,16.51-47.91,16.51-47.91h124.12c0-37.02,6.53-84.92,34.84-84.92c28.31,0,39.2,39.2,39.2,71.86    c0,32.66-18.69,60.97-18.69,60.97s14.33,0,47,0c15.24,0,21.78-56.62,21.78-56.62h182.62c-0.07,1.24-0.11,2.49-0.11,3.76    c0,29.19,18.22,52.85,40.69,52.85h17.61c22.47,0,40.69-23.66,40.69-52.85c0-1.27-0.05-2.52-0.11-3.76h16.93L-2705.29-1914.54z"></path>			<polygon points="-3062,-2143.53 -3040.35,-2031.03 -2780.46,-2026.68 -2804.26,-2126.84    "></polygon>			<polygon points="-3085.31,-2140.05 -3054.64,-1962.44 -3133.22,-1962.44 -3133.22,-2122.39    "></polygon>			<polygon points="-2779.84,-2016.95 -2705.34,-1999.57 -3040.35,-2021.9    "></polygon>			<g>				<rect x="-3452.23" y="-1741.42" width="773.02" height="12.96"></rect>			</g>		</g>		<g>			<path d="M-3501.24-1412.98c-2.96,4.07-6.65,7.67-11.09,10.81c-4.43,3.14-9.61,4.71-15.52,4.71h-16.63    c-14.05,0-25.87-4.06-35.48-12.19c-9.61-8.12-14.41-17.92-14.41-29.38v-755.12c0-11.45,4.8-21.25,14.41-29.38    c9.61-8.12,21.43-12.2,35.48-12.2h22.17c14.04,0,25.86,4.07,35.48,12.2c9.6,8.13,14.41,17.93,14.41,29.38v115.11h-49.89v-104.02    c0-2.95-1.11-5.54-3.33-7.76c-2.22-2.22-4.81-3.33-7.76-3.33c-2.96,0-5.54,1.11-7.76,3.33c-2.22,2.22-3.33,4.81-3.33,7.76v732.95    c0,2.96,1.2,5.54,3.6,7.76c2.4,2.22,4.89,3.33,7.48,3.33c2.95,0,5.54-1.01,7.76-3.05c2.22-2.03,3.33-4.71,3.33-8.04v-349.21    l-11.09-11.09v-38.8h60.97v448.98h-17.74L-3501.24-1412.98z"></path>			<path d="M-3408.12-1400.23h-44.35v-310.42h43.24l1.11,11.64c4.8-5.91,9.42-9.79,13.86-11.64c4.43-1.84,9.61-2.77,15.52-2.77    c9.98,0,17.92,3.24,23.84,9.7c5.91,6.47,8.87,14.33,8.87,23.56v72.06h-44.35v-63.75c0-2.22-0.83-4.16-2.49-5.82    s-3.79-2.49-6.38-2.49c-2.59,0-4.71,0.83-6.37,2.49s-2.49,3.6-2.49,5.82V-1400.23z"></path>			<path d="M-3270.66-1411.87c-5.92,5.92-11.18,9.8-15.8,11.64c-4.62,1.84-9.15,2.77-13.58,2.77c-9.98,0-17.93-3.23-23.84-9.7    c-5.92-6.46-8.87-14.32-8.87-23.56v-279.93h44.35v271.62c0,2.22,0.83,4.16,2.49,5.82s3.78,2.49,6.37,2.49    c2.58,0,4.71-0.83,6.38-2.49c1.66-1.66,2.49-3.6,2.49-5.82v-271.62h44.35v310.42h-43.24L-3270.66-1411.87z"></path>			<path d="M-3131.52-1433.49v33.26h-83.15l34.37-277.16h-34.37v-33.26h83.15l-33.81,277.16H-3131.52z"></path>			<path d="M-3119.89-1680.16c0-9.23,4.34-17.09,13.03-23.56c8.68-6.46,19.12-9.7,31.32-9.7h17.74c12.2,0,22.63,3.24,31.32,9.7    c8.68,6.47,13.03,14.33,13.03,23.56v249.44c0,9.24-4.35,17.1-13.03,23.56c-8.69,6.47-19.12,9.7-31.32,9.7h-17.74    c-12.2,0-22.64-3.23-31.32-9.7c-8.69-6.46-13.03-14.32-13.03-23.56V-1680.16z M-3057.8-1671.84c0-2.22-0.83-4.16-2.49-5.82    c-1.66-1.66-3.79-2.49-6.38-2.49c-2.59,0-4.71,0.83-6.37,2.49c-1.66,1.66-2.49,3.6-2.49,5.82v232.81c0,2.22,0.83,4.16,2.49,5.82    c1.66,1.66,3.78,2.49,6.37,2.49c2.58,0,4.71-0.83,6.38-2.49c1.66-1.66,2.49-3.6,2.49-5.82V-1671.84z"></path>			<path d="M-2960.24-1710.64l12.19,199.55h2.22l12.19-199.55h44.35l-31.04,310.42h-53.21l-31.04-310.42H-2960.24z"></path>			<path d="M-2880.43-1680.16c0-9.23,4.34-17.09,13.03-23.56c8.68-6.46,19.12-9.7,31.32-9.7h17.74c12.2,0,22.63,3.24,31.32,9.7    c8.68,6.47,13.03,14.33,13.03,23.56v249.44c0,9.24-4.35,17.1-13.03,23.56c-8.69,6.47-19.12,9.7-31.32,9.7h-17.74    c-12.19,0-22.64-3.23-31.32-9.7c-8.69-6.46-13.03-14.32-13.03-23.56V-1680.16z M-2818.34-1671.84c0-2.22-0.83-4.16-2.49-5.82    s-3.79-2.49-6.38-2.49c-2.59,0-4.71,0.83-6.37,2.49s-2.49,3.6-2.49,5.82v232.81c0,2.22,0.83,4.16,2.49,5.82s3.78,2.49,6.37,2.49    c2.58,0,4.71-0.83,6.38-2.49s2.49-3.6,2.49-5.82V-1671.84z"></path>			<path d="M-2679.21-1433.49v33.26h-83.15l34.37-277.16h-34.37v-33.26h83.15l-33.81,277.16H-2679.21z"></path>		</g>	</g>	<g>		<path d="M-3505.97-928.17c-3,4.12-6.74,7.77-11.23,10.95c-4.49,3.18-9.74,4.77-15.72,4.77h-16.84c-14.23,0-26.21-4.11-35.94-12.35   c-9.74-8.23-14.6-18.15-14.6-29.76v-235.83c0-11.6,4.86-21.52,14.6-29.76c9.73-8.23,21.71-12.35,35.94-12.35h22.46   c14.22,0,26.2,4.12,35.94,12.35c9.73,8.24,14.6,18.16,14.6,29.76v89.84h-50.54v-78.61c0-2.99-1.12-5.62-3.37-7.86   c-2.25-2.25-4.87-3.37-7.86-3.37c-3,0-5.61,1.12-7.86,3.37c-2.25,2.25-3.37,4.87-3.37,7.86v213.37c0,3,1.21,5.61,3.65,7.86   c2.43,2.25,4.96,3.37,7.58,3.37c2.99,0,5.61-1.03,7.86-3.09c2.25-2.05,3.37-4.77,3.37-8.14v-54.75l-11.23-11.23v-39.3h61.77   v155.82h-17.97L-3505.97-928.17z"></path>		<path d="M-3411.64-915.26h-44.92v-314.44h43.8l1.12,11.79c4.86-5.98,9.55-9.91,14.04-11.79c4.49-1.87,9.73-2.81,15.72-2.81   c10.11,0,18.15,3.28,24.15,9.83c5.98,6.55,8.98,14.51,8.98,23.86v73h-44.92v-64.57c0-2.25-0.84-4.21-2.53-5.89   c-1.68-1.68-3.84-2.53-6.46-2.53c-2.62,0-4.77,0.84-6.46,2.53c-1.68,1.68-2.53,3.65-2.53,5.89V-915.26z"></path>		<path d="M-3272.39-927.05c-5.99,5.99-11.33,9.92-16,11.79c-4.68,1.87-9.26,2.81-13.76,2.81c-10.11,0-18.16-3.27-24.15-9.83   c-5.99-6.55-8.98-14.5-8.98-23.86v-283.56h44.92v275.14c0,2.25,0.84,4.21,2.53,5.9s3.83,2.53,6.46,2.53   c2.62,0,4.77-0.84,6.46-2.53c1.68-1.68,2.53-3.65,2.53-5.9v-275.14h44.92v314.44h-43.8L-3272.39-927.05z"></path>		<path d="M-3131.45-948.95v33.69h-84.23l34.81-280.75h-34.81v-33.69h84.23l-34.25,280.75H-3131.45z"></path>		<path d="M-3119.67-1198.82c0-9.35,4.4-17.31,13.2-23.86c8.79-6.55,19.37-9.83,31.73-9.83h17.97c12.35,0,22.93,3.28,31.73,9.83   c8.79,6.55,13.2,14.51,13.2,23.86v252.68c0,9.36-4.41,17.32-13.2,23.86c-8.8,6.55-19.37,9.83-31.73,9.83h-17.97   c-12.35,0-22.93-3.27-31.73-9.83c-8.8-6.55-13.2-14.5-13.2-23.86V-1198.82z M-3056.78-1190.4c0-2.25-0.84-4.21-2.53-5.89   c-1.68-1.68-3.84-2.53-6.46-2.53c-2.62,0-4.77,0.84-6.46,2.53c-1.68,1.68-2.53,3.65-2.53,5.89v235.83c0,2.25,0.84,4.21,2.53,5.9   s3.83,2.53,6.46,2.53c2.61,0,4.77-0.84,6.46-2.53c1.68-1.68,2.53-3.65,2.53-5.9V-1190.4z"></path>		<path d="M-2957.95-1229.7l12.35,202.14h2.25l12.35-202.14h44.92l-31.44,314.44h-53.9l-31.44-314.44H-2957.95z"></path>		<path d="M-2877.1-1198.82c0-9.35,4.4-17.31,13.2-23.86c8.79-6.55,19.37-9.83,31.73-9.83h17.97c12.35,0,22.93,3.28,31.73,9.83   c8.79,6.55,13.2,14.51,13.2,23.86v252.68c0,9.36-4.41,17.32-13.2,23.86c-8.8,6.55-19.37,9.83-31.73,9.83h-17.97   c-12.35,0-22.93-3.27-31.73-9.83c-8.8-6.55-13.2-14.5-13.2-23.86V-1198.82z M-2814.21-1190.4c0-2.25-0.84-4.21-2.53-5.89   c-1.68-1.68-3.84-2.53-6.46-2.53c-2.62,0-4.77,0.84-6.46,2.53c-1.68,1.68-2.53,3.65-2.53,5.89v235.83c0,2.25,0.84,4.21,2.53,5.9   s3.83,2.53,6.46,2.53c2.62,0,4.77-0.84,6.46-2.53c1.68-1.68,2.53-3.65,2.53-5.9V-1190.4z"></path>		<path d="M-2673.27-948.95v33.69h-84.23l34.81-280.75h-34.81v-33.69h84.23l-34.25,280.75H-2673.27z"></path>	</g>	<g>		<g>			<path d="M-3531.64-555.36c-2.18,3-4.9,5.66-8.17,7.97c-3.27,2.31-7.09,3.47-11.44,3.47h-12.26c-10.36,0-19.07-2.99-26.16-8.99    c-7.09-5.99-10.63-13.21-10.63-21.66v-171.65c0-8.44,3.54-15.66,10.63-21.66c7.08-5.99,15.8-8.99,26.16-8.99h16.35    c10.35,0,19.07,3,26.16,8.99c7.08,6,10.63,13.22,10.63,21.66v65.39h-36.78v-57.22c0-2.18-0.82-4.09-2.45-5.72    c-1.64-1.64-3.54-2.45-5.72-2.45c-2.18,0-4.09,0.82-5.72,2.45c-1.64,1.63-2.45,3.54-2.45,5.72v155.3c0,2.18,0.88,4.09,2.66,5.72    c1.77,1.64,3.61,2.45,5.52,2.45c2.18,0,4.09-0.75,5.72-2.25c1.63-1.49,2.45-3.47,2.45-5.93v-39.85l-8.17-8.17v-28.61h44.96    v113.41h-13.08L-3531.64-555.36z"></path>			<path d="M-3462.99-545.96h-32.69v-228.86h31.88l0.82,8.58c3.54-4.35,6.95-7.22,10.22-8.58c3.27-1.36,7.08-2.04,11.44-2.04    c7.36,0,13.21,2.39,17.57,7.15c4.35,4.77,6.54,10.56,6.54,17.37v53.13h-32.69v-47c0-1.63-0.61-3.06-1.84-4.29    c-1.23-1.23-2.8-1.84-4.7-1.84c-1.91,0-3.47,0.61-4.7,1.84c-1.23,1.23-1.84,2.66-1.84,4.29V-545.96z"></path>			<path d="M-3361.64-554.55c-4.36,4.36-8.24,7.22-11.65,8.58c-3.41,1.36-6.74,2.04-10.01,2.04c-7.36,0-13.22-2.38-17.57-7.15    c-4.36-4.76-6.54-10.56-6.54-17.37v-206.39h32.69v200.26c0,1.64,0.61,3.07,1.84,4.29c1.23,1.23,2.79,1.84,4.7,1.84    c1.9,0,3.47-0.61,4.7-1.84c1.23-1.23,1.84-2.66,1.84-4.29v-200.26h32.7v228.86h-31.88L-3361.64-554.55z"></path>			<path d="M-3259.06-570.49v24.52h-61.3l25.34-204.34h-25.34v-24.52h61.3l-24.93,204.34H-3259.06z"></path>			<path d="M-3250.48-752.35c0-6.81,3.2-12.6,9.6-17.37c6.4-4.76,14.1-7.15,23.09-7.15h13.08c8.99,0,16.69,2.39,23.09,7.15    c6.4,4.77,9.6,10.56,9.6,17.37v183.91c0,6.81-3.21,12.61-9.6,17.37c-6.4,4.77-14.1,7.15-23.09,7.15h-13.08    c-8.99,0-16.69-2.38-23.09-7.15c-6.4-4.76-9.6-10.56-9.6-17.37V-752.35z M-3204.71-746.22c0-1.63-0.61-3.06-1.84-4.29    c-1.23-1.23-2.8-1.84-4.7-1.84c-1.91,0-3.47,0.61-4.7,1.84c-1.23,1.23-1.84,2.66-1.84,4.29v171.65c0,1.64,0.61,3.07,1.84,4.29    c1.23,1.23,2.79,1.84,4.7,1.84c1.9,0,3.47-0.61,4.7-1.84c1.23-1.23,1.84-2.66,1.84-4.29V-746.22z"></path>			<path d="M-3132.78-774.83l8.99,147.13h1.64l8.99-147.13h32.69l-22.89,228.86h-39.23l-22.89-228.86H-3132.78z"></path>			<path d="M-3073.93-752.35c0-6.81,3.2-12.6,9.6-17.37c6.4-4.76,14.1-7.15,23.09-7.15h13.08c8.99,0,16.69,2.39,23.09,7.15    c6.4,4.77,9.6,10.56,9.6,17.37v183.91c0,6.81-3.21,12.61-9.6,17.37c-6.4,4.77-14.1,7.15-23.09,7.15h-13.08    c-8.99,0-16.69-2.38-23.09-7.15c-6.4-4.76-9.6-10.56-9.6-17.37V-752.35z M-3028.16-746.22c0-1.63-0.61-3.06-1.84-4.29    c-1.23-1.23-2.8-1.84-4.7-1.84c-1.91,0-3.47,0.61-4.7,1.84c-1.23,1.23-1.84,2.66-1.84,4.29v171.65c0,1.64,0.61,3.07,1.84,4.29    c1.23,1.23,2.79,1.84,4.7,1.84c1.9,0,3.47-0.61,4.7-1.84c1.23-1.23,1.84-2.66,1.84-4.29V-746.22z"></path>			<path d="M-2925.58-570.49v24.52h-61.3l25.34-204.34h-25.34v-24.52h61.3l-24.93,204.34H-2925.58z"></path>		</g>		<g>			<path d="M-2916.95-570.49h39.48c0-16.85,2.97-38.31,15.86-38.31s17.84,17.84,17.84,32.71c0,14.87-8.51,27.75-8.51,27.75    s6.52,0,21.39,0c6.94,0,9.91-25.77,9.91-25.77h83.13c-0.03,0.57-0.05,1.14-0.05,1.71c0,13.29,8.29,24.06,18.52,24.06h8.02    c10.23,0,18.52-10.77,18.52-24.06c0-0.58-0.02-1.15-0.05-1.71h7.71l0.02-54.52h-27.42l8.56-21.81h18.83v-13.88h-145.71v13.88    h19.82l12.89,21.81h-32.71v14.87h117.65l9.23,14.87h-126.88v24.78c0,0-5.28-0.83-6.26-16.44c-1.12-17.83-7.12-32.13-24.46-32.13    s-18.34,8.92-18.34,8.92h-8.43l-0.99-117.67l37.67-13.17l110.52,7.04v-24.21l-164.05-13.07l-11.73,5.44v15.96l11.73-4.35v144.02    l-11.73,3.2V-570.49z"></path>			<polygon points="-2847.52,-732.86 -2837.67,-681.65 -2719.36,-679.67 -2730.2,-725.27    "></polygon>			<polygon points="-2858.14,-731.28 -2844.17,-650.43 -2879.94,-650.43 -2879.94,-723.24    "></polygon>			<polygon points="-2719.08,-675.24 -2685.17,-667.33 -2837.67,-677.5    "></polygon>			<g>				<rect x="-2916.95" y="-550.38" width="243.68" height="4.08"></rect>			</g>		</g>	</g>	<g>		<path d="M-3636.79-212.66h81.81c0-15.44,2.72-35.1,14.53-35.1c11.81,0,16.35,16.35,16.35,29.97s-7.79,25.43-7.79,25.43   s5.98,0,19.6,0c6.36,0,9.08-23.61,9.08-23.61h76.16c-0.03,0.52-0.05,1.04-0.05,1.57c0,12.17,7.6,22.04,16.97,22.04h7.35   c9.37,0,16.97-9.87,16.97-22.04c0-0.53-0.02-1.05-0.05-1.57h7.06l0.02-49.95h-25.12l7.84-19.98h17.25v-12.71h-133.5v12.71h18.16   l11.81,19.98h-29.97v13.62h107.79l8.46,13.62h-116.24v22.7c0,0-4.84-0.76-5.74-15.06c-1.03-16.34-6.52-29.44-22.41-29.44   s-16.8,8.17-16.8,8.17h-7.72l-0.91-107.81l34.51-12.07l101.26,6.45v-22.18l-150.3-11.97l-56.39,25.28v14.63l56.39-24.28v131.95   l-56.39,12.88V-212.66z"></path>		<polygon points="-3527.54,-361.42 -3518.51,-314.51 -3410.12,-312.69 -3420.05,-354.47   "></polygon>		<polygon points="-3537.27,-359.97 -3524.47,-285.9 -3557.25,-285.9 -3557.25,-352.61   "></polygon>		<polygon points="-3409.87,-308.63 -3378.79,-301.39 -3518.51,-310.7   "></polygon>		<g>			<rect x="-3636.79" y="-194.23" width="300" height="3.74"></rect>		</g>	</g>	<g>		<g>			<path class="st0" d="M-1508.37-1914.54h-60.23l18.81-47.91h41.37v-30.49h-320.1v30.49h43.55l28.31,47.91h-71.86v32.66h258.45    l20.27,32.66h-278.72v54.44c0,0-11.6-1.83-13.76-36.11c-2.47-39.18-15.64-70.59-53.74-70.59s-40.28,19.6-40.28,19.6h-18.51    l-2.18-258.5l82.75-28.93l242.79,15.47v-53.18l-360.38-28.71l-263.48,142.66v14.02l263.48-119.22v316.39l-263.48,32.66v54.44    h104.52c0-28.31,7.02-58.44,27.52-58.44s26.92,17.07,26.92,58.44c0,41.37-19.73,56.62-19.73,56.62s26.32,0,44.59,0    c11.51,0,16.51-47.91,16.51-47.91h124.12c0-37.02,6.53-84.92,34.84-84.92s39.2,39.2,39.2,71.86c0,32.66-18.69,60.97-18.69,60.97    s14.33,0,47,0c15.24,0,21.78-56.62,21.78-56.62h182.62c-0.07,1.24-0.11,2.49-0.11,3.76c0,29.19,18.22,52.85,40.69,52.85h17.61    c22.47,0,40.69-23.66,40.69-52.85c0-1.27-0.05-2.52-0.11-3.76h16.93L-1508.37-1914.54z"></path>			<polygon class="st0" points="-1865.08,-2143.53 -1843.43,-2031.03 -1583.54,-2026.68 -1607.34,-2126.84    "></polygon>			<polygon class="st0" points="-1888.4,-2140.05 -1857.72,-1962.44 -1936.3,-1962.44 -1936.3,-2122.39    "></polygon>			<polygon class="st0" points="-1582.92,-2016.95 -1508.42,-1999.57 -1843.43,-2021.9    "></polygon>			<g>				<rect x="-2255.31" y="-1741.42" class="st0" width="773.02" height="12.96"></rect>			</g>		</g>		<g>			<path class="st0" d="M-2304.33-1412.98c-2.96,4.07-6.65,7.67-11.09,10.81c-4.43,3.14-9.61,4.71-15.52,4.71h-16.63    c-14.05,0-25.87-4.06-35.48-12.19c-9.61-8.12-14.41-17.92-14.41-29.38v-755.12c0-11.45,4.8-21.25,14.41-29.38    c9.61-8.12,21.43-12.2,35.48-12.2h22.17c14.04,0,25.86,4.07,35.48,12.2c9.6,8.13,14.41,17.93,14.41,29.38v115.11h-49.89v-104.02    c0-2.95-1.11-5.54-3.33-7.76c-2.22-2.22-4.81-3.33-7.76-3.33c-2.96,0-5.54,1.11-7.76,3.33c-2.22,2.22-3.33,4.81-3.33,7.76v732.95    c0,2.96,1.2,5.54,3.6,7.76c2.4,2.22,4.89,3.33,7.48,3.33c2.95,0,5.54-1.01,7.76-3.05c2.22-2.03,3.33-4.71,3.33-8.04v-349.21    l-11.09-11.09v-38.8h60.97v448.98h-17.74L-2304.33-1412.98z"></path>			<path class="st0" d="M-2211.2-1400.23h-44.35v-310.42h43.24l1.11,11.64c4.8-5.91,9.42-9.79,13.86-11.64    c4.43-1.84,9.61-2.77,15.52-2.77c9.98,0,17.92,3.24,23.84,9.7c5.91,6.47,8.87,14.33,8.87,23.56v72.06h-44.35v-63.75    c0-2.22-0.83-4.16-2.49-5.82s-3.79-2.49-6.38-2.49c-2.59,0-4.71,0.83-6.37,2.49s-2.49,3.6-2.49,5.82V-1400.23z"></path>			<path class="st0" d="M-2073.74-1411.87c-5.92,5.92-11.18,9.8-15.8,11.64c-4.62,1.84-9.15,2.77-13.58,2.77    c-9.98,0-17.93-3.23-23.84-9.7c-5.92-6.46-8.87-14.32-8.87-23.56v-279.93h44.35v271.62c0,2.22,0.83,4.16,2.49,5.82    s3.78,2.49,6.37,2.49c2.58,0,4.71-0.83,6.38-2.49s2.49-3.6,2.49-5.82v-271.62h44.35v310.42h-43.24L-2073.74-1411.87z"></path>			<path class="st0" d="M-1934.6-1433.49v33.26h-83.15l34.37-277.16h-34.37v-33.26h83.15l-33.81,277.16H-1934.6z"></path>			<path class="st0" d="M-1922.97-1680.16c0-9.23,4.34-17.09,13.03-23.56c8.68-6.46,19.12-9.7,31.32-9.7h17.74    c12.19,0,22.63,3.24,31.32,9.7c8.68,6.47,13.03,14.33,13.03,23.56v249.44c0,9.24-4.35,17.1-13.03,23.56    c-8.69,6.47-19.12,9.7-31.32,9.7h-17.74c-12.19,0-22.64-3.23-31.32-9.7c-8.69-6.46-13.03-14.32-13.03-23.56V-1680.16z     M-1860.89-1671.84c0-2.22-0.83-4.16-2.49-5.82c-1.66-1.66-3.79-2.49-6.38-2.49c-2.59,0-4.71,0.83-6.37,2.49s-2.49,3.6-2.49,5.82    v232.81c0,2.22,0.83,4.16,2.49,5.82s3.78,2.49,6.37,2.49c2.58,0,4.71-0.83,6.38-2.49c1.66-1.66,2.49-3.6,2.49-5.82V-1671.84z"></path>			<path class="st0" d="M-1763.33-1710.64l12.19,199.55h2.22l12.19-199.55h44.35l-31.04,310.42h-53.21l-31.04-310.42H-1763.33z"></path>			<path class="st0" d="M-1683.51-1680.16c0-9.23,4.34-17.09,13.03-23.56c8.68-6.46,19.12-9.7,31.32-9.7h17.74    c12.19,0,22.63,3.24,31.32,9.7c8.68,6.47,13.03,14.33,13.03,23.56v249.44c0,9.24-4.35,17.1-13.03,23.56    c-8.69,6.47-19.12,9.7-31.32,9.7h-17.74c-12.19,0-22.64-3.23-31.32-9.7c-8.69-6.46-13.03-14.32-13.03-23.56V-1680.16z     M-1621.43-1671.84c0-2.22-0.83-4.16-2.49-5.82s-3.79-2.49-6.38-2.49c-2.59,0-4.71,0.83-6.37,2.49s-2.49,3.6-2.49,5.82v232.81    c0,2.22,0.83,4.16,2.49,5.82s3.78,2.49,6.37,2.49c2.58,0,4.71-0.83,6.38-2.49s2.49-3.6,2.49-5.82V-1671.84z"></path>			<path class="st0" d="M-1482.29-1433.49v33.26h-83.15l34.37-277.16h-34.37v-33.26h83.15l-33.81,277.16H-1482.29z"></path>		</g>	</g>	<g>		<path class="st0" d="M-2309.05-928.17c-3,4.12-6.74,7.77-11.23,10.95c-4.49,3.18-9.74,4.77-15.72,4.77h-16.84   c-14.23,0-26.21-4.11-35.94-12.35c-9.74-8.23-14.6-18.15-14.6-29.76v-235.83c0-11.6,4.86-21.52,14.6-29.76   c9.73-8.23,21.71-12.35,35.94-12.35h22.46c14.22,0,26.2,4.12,35.94,12.35c9.73,8.24,14.6,18.16,14.6,29.76v89.84h-50.54v-78.61   c0-2.99-1.12-5.62-3.37-7.86c-2.25-2.25-4.87-3.37-7.86-3.37c-3,0-5.61,1.12-7.86,3.37c-2.25,2.25-3.37,4.87-3.37,7.86v213.37   c0,3,1.21,5.61,3.65,7.86c2.43,2.25,4.96,3.37,7.58,3.37c2.99,0,5.61-1.03,7.86-3.09c2.25-2.05,3.37-4.77,3.37-8.14v-54.75   l-11.23-11.23v-39.3h61.77v155.82h-17.97L-2309.05-928.17z"></path>		<path class="st0" d="M-2214.72-915.26h-44.92v-314.44h43.8l1.12,11.79c4.86-5.98,9.55-9.91,14.04-11.79   c4.49-1.87,9.73-2.81,15.72-2.81c10.11,0,18.15,3.28,24.15,9.83c5.98,6.55,8.98,14.51,8.98,23.86v73h-44.92v-64.57   c0-2.25-0.84-4.21-2.53-5.89c-1.68-1.68-3.84-2.53-6.46-2.53c-2.62,0-4.77,0.84-6.46,2.53c-1.68,1.68-2.53,3.65-2.53,5.89V-915.26   z"></path>		<path class="st0" d="M-2075.48-927.05c-5.99,5.99-11.33,9.92-16,11.79c-4.68,1.87-9.26,2.81-13.76,2.81   c-10.11,0-18.16-3.27-24.15-9.83c-5.99-6.55-8.98-14.5-8.98-23.86v-283.56h44.92v275.14c0,2.25,0.84,4.21,2.53,5.9   c1.68,1.68,3.83,2.53,6.46,2.53c2.62,0,4.77-0.84,6.46-2.53s2.53-3.65,2.53-5.9v-275.14h44.92v314.44h-43.8L-2075.48-927.05z"></path>		<path class="st0" d="M-1934.54-948.95v33.69h-84.23l34.81-280.75h-34.81v-33.69h84.23l-34.25,280.75H-1934.54z"></path>		<path class="st0" d="M-1922.75-1198.82c0-9.35,4.4-17.31,13.2-23.86c8.79-6.55,19.37-9.83,31.73-9.83h17.97   c12.35,0,22.93,3.28,31.73,9.83c8.79,6.55,13.2,14.51,13.2,23.86v252.68c0,9.36-4.41,17.32-13.2,23.86   c-8.8,6.55-19.37,9.83-31.73,9.83h-17.97c-12.35,0-22.93-3.27-31.73-9.83c-8.8-6.55-13.2-14.5-13.2-23.86V-1198.82z    M-1859.86-1190.4c0-2.25-0.84-4.21-2.53-5.89c-1.68-1.68-3.84-2.53-6.46-2.53c-2.62,0-4.77,0.84-6.46,2.53   c-1.68,1.68-2.53,3.65-2.53,5.89v235.83c0,2.25,0.84,4.21,2.53,5.9s3.83,2.53,6.46,2.53c2.62,0,4.77-0.84,6.46-2.53   c1.68-1.68,2.53-3.65,2.53-5.9V-1190.4z"></path>		<path class="st0" d="M-1761.04-1229.7l12.35,202.14h2.25l12.35-202.14h44.92l-31.44,314.44h-53.9l-31.44-314.44H-1761.04z"></path>		<path class="st0" d="M-1680.18-1198.82c0-9.35,4.4-17.31,13.2-23.86c8.79-6.55,19.37-9.83,31.73-9.83h17.97   c12.35,0,22.93,3.28,31.73,9.83c8.79,6.55,13.2,14.51,13.2,23.86v252.68c0,9.36-4.41,17.32-13.2,23.86   c-8.8,6.55-19.37,9.83-31.73,9.83h-17.97c-12.35,0-22.93-3.27-31.73-9.83c-8.8-6.55-13.2-14.5-13.2-23.86V-1198.82z    M-1617.3-1190.4c0-2.25-0.84-4.21-2.53-5.89c-1.68-1.68-3.84-2.53-6.46-2.53c-2.62,0-4.77,0.84-6.46,2.53   c-1.68,1.68-2.53,3.65-2.53,5.89v235.83c0,2.25,0.84,4.21,2.53,5.9c1.68,1.68,3.83,2.53,6.46,2.53c2.62,0,4.77-0.84,6.46-2.53   c1.68-1.68,2.53-3.65,2.53-5.9V-1190.4z"></path>		<path class="st0" d="M-1476.36-948.95v33.69h-84.23l34.81-280.75h-34.81v-33.69h84.23l-34.25,280.75H-1476.36z"></path>	</g>	<g>		<g>			<path class="st0" d="M-2334.73-555.36c-2.18,3-4.9,5.66-8.17,7.97c-3.27,2.31-7.09,3.47-11.44,3.47h-12.26    c-10.36,0-19.07-2.99-26.16-8.99c-7.09-5.99-10.63-13.21-10.63-21.66v-171.65c0-8.44,3.54-15.66,10.63-21.66    c7.08-5.99,15.8-8.99,26.16-8.99h16.35c10.35,0,19.07,3,26.16,8.99c7.08,6,10.63,13.22,10.63,21.66v65.39h-36.78v-57.22    c0-2.18-0.82-4.09-2.45-5.72c-1.64-1.64-3.54-2.45-5.72-2.45c-2.18,0-4.09,0.82-5.72,2.45c-1.64,1.63-2.45,3.54-2.45,5.72v155.3    c0,2.18,0.88,4.09,2.66,5.72c1.77,1.64,3.61,2.45,5.52,2.45c2.18,0,4.09-0.75,5.72-2.25c1.63-1.49,2.45-3.47,2.45-5.93v-39.85    l-8.17-8.17v-28.61h44.96v113.41h-13.08L-2334.73-555.36z"></path>			<path class="st0" d="M-2266.07-545.96h-32.69v-228.86h31.88l0.82,8.58c3.54-4.35,6.95-7.22,10.22-8.58    c3.27-1.36,7.08-2.04,11.44-2.04c7.36,0,13.21,2.39,17.57,7.15c4.35,4.77,6.54,10.56,6.54,17.37v53.13h-32.69v-47    c0-1.63-0.61-3.06-1.84-4.29c-1.23-1.23-2.8-1.84-4.7-1.84c-1.91,0-3.47,0.61-4.7,1.84c-1.23,1.23-1.84,2.66-1.84,4.29V-545.96z"></path>			<path class="st0" d="M-2164.72-554.55c-4.36,4.36-8.24,7.22-11.65,8.58c-3.41,1.36-6.74,2.04-10.01,2.04    c-7.36,0-13.22-2.38-17.57-7.15c-4.36-4.76-6.54-10.56-6.54-17.37v-206.39h32.69v200.26c0,1.64,0.61,3.07,1.84,4.29    c1.23,1.23,2.79,1.84,4.7,1.84c1.9,0,3.47-0.61,4.7-1.84c1.23-1.23,1.84-2.66,1.84-4.29v-200.26h32.69v228.86h-31.88    L-2164.72-554.55z"></path>			<path class="st0" d="M-2062.14-570.49v24.52h-61.3l25.34-204.34h-25.34v-24.52h61.3l-24.93,204.34H-2062.14z"></path>			<path class="st0" d="M-2053.56-752.35c0-6.81,3.2-12.6,9.6-17.37c6.4-4.76,14.1-7.15,23.09-7.15h13.08    c8.99,0,16.69,2.39,23.09,7.15c6.4,4.77,9.6,10.56,9.6,17.37v183.91c0,6.81-3.21,12.61-9.6,17.37c-6.4,4.77-14.1,7.15-23.09,7.15    h-13.08c-8.99,0-16.69-2.38-23.09-7.15c-6.4-4.76-9.6-10.56-9.6-17.37V-752.35z M-2007.79-746.22c0-1.63-0.61-3.06-1.84-4.29    s-2.8-1.84-4.7-1.84c-1.91,0-3.47,0.61-4.7,1.84c-1.23,1.23-1.84,2.66-1.84,4.29v171.65c0,1.64,0.61,3.07,1.84,4.29    c1.23,1.23,2.79,1.84,4.7,1.84c1.9,0,3.47-0.61,4.7-1.84c1.23-1.23,1.84-2.66,1.84-4.29V-746.22z"></path>			<path class="st0" d="M-1935.86-774.83l8.99,147.13h1.64l8.99-147.13h32.69l-22.89,228.86h-39.23l-22.89-228.86H-1935.86z"></path>			<path class="st0" d="M-1877.01-752.35c0-6.81,3.2-12.6,9.6-17.37c6.4-4.76,14.1-7.15,23.09-7.15h13.08    c8.99,0,16.69,2.39,23.09,7.15c6.4,4.77,9.6,10.56,9.6,17.37v183.91c0,6.81-3.21,12.61-9.6,17.37c-6.4,4.77-14.1,7.15-23.09,7.15    h-13.08c-8.99,0-16.69-2.38-23.09-7.15c-6.4-4.76-9.6-10.56-9.6-17.37V-752.35z M-1831.24-746.22c0-1.63-0.61-3.06-1.84-4.29    c-1.23-1.23-2.8-1.84-4.7-1.84c-1.91,0-3.47,0.61-4.7,1.84c-1.23,1.23-1.84,2.66-1.84,4.29v171.65c0,1.64,0.61,3.07,1.84,4.29    c1.23,1.23,2.79,1.84,4.7,1.84c1.9,0,3.47-0.61,4.7-1.84c1.23-1.23,1.84-2.66,1.84-4.29V-746.22z"></path>			<path class="st0" d="M-1728.66-570.49v24.52h-61.3l25.34-204.34h-25.34v-24.52h61.3l-24.93,204.34H-1728.66z"></path>		</g>		<g>			<path class="st0" d="M-1720.03-570.49h39.48c0-16.85,2.97-38.31,15.86-38.31c12.89,0,17.84,17.84,17.84,32.71    c0,14.87-8.51,27.75-8.51,27.75s6.52,0,21.39,0c6.94,0,9.91-25.77,9.91-25.77h83.13c-0.03,0.57-0.05,1.14-0.05,1.71    c0,13.29,8.29,24.06,18.52,24.06h8.02c10.23,0,18.52-10.77,18.52-24.06c0-0.58-0.02-1.15-0.05-1.71h7.71l0.02-54.52h-27.42    l8.56-21.81h18.83v-13.88h-145.71v13.88h19.82l12.89,21.81h-32.71v14.87h117.65l9.23,14.87h-126.88v24.78    c0,0-5.28-0.83-6.26-16.44c-1.12-17.83-7.12-32.13-24.46-32.13s-18.34,8.92-18.34,8.92h-8.43l-0.99-117.67l37.67-13.17    l110.52,7.04v-24.21l-164.05-13.07l-11.73,5.44v15.96l11.73-4.35v144.02l-11.73,3.2V-570.49z"></path>			<polygon class="st0" points="-1650.61,-732.86 -1640.75,-681.65 -1522.45,-679.67 -1533.28,-725.27    "></polygon>			<polygon class="st0" points="-1661.22,-731.28 -1647.25,-650.43 -1683.03,-650.43 -1683.03,-723.24    "></polygon>			<polygon class="st0" points="-1522.17,-675.24 -1488.25,-667.33 -1640.75,-677.5    "></polygon>			<g>				<rect x="-1720.03" y="-550.38" class="st0" width="243.68" height="4.08"></rect>			</g>		</g>	</g>	<g>		<path class="st0" d="M-2439.87-212.66h81.81c0-15.44,2.72-35.1,14.53-35.1c11.81,0,16.35,16.35,16.35,29.97   s-7.79,25.43-7.79,25.43s5.98,0,19.6,0c6.36,0,9.08-23.61,9.08-23.61h76.16c-0.03,0.52-0.05,1.04-0.05,1.57   c0,12.17,7.6,22.04,16.97,22.04h7.35c9.37,0,16.97-9.87,16.97-22.04c0-0.53-0.02-1.05-0.05-1.57h7.06l0.02-49.95h-25.12   l7.84-19.98h17.26v-12.71h-133.5v12.71h18.16l11.81,19.98h-29.97v13.62h107.79l8.46,13.62h-116.24v22.7c0,0-4.84-0.76-5.74-15.06   c-1.03-16.34-6.52-29.44-22.41-29.44c-15.89,0-16.8,8.17-16.8,8.17h-7.72l-0.91-107.81l34.51-12.07l101.26,6.45v-22.18   l-150.3-11.97l-56.39,25.28v14.63l56.39-24.28v131.95l-56.39,12.88V-212.66z"></path>		<polygon class="st0" points="-2330.62,-361.42 -2321.6,-314.51 -2213.21,-312.69 -2223.13,-354.47   "></polygon>		<polygon class="st0" points="-2340.35,-359.97 -2327.55,-285.9 -2360.33,-285.9 -2360.33,-352.61   "></polygon>		<polygon class="st0" points="-2212.95,-308.63 -2181.87,-301.39 -2321.6,-310.7   "></polygon>		<g>			<rect x="-2439.87" y="-194.23" class="st0" width="300" height="3.74"></rect>		</g>	</g>	<g>		<g>			<path d="M-299.56-1914.54h-60.23l18.81-47.91h41.37v-30.49h-320.1v30.49h43.55l28.31,47.91h-71.86v32.66h258.45l20.27,32.66    h-278.72v54.44c0,0-11.6-1.83-13.76-36.11c-2.47-39.18-15.64-70.59-53.74-70.59s-40.28,19.6-40.28,19.6H-746l-2.18-258.5    l82.75-28.93l242.79,15.47v-53.18l-360.38-28.71l-263.48,142.66v14.02l263.48-119.22v316.39l-263.48,32.66v54.44h104.52    c0-28.31,7.02-58.44,27.52-58.44s26.92,17.07,26.92,58.44c0,41.37-19.73,56.62-19.73,56.62s26.32,0,44.59,0    c11.51,0,16.51-47.91,16.51-47.91h124.12c0-37.02,6.53-84.92,34.84-84.92s39.2,39.2,39.2,71.86c0,32.66-18.69,60.97-18.69,60.97    s14.33,0,47,0c15.24,0,21.78-56.62,21.78-56.62h182.62c-0.07,1.24-0.11,2.49-0.11,3.76c0,29.19,18.22,52.85,40.69,52.85h17.61    c22.47,0,40.69-23.66,40.69-52.85c0-1.27-0.05-2.52-0.11-3.76h16.93L-299.56-1914.54z"></path>			<polygon points="-656.28,-2143.53 -634.63,-2031.03 -374.74,-2026.68 -398.54,-2126.84    "></polygon>			<polygon points="-679.59,-2140.05 -648.91,-1962.44 -727.49,-1962.44 -727.49,-2122.39    "></polygon>			<polygon points="-374.12,-2016.95 -299.61,-1999.57 -634.63,-2021.9    "></polygon>			<g>				<rect x="-1046.5" y="-1741.42" width="773.02" height="12.96"></rect>			</g>		</g>		<g>			<path class="st1" d="M-1095.52-1412.98c-2.96,4.07-6.65,7.67-11.09,10.81c-4.43,3.14-9.61,4.71-15.52,4.71h-16.63    c-14.05,0-25.87-4.06-35.48-12.19c-9.61-8.12-14.41-17.92-14.41-29.38v-755.12c0-11.45,4.8-21.25,14.41-29.38    c9.61-8.12,21.43-12.2,35.48-12.2h22.17c14.04,0,25.86,4.07,35.48,12.2c9.6,8.13,14.41,17.93,14.41,29.38v115.11h-49.89v-104.02    c0-2.95-1.11-5.54-3.33-7.76c-2.22-2.22-4.81-3.33-7.76-3.33c-2.96,0-5.54,1.11-7.76,3.33c-2.22,2.22-3.33,4.81-3.33,7.76v732.95    c0,2.96,1.2,5.54,3.6,7.76c2.4,2.22,4.89,3.33,7.48,3.33c2.95,0,5.54-1.01,7.76-3.05c2.22-2.03,3.33-4.71,3.33-8.04v-349.21    l-11.09-11.09v-38.8h60.97v448.98h-17.74L-1095.52-1412.98z"></path>			<path class="st1" d="M-1002.4-1400.23h-44.35v-310.42h43.24l1.11,11.64c4.8-5.91,9.42-9.79,13.86-11.64    c4.43-1.84,9.61-2.77,15.52-2.77c9.98,0,17.92,3.24,23.84,9.7c5.91,6.47,8.87,14.33,8.87,23.56v72.06h-44.35v-63.75    c0-2.22-0.83-4.16-2.49-5.82c-1.66-1.66-3.79-2.49-6.38-2.49c-2.59,0-4.71,0.83-6.37,2.49c-1.66,1.66-2.49,3.6-2.49,5.82    V-1400.23z"></path>			<path class="st1" d="M-864.93-1411.87c-5.92,5.92-11.18,9.8-15.8,11.64c-4.62,1.84-9.15,2.77-13.58,2.77    c-9.98,0-17.93-3.23-23.84-9.7c-5.92-6.46-8.87-14.32-8.87-23.56v-279.93h44.35v271.62c0,2.22,0.83,4.16,2.49,5.82    s3.78,2.49,6.37,2.49c2.58,0,4.71-0.83,6.38-2.49s2.49-3.6,2.49-5.82v-271.62h44.35v310.42h-43.24L-864.93-1411.87z"></path>			<path class="st1" d="M-725.8-1433.49v33.26h-83.15l34.37-277.16h-34.37v-33.26h83.15l-33.81,277.16H-725.8z"></path>			<path class="st1" d="M-714.16-1680.16c0-9.23,4.34-17.09,13.03-23.56c8.68-6.46,19.12-9.7,31.32-9.7h17.74    c12.19,0,22.63,3.24,31.32,9.7c8.68,6.47,13.03,14.33,13.03,23.56v249.44c0,9.24-4.35,17.1-13.03,23.56    c-8.69,6.47-19.12,9.7-31.32,9.7h-17.74c-12.19,0-22.64-3.23-31.32-9.7c-8.69-6.46-13.03-14.32-13.03-23.56V-1680.16z     M-652.08-1671.84c0-2.22-0.83-4.16-2.49-5.82c-1.66-1.66-3.79-2.49-6.38-2.49c-2.59,0-4.71,0.83-6.37,2.49    c-1.66,1.66-2.49,3.6-2.49,5.82v232.81c0,2.22,0.83,4.16,2.49,5.82c1.66,1.66,3.78,2.49,6.37,2.49c2.58,0,4.71-0.83,6.38-2.49    c1.66-1.66,2.49-3.6,2.49-5.82V-1671.84z"></path>			<path class="st1" d="M-554.52-1710.64l12.19,199.55h2.22l12.2-199.55h44.35l-31.04,310.42h-53.21l-31.04-310.42H-554.52z"></path>			<path class="st1" d="M-474.7-1680.16c0-9.23,4.34-17.09,13.03-23.56c8.68-6.46,19.12-9.7,31.32-9.7h17.74    c12.19,0,22.63,3.24,31.32,9.7c8.68,6.47,13.03,14.33,13.03,23.56v249.44c0,9.24-4.35,17.1-13.03,23.56    c-8.69,6.47-19.12,9.7-31.32,9.7h-17.74c-12.19,0-22.64-3.23-31.32-9.7c-8.69-6.46-13.03-14.32-13.03-23.56V-1680.16z     M-412.62-1671.84c0-2.22-0.83-4.16-2.49-5.82s-3.79-2.49-6.38-2.49c-2.59,0-4.71,0.83-6.37,2.49c-1.66,1.66-2.49,3.6-2.49,5.82    v232.81c0,2.22,0.83,4.16,2.49,5.82c1.66,1.66,3.78,2.49,6.37,2.49c2.58,0,4.71-0.83,6.38-2.49s2.49-3.6,2.49-5.82V-1671.84z"></path>			<path class="st1" d="M-273.48-1433.49v33.26h-83.15l34.37-277.16h-34.37v-33.26h83.15l-33.81,277.16H-273.48z"></path>		</g>	</g>	<g>		<path class="st1" d="M-1100.25-928.17c-3,4.12-6.74,7.77-11.23,10.95c-4.49,3.18-9.74,4.77-15.72,4.77h-16.85   c-14.23,0-26.21-4.11-35.94-12.35c-9.74-8.23-14.6-18.15-14.6-29.76v-235.83c0-11.6,4.86-21.52,14.6-29.76   c9.73-8.23,21.71-12.35,35.94-12.35h22.46c14.22,0,26.2,4.12,35.94,12.35c9.73,8.24,14.6,18.16,14.6,29.76v89.84h-50.54v-78.61   c0-2.99-1.12-5.62-3.37-7.86c-2.25-2.25-4.87-3.37-7.86-3.37c-3,0-5.61,1.12-7.86,3.37c-2.25,2.25-3.37,4.87-3.37,7.86v213.37   c0,3,1.21,5.61,3.65,7.86c2.43,2.25,4.96,3.37,7.58,3.37c2.99,0,5.61-1.03,7.86-3.09c2.25-2.05,3.37-4.77,3.37-8.14v-54.75   l-11.23-11.23v-39.3h61.77v155.82h-17.97L-1100.25-928.17z"></path>		<path class="st1" d="M-1005.92-915.26h-44.92v-314.44h43.8l1.12,11.79c4.86-5.98,9.55-9.91,14.04-11.79   c4.49-1.87,9.73-2.81,15.72-2.81c10.11,0,18.15,3.28,24.15,9.83c5.98,6.55,8.98,14.51,8.98,23.86v73h-44.92v-64.57   c0-2.25-0.84-4.21-2.53-5.89c-1.68-1.68-3.84-2.53-6.46-2.53c-2.62,0-4.77,0.84-6.46,2.53c-1.68,1.68-2.53,3.65-2.53,5.89V-915.26   z"></path>		<path class="st1" d="M-866.67-927.05c-5.99,5.99-11.33,9.92-16,11.79c-4.68,1.87-9.26,2.81-13.76,2.81   c-10.11,0-18.16-3.27-24.15-9.83c-5.99-6.55-8.98-14.5-8.98-23.86v-283.56h44.92v275.14c0,2.25,0.84,4.21,2.53,5.9   c1.68,1.68,3.83,2.53,6.46,2.53c2.62,0,4.77-0.84,6.46-2.53s2.53-3.65,2.53-5.9v-275.14h44.92v314.44h-43.8L-866.67-927.05z"></path>		<path class="st1" d="M-725.73-948.95v33.69h-84.23l34.81-280.75h-34.81v-33.69h84.23l-34.25,280.75H-725.73z"></path>		<path class="st1" d="M-713.94-1198.82c0-9.35,4.4-17.31,13.2-23.86c8.79-6.55,19.37-9.83,31.73-9.83h17.97   c12.35,0,22.93,3.28,31.73,9.83c8.79,6.55,13.2,14.51,13.2,23.86v252.68c0,9.36-4.41,17.32-13.2,23.86   c-8.8,6.55-19.37,9.83-31.73,9.83h-17.97c-12.35,0-22.93-3.27-31.73-9.83c-8.8-6.55-13.2-14.5-13.2-23.86V-1198.82z    M-651.05-1190.4c0-2.25-0.84-4.21-2.53-5.89c-1.68-1.68-3.84-2.53-6.46-2.53c-2.62,0-4.77,0.84-6.46,2.53   c-1.68,1.68-2.53,3.65-2.53,5.89v235.83c0,2.25,0.84,4.21,2.53,5.9c1.68,1.68,3.83,2.53,6.46,2.53c2.62,0,4.77-0.84,6.46-2.53   s2.53-3.65,2.53-5.9V-1190.4z"></path>		<path class="st1" d="M-552.23-1229.7l12.35,202.14h2.25l12.35-202.14h44.92l-31.44,314.44h-53.9l-31.44-314.44H-552.23z"></path>		<path class="st1" d="M-471.38-1198.82c0-9.35,4.4-17.31,13.2-23.86c8.79-6.55,19.37-9.83,31.73-9.83h17.97   c12.35,0,22.93,3.28,31.73,9.83c8.79,6.55,13.2,14.51,13.2,23.86v252.68c0,9.36-4.41,17.32-13.2,23.86   c-8.8,6.55-19.37,9.83-31.73,9.83h-17.97c-12.35,0-22.93-3.27-31.73-9.83c-8.8-6.55-13.2-14.5-13.2-23.86V-1198.82z    M-408.49-1190.4c0-2.25-0.84-4.21-2.53-5.89c-1.68-1.68-3.84-2.53-6.46-2.53c-2.62,0-4.77,0.84-6.46,2.53   c-1.68,1.68-2.53,3.65-2.53,5.89v235.83c0,2.25,0.84,4.21,2.53,5.9s3.83,2.53,6.46,2.53c2.62,0,4.77-0.84,6.46-2.53   c1.68-1.68,2.53-3.65,2.53-5.9V-1190.4z"></path>		<path class="st1" d="M-267.55-948.95v33.69h-84.23l34.81-280.75h-34.81v-33.69h84.23l-34.25,280.75H-267.55z"></path>	</g>	<g>		<g>			<path class="st1" d="M-1125.92-555.36c-2.18,3-4.9,5.66-8.17,7.97s-7.09,3.47-11.44,3.47h-12.26c-10.36,0-19.07-2.99-26.16-8.99    c-7.09-5.99-10.63-13.21-10.63-21.66v-171.65c0-8.44,3.54-15.66,10.63-21.66c7.08-5.99,15.8-8.99,26.16-8.99h16.35    c10.35,0,19.07,3,26.16,8.99c7.08,6,10.63,13.22,10.63,21.66v65.39h-36.78v-57.22c0-2.18-0.82-4.09-2.45-5.72    c-1.64-1.64-3.54-2.45-5.72-2.45c-2.18,0-4.09,0.82-5.72,2.45c-1.64,1.63-2.45,3.54-2.45,5.72v155.3c0,2.18,0.88,4.09,2.66,5.72    c1.77,1.64,3.61,2.45,5.52,2.45c2.18,0,4.09-0.75,5.72-2.25c1.63-1.49,2.45-3.47,2.45-5.93v-39.85l-8.17-8.17v-28.61h44.96    v113.41h-13.08L-1125.92-555.36z"></path>			<path class="st1" d="M-1057.26-545.96h-32.69v-228.86h31.88l0.82,8.58c3.54-4.35,6.95-7.22,10.22-8.58    c3.27-1.36,7.08-2.04,11.44-2.04c7.36,0,13.21,2.39,17.57,7.15c4.35,4.77,6.54,10.56,6.54,17.37v53.13h-32.69v-47    c0-1.63-0.61-3.06-1.84-4.29c-1.23-1.23-2.8-1.84-4.7-1.84c-1.91,0-3.47,0.61-4.7,1.84c-1.23,1.23-1.84,2.66-1.84,4.29V-545.96z"></path>			<path class="st1" d="M-955.91-554.55c-4.36,4.36-8.24,7.22-11.65,8.58c-3.41,1.36-6.74,2.04-10.01,2.04    c-7.36,0-13.22-2.38-17.57-7.15c-4.36-4.76-6.54-10.56-6.54-17.37v-206.39h32.69v200.26c0,1.64,0.61,3.07,1.84,4.29    c1.23,1.23,2.79,1.84,4.7,1.84c1.9,0,3.47-0.61,4.7-1.84c1.23-1.23,1.84-2.66,1.84-4.29v-200.26h32.69v228.86h-31.88    L-955.91-554.55z"></path>			<path class="st1" d="M-853.33-570.49v24.52h-61.3l25.34-204.34h-25.34v-24.52h61.3l-24.93,204.34H-853.33z"></path>			<path class="st1" d="M-844.76-752.35c0-6.81,3.2-12.6,9.6-17.37c6.4-4.76,14.1-7.15,23.09-7.15h13.08    c8.99,0,16.69,2.39,23.09,7.15c6.4,4.77,9.6,10.56,9.6,17.37v183.91c0,6.81-3.21,12.61-9.6,17.37c-6.4,4.77-14.1,7.15-23.09,7.15    h-13.08c-8.99,0-16.69-2.38-23.09-7.15c-6.4-4.76-9.6-10.56-9.6-17.37V-752.35z M-798.98-746.22c0-1.63-0.61-3.06-1.84-4.29    c-1.23-1.23-2.8-1.84-4.7-1.84c-1.91,0-3.47,0.61-4.7,1.84s-1.84,2.66-1.84,4.29v171.65c0,1.64,0.61,3.07,1.84,4.29    c1.23,1.23,2.79,1.84,4.7,1.84c1.9,0,3.47-0.61,4.7-1.84c1.23-1.23,1.84-2.66,1.84-4.29V-746.22z"></path>			<path class="st1" d="M-727.05-774.83l8.99,147.13h1.64l8.99-147.13h32.69l-22.89,228.86h-39.23l-22.89-228.86H-727.05z"></path>			<path class="st1" d="M-668.21-752.35c0-6.81,3.2-12.6,9.6-17.37c6.4-4.76,14.1-7.15,23.09-7.15h13.08    c8.99,0,16.69,2.39,23.09,7.15c6.4,4.77,9.6,10.56,9.6,17.37v183.91c0,6.81-3.21,12.61-9.6,17.37c-6.4,4.77-14.1,7.15-23.09,7.15    h-13.08c-8.99,0-16.69-2.38-23.09-7.15c-6.4-4.76-9.6-10.56-9.6-17.37V-752.35z M-622.43-746.22c0-1.63-0.61-3.06-1.84-4.29    s-2.8-1.84-4.7-1.84c-1.91,0-3.47,0.61-4.7,1.84s-1.84,2.66-1.84,4.29v171.65c0,1.64,0.61,3.07,1.84,4.29    c1.23,1.23,2.79,1.84,4.7,1.84c1.9,0,3.47-0.61,4.7-1.84c1.23-1.23,1.84-2.66,1.84-4.29V-746.22z"></path>			<path class="st1" d="M-519.85-570.49v24.52h-61.3l25.34-204.34h-25.34v-24.52h61.3l-24.93,204.34H-519.85z"></path>		</g>		<g>			<path d="M-511.23-570.49h39.48c0-16.85,2.97-38.31,15.86-38.31c12.89,0,17.84,17.84,17.84,32.71c0,14.87-8.51,27.75-8.51,27.75    s6.52,0,21.39,0c6.94,0,9.91-25.77,9.91-25.77h83.13c-0.03,0.57-0.05,1.14-0.05,1.71c0,13.29,8.29,24.06,18.52,24.06h8.02    c10.23,0,18.52-10.77,18.52-24.06c0-0.58-0.02-1.15-0.05-1.71h7.71l0.02-54.52h-27.42l8.56-21.81h18.83v-13.88h-145.71v13.88    h19.82l12.89,21.81h-32.71v14.87h117.65l9.23,14.87h-126.88v24.78c0,0-5.28-0.83-6.26-16.44c-1.12-17.83-7.12-32.13-24.46-32.13    c-17.35,0-18.34,8.92-18.34,8.92h-8.43l-0.99-117.67l37.67-13.17l110.52,7.04v-24.21l-164.05-13.07l-11.73,5.44v15.96l11.73-4.35    v144.02l-11.73,3.2V-570.49z"></path>			<polygon points="-441.8,-732.86 -431.94,-681.65 -313.64,-679.67 -324.47,-725.27    "></polygon>			<polygon points="-452.41,-731.28 -438.45,-650.43 -474.22,-650.43 -474.22,-723.24    "></polygon>			<polygon points="-313.36,-675.24 -279.44,-667.33 -431.94,-677.5    "></polygon>			<g>				<rect x="-511.23" y="-550.38" width="243.68" height="4.08"></rect>			</g>		</g>	</g>	<g>		<rect x="-1231.06" y="-445.18" class="st1" width="300" height="300"></rect>		<g>			<path d="M-1231.06-212.66h81.81c0-15.44,2.72-35.1,14.53-35.1s16.35,16.35,16.35,29.97s-7.79,25.43-7.79,25.43s5.98,0,19.6,0    c6.36,0,9.08-23.61,9.08-23.61h76.16c-0.03,0.52-0.05,1.04-0.05,1.57c0,12.17,7.6,22.04,16.97,22.04h7.35    c9.37,0,16.97-9.87,16.97-22.04c0-0.53-0.02-1.05-0.05-1.57h7.06l0.02-49.95h-25.12l7.84-19.98h17.26v-12.71h-133.5v12.71h18.16    l11.81,19.98h-29.97v13.62h107.79l8.46,13.62h-116.24v22.7c0,0-4.84-0.76-5.74-15.06c-1.03-16.34-6.52-29.44-22.41-29.44    c-15.89,0-16.8,8.17-16.8,8.17h-7.72l-0.91-107.81l34.51-12.07l101.26,6.45v-22.18l-150.3-11.97l-56.39,25.28v14.63l56.39-24.28    v131.95l-56.39,12.88V-212.66z"></path>			<polygon points="-1121.82,-361.42 -1112.79,-314.51 -1004.4,-312.69 -1014.32,-354.47    "></polygon>			<polygon points="-1131.54,-359.97 -1118.75,-285.9 -1151.52,-285.9 -1151.52,-352.61    "></polygon>			<polygon points="-1004.14,-308.63 -973.07,-301.39 -1112.79,-310.7    "></polygon>			<g>				<rect x="-1231.06" y="-194.23" width="300" height="3.74"></rect>			</g>		</g>	</g>	<g>		<g>			<path class="st2" d="M881.5-1914.54h-60.23l18.81-47.91h41.37v-30.49h-320.1v30.49h43.55l28.31,47.91h-71.86v32.66h258.45    l20.27,32.66H561.36v54.44c0,0-11.6-1.83-13.76-36.11c-2.47-39.18-15.64-70.59-53.74-70.59s-40.28,19.6-40.28,19.6h-18.51    l-2.18-258.5l82.75-28.93l242.79,15.47v-53.18l-360.38-28.71l-263.48,142.66v14.02l263.48-119.22v316.39l-263.48,32.66v54.44    h104.52c0-28.31,7.02-58.44,27.52-58.44s26.92,17.07,26.92,58.44c0,41.37-19.73,56.62-19.73,56.62s26.32,0,44.59,0    c11.51,0,16.51-47.91,16.51-47.91h124.12c0-37.02,6.53-84.92,34.84-84.92c28.31,0,39.2,39.2,39.2,71.86    c0,32.66-18.69,60.97-18.69,60.97s14.33,0,47,0c15.24,0,21.78-56.62,21.78-56.62h182.62c-0.07,1.24-0.11,2.49-0.11,3.76    c0,29.19,18.22,52.85,40.69,52.85h17.61c22.47,0,40.69-23.66,40.69-52.85c0-1.27-0.05-2.52-0.11-3.76h16.93L881.5-1914.54z"></path>			<polygon class="st2" points="524.79,-2143.53 546.44,-2031.03 806.33,-2026.68 782.53,-2126.84    "></polygon>			<polygon class="st2" points="501.48,-2140.05 532.15,-1962.44 453.57,-1962.44 453.57,-2122.39    "></polygon>			<polygon class="st2" points="806.95,-2016.95 881.45,-1999.57 546.44,-2021.9    "></polygon>			<g>				<rect x="134.56" y="-1741.42" class="st2" width="773.02" height="12.96"></rect>			</g>		</g>		<g>			<path class="st1" d="M85.55-1412.98c-2.96,4.07-6.65,7.67-11.09,10.81c-4.43,3.14-9.61,4.71-15.52,4.71H42.31    c-14.05,0-25.87-4.06-35.48-12.19c-9.61-8.12-14.41-17.92-14.41-29.38v-755.12c0-11.45,4.8-21.25,14.41-29.38    c9.61-8.12,21.43-12.2,35.48-12.2h22.17c14.04,0,25.86,4.07,35.48,12.2c9.6,8.13,14.41,17.93,14.41,29.38v115.11H64.48v-104.02    c0-2.95-1.11-5.54-3.33-7.76c-2.22-2.22-4.81-3.33-7.76-3.33c-2.96,0-5.54,1.11-7.76,3.33c-2.22,2.22-3.33,4.81-3.33,7.76v732.95    c0,2.96,1.2,5.54,3.6,7.76c2.4,2.22,4.89,3.33,7.48,3.33c2.95,0,5.54-1.01,7.76-3.05c2.22-2.03,3.33-4.71,3.33-8.04v-349.21    l-11.09-11.09v-38.8h60.97v448.98H96.63L85.55-1412.98z"></path>			<path class="st1" d="M178.67-1400.23h-44.35v-310.42h43.24l1.11,11.64c4.8-5.91,9.42-9.79,13.86-11.64    c4.43-1.84,9.61-2.77,15.52-2.77c9.98,0,17.92,3.24,23.84,9.7c5.91,6.47,8.87,14.33,8.87,23.56v72.06h-44.35v-63.75    c0-2.22-0.83-4.16-2.49-5.82s-3.79-2.49-6.38-2.49c-2.59,0-4.71,0.83-6.37,2.49c-1.66,1.66-2.49,3.6-2.49,5.82V-1400.23z"></path>			<path class="st1" d="M316.13-1411.87c-5.92,5.92-11.18,9.8-15.8,11.64c-4.62,1.84-9.15,2.77-13.58,2.77    c-9.98,0-17.93-3.23-23.84-9.7c-5.92-6.46-8.87-14.32-8.87-23.56v-279.93h44.35v271.62c0,2.22,0.83,4.16,2.49,5.82    c1.66,1.66,3.78,2.49,6.37,2.49c2.58,0,4.71-0.83,6.38-2.49s2.49-3.6,2.49-5.82v-271.62h44.35v310.42h-43.24L316.13-1411.87z"></path>			<path class="st1" d="M455.27-1433.49v33.26h-83.15l34.37-277.16h-34.37v-33.26h83.15l-33.81,277.16H455.27z"></path>			<path class="st1" d="M466.9-1680.16c0-9.23,4.34-17.09,13.03-23.56c8.68-6.46,19.12-9.7,31.32-9.7h17.74    c12.2,0,22.63,3.24,31.32,9.7c8.68,6.47,13.03,14.33,13.03,23.56v249.44c0,9.24-4.35,17.1-13.03,23.56    c-8.69,6.47-19.12,9.7-31.32,9.7h-17.74c-12.19,0-22.64-3.23-31.32-9.7c-8.69-6.46-13.03-14.32-13.03-23.56V-1680.16z     M528.98-1671.84c0-2.22-0.83-4.16-2.49-5.82s-3.79-2.49-6.38-2.49c-2.59,0-4.71,0.83-6.37,2.49s-2.49,3.6-2.49,5.82v232.81    c0,2.22,0.83,4.16,2.49,5.82s3.78,2.49,6.37,2.49c2.58,0,4.71-0.83,6.38-2.49s2.49-3.6,2.49-5.82V-1671.84z"></path>			<path class="st1" d="M626.54-1710.64l12.19,199.55h2.22l12.19-199.55h44.35l-31.04,310.42h-53.21l-31.04-310.42H626.54z"></path>			<path class="st1" d="M706.36-1680.16c0-9.23,4.34-17.09,13.03-23.56c8.68-6.46,19.12-9.7,31.32-9.7h17.74    c12.19,0,22.63,3.24,31.32,9.7c8.68,6.47,13.03,14.33,13.03,23.56v249.44c0,9.24-4.35,17.1-13.03,23.56    c-8.69,6.47-19.12,9.7-31.32,9.7h-17.74c-12.19,0-22.64-3.23-31.32-9.7c-8.69-6.46-13.03-14.32-13.03-23.56V-1680.16z     M768.45-1671.84c0-2.22-0.83-4.16-2.49-5.82c-1.66-1.66-3.79-2.49-6.38-2.49c-2.59,0-4.71,0.83-6.37,2.49s-2.49,3.6-2.49,5.82    v232.81c0,2.22,0.83,4.16,2.49,5.82s3.78,2.49,6.37,2.49c2.58,0,4.71-0.83,6.38-2.49c1.66-1.66,2.49-3.6,2.49-5.82V-1671.84z"></path>			<path class="st1" d="M907.58-1433.49v33.26h-83.15l34.37-277.16h-34.37v-33.26h83.15l-33.81,277.16H907.58z"></path>		</g>	</g>	<g>		<path class="st1" d="M80.82-928.17c-3,4.12-6.74,7.77-11.23,10.95c-4.49,3.18-9.74,4.77-15.72,4.77H37.02   c-14.23,0-26.21-4.11-35.94-12.35c-9.74-8.23-14.6-18.15-14.6-29.76v-235.83c0-11.6,4.86-21.52,14.6-29.76   c9.73-8.23,21.71-12.35,35.94-12.35h22.46c14.22,0,26.2,4.12,35.94,12.35c9.73,8.24,14.6,18.16,14.6,29.76v89.84H59.48v-78.61   c0-2.99-1.12-5.62-3.37-7.86c-2.25-2.25-4.87-3.37-7.86-3.37c-3,0-5.61,1.12-7.86,3.37c-2.25,2.25-3.37,4.87-3.37,7.86v213.37   c0,3,1.21,5.61,3.65,7.86c2.43,2.25,4.96,3.37,7.58,3.37c2.99,0,5.61-1.03,7.86-3.09c2.25-2.05,3.37-4.77,3.37-8.14v-54.75   l-11.23-11.23v-39.3h61.77v155.82H92.05L80.82-928.17z"></path>		<path class="st1" d="M175.15-915.26h-44.92v-314.44h43.8l1.12,11.79c4.86-5.98,9.55-9.91,14.04-11.79   c4.49-1.87,9.73-2.81,15.72-2.81c10.11,0,18.15,3.28,24.15,9.83c5.98,6.55,8.98,14.51,8.98,23.86v73h-44.92v-64.57   c0-2.25-0.84-4.21-2.53-5.89c-1.68-1.68-3.84-2.53-6.46-2.53c-2.62,0-4.77,0.84-6.46,2.53c-1.68,1.68-2.53,3.65-2.53,5.89V-915.26   z"></path>		<path class="st1" d="M314.4-927.05c-5.99,5.99-11.33,9.92-16,11.79c-4.68,1.87-9.26,2.81-13.76,2.81   c-10.11,0-18.16-3.27-24.15-9.83c-5.99-6.55-8.98-14.5-8.98-23.86v-283.56h44.92v275.14c0,2.25,0.84,4.21,2.53,5.9   c1.68,1.68,3.83,2.53,6.46,2.53c2.62,0,4.77-0.84,6.46-2.53c1.68-1.68,2.53-3.65,2.53-5.9v-275.14h44.92v314.44h-43.8   L314.4-927.05z"></path>		<path class="st1" d="M455.33-948.95v33.69h-84.23l34.81-280.75h-34.81v-33.69h84.23l-34.25,280.75H455.33z"></path>		<path class="st1" d="M467.12-1198.82c0-9.35,4.4-17.31,13.2-23.86c8.79-6.55,19.37-9.83,31.73-9.83h17.97   c12.35,0,22.93,3.28,31.73,9.83c8.79,6.55,13.2,14.51,13.2,23.86v252.68c0,9.36-4.41,17.32-13.2,23.86   c-8.8,6.55-19.37,9.83-31.73,9.83h-17.97c-12.35,0-22.93-3.27-31.73-9.83c-8.8-6.55-13.2-14.5-13.2-23.86V-1198.82z    M530.01-1190.4c0-2.25-0.84-4.21-2.53-5.89c-1.68-1.68-3.84-2.53-6.46-2.53c-2.62,0-4.77,0.84-6.46,2.53   c-1.68,1.68-2.53,3.65-2.53,5.89v235.83c0,2.25,0.84,4.21,2.53,5.9c1.68,1.68,3.83,2.53,6.46,2.53c2.62,0,4.77-0.84,6.46-2.53   s2.53-3.65,2.53-5.9V-1190.4z"></path>		<path class="st1" d="M628.83-1229.7l12.35,202.14h2.25l12.35-202.14h44.92l-31.44,314.44h-53.9l-31.44-314.44H628.83z"></path>		<path class="st1" d="M709.69-1198.82c0-9.35,4.4-17.31,13.2-23.86c8.79-6.55,19.37-9.83,31.73-9.83h17.97   c12.35,0,22.93,3.28,31.73,9.83c8.79,6.55,13.2,14.51,13.2,23.86v252.68c0,9.36-4.41,17.32-13.2,23.86   c-8.8,6.55-19.37,9.83-31.73,9.83h-17.97c-12.35,0-22.93-3.27-31.73-9.83c-8.8-6.55-13.2-14.5-13.2-23.86V-1198.82z    M772.58-1190.4c0-2.25-0.84-4.21-2.53-5.89c-1.68-1.68-3.84-2.53-6.46-2.53c-2.62,0-4.77,0.84-6.46,2.53   c-1.68,1.68-2.53,3.65-2.53,5.89v235.83c0,2.25,0.84,4.21,2.53,5.9s3.83,2.53,6.46,2.53c2.62,0,4.77-0.84,6.46-2.53   s2.53-3.65,2.53-5.9V-1190.4z"></path>		<path class="st1" d="M913.51-948.95v33.69h-84.23l34.81-280.75h-34.81v-33.69h84.23l-34.25,280.75H913.51z"></path>	</g>	<g>		<g>			<path class="st1" d="M55.14-555.36c-2.18,3-4.9,5.66-8.17,7.97c-3.27,2.31-7.09,3.47-11.44,3.47H23.27    c-10.36,0-19.07-2.99-26.16-8.99c-7.09-5.99-10.63-13.21-10.63-21.66v-171.65c0-8.44,3.54-15.66,10.63-21.66    c7.08-5.99,15.8-8.99,26.16-8.99h16.35c10.35,0,19.07,3,26.16,8.99c7.08,6,10.63,13.22,10.63,21.66v65.39H39.61v-57.22    c0-2.18-0.82-4.09-2.45-5.72c-1.64-1.64-3.54-2.45-5.72-2.45c-2.18,0-4.09,0.82-5.72,2.45c-1.64,1.63-2.45,3.54-2.45,5.72v155.3    c0,2.18,0.88,4.09,2.66,5.72c1.77,1.64,3.61,2.45,5.52,2.45c2.18,0,4.09-0.75,5.72-2.25c1.63-1.49,2.45-3.47,2.45-5.93v-39.85    l-8.17-8.17v-28.61H76.4v113.41H63.32L55.14-555.36z"></path>			<path class="st1" d="M123.8-545.96H91.11v-228.86h31.88l0.82,8.58c3.54-4.35,6.95-7.22,10.22-8.58    c3.27-1.36,7.08-2.04,11.44-2.04c7.36,0,13.21,2.39,17.57,7.15c4.35,4.77,6.54,10.56,6.54,17.37v53.13h-32.69v-47    c0-1.63-0.61-3.06-1.84-4.29c-1.23-1.23-2.8-1.84-4.7-1.84c-1.91,0-3.47,0.61-4.7,1.84s-1.84,2.66-1.84,4.29V-545.96z"></path>			<path class="st1" d="M225.15-554.55c-4.36,4.36-8.24,7.22-11.65,8.58c-3.41,1.36-6.74,2.04-10.01,2.04    c-7.36,0-13.22-2.38-17.57-7.15c-4.36-4.76-6.54-10.56-6.54-17.37v-206.39h32.69v200.26c0,1.64,0.61,3.07,1.84,4.29    c1.23,1.23,2.79,1.84,4.7,1.84c1.9,0,3.47-0.61,4.7-1.84c1.23-1.23,1.84-2.66,1.84-4.29v-200.26h32.69v228.86h-31.88    L225.15-554.55z"></path>			<path class="st1" d="M327.73-570.49v24.52h-61.3l25.34-204.34h-25.34v-24.52h61.3L302.8-570.49H327.73z"></path>			<path class="st1" d="M336.31-752.35c0-6.81,3.2-12.6,9.6-17.37c6.4-4.76,14.1-7.15,23.09-7.15h13.08    c8.99,0,16.69,2.39,23.09,7.15c6.4,4.77,9.6,10.56,9.6,17.37v183.91c0,6.81-3.21,12.61-9.6,17.37c-6.4,4.77-14.1,7.15-23.09,7.15    H369c-8.99,0-16.69-2.38-23.09-7.15c-6.4-4.76-9.6-10.56-9.6-17.37V-752.35z M382.08-746.22c0-1.63-0.61-3.06-1.84-4.29    c-1.23-1.23-2.8-1.84-4.7-1.84c-1.91,0-3.47,0.61-4.7,1.84c-1.23,1.23-1.84,2.66-1.84,4.29v171.65c0,1.64,0.61,3.07,1.84,4.29    c1.23,1.23,2.79,1.84,4.7,1.84c1.9,0,3.47-0.61,4.7-1.84c1.23-1.23,1.84-2.66,1.84-4.29V-746.22z"></path>			<path class="st1" d="M454.01-774.83L463-627.7h1.64l8.99-147.13h32.69l-22.89,228.86H444.2l-22.89-228.86H454.01z"></path>			<path class="st1" d="M512.86-752.35c0-6.81,3.2-12.6,9.6-17.37c6.4-4.76,14.1-7.15,23.09-7.15h13.08    c8.99,0,16.69,2.39,23.09,7.15c6.4,4.77,9.6,10.56,9.6,17.37v183.91c0,6.81-3.21,12.61-9.6,17.37c-6.4,4.77-14.1,7.15-23.09,7.15    h-13.08c-8.99,0-16.69-2.38-23.09-7.15c-6.4-4.76-9.6-10.56-9.6-17.37V-752.35z M558.63-746.22c0-1.63-0.61-3.06-1.84-4.29    s-2.8-1.84-4.7-1.84c-1.91,0-3.47,0.61-4.7,1.84c-1.23,1.23-1.84,2.66-1.84,4.29v171.65c0,1.64,0.61,3.07,1.84,4.29    c1.23,1.23,2.79,1.84,4.7,1.84c1.9,0,3.47-0.61,4.7-1.84c1.23-1.23,1.84-2.66,1.84-4.29V-746.22z"></path>			<path class="st1" d="M661.21-570.49v24.52h-61.3l25.34-204.34h-25.34v-24.52h61.3l-24.93,204.34H661.21z"></path>		</g>		<g>			<path class="st2" d="M669.84-570.49h39.48c0-16.85,2.97-38.31,15.86-38.31s17.84,17.84,17.84,32.71    c0,14.87-8.51,27.75-8.51,27.75s6.52,0,21.39,0c6.94,0,9.91-25.77,9.91-25.77h83.13c-0.03,0.57-0.05,1.14-0.05,1.71    c0,13.29,8.29,24.06,18.52,24.06h8.02c10.23,0,18.52-10.77,18.52-24.06c0-0.58-0.02-1.15-0.05-1.71h7.71l0.02-54.52h-27.42    l8.56-21.81h18.83v-13.88H755.91v13.88h19.82l12.89,21.81h-32.71v14.87h117.65l9.23,14.87H755.91v24.78c0,0-5.28-0.83-6.26-16.44    c-1.12-17.83-7.12-32.13-24.46-32.13s-18.34,8.92-18.34,8.92h-8.43l-0.99-117.67l37.67-13.17l110.52,7.04v-24.21l-164.05-13.07    l-11.73,5.44v15.96l11.73-4.35v144.02l-11.73,3.2V-570.49z"></path>			<polygon class="st2" points="739.27,-732.86 749.12,-681.65 867.42,-679.67 856.59,-725.27    "></polygon>			<polygon class="st2" points="728.65,-731.28 742.62,-650.43 706.85,-650.43 706.85,-723.24    "></polygon>			<polygon class="st2" points="867.71,-675.24 901.62,-667.33 749.12,-677.5    "></polygon>			<g>				<rect x="669.84" y="-550.38" class="st2" width="243.68" height="4.08"></rect>			</g>		</g>	</g>	<g>		<rect x="-50" y="-445.18" class="st1" width="300" height="300"></rect>		<g>			<path class="st2" d="M-50-212.66h81.81c0-15.44,2.72-35.1,14.53-35.1s16.35,16.35,16.35,29.97s-7.79,25.43-7.79,25.43    s5.98,0,19.6,0c6.36,0,9.08-23.61,9.08-23.61h76.16c-0.03,0.52-0.05,1.04-0.05,1.57c0,12.17,7.6,22.04,16.97,22.04h7.35    c9.37,0,16.97-9.87,16.97-22.04c0-0.53-0.02-1.05-0.05-1.57H208l0.02-49.95H182.9l7.84-19.98H208v-12.71H74.5v12.71h18.16    l11.81,19.98H74.5v13.62h107.79l8.46,13.62H74.5v22.7c0,0-4.84-0.76-5.74-15.06c-1.03-16.34-6.52-29.44-22.41-29.44    s-16.8,8.17-16.8,8.17h-7.72l-0.91-107.81l34.51-12.07l101.26,6.45v-22.18L6.39-399.88L-50-374.6v14.63l56.39-24.28v131.95    L-50-239.42V-212.66z"></path>			<polygon class="st2" points="59.25,-361.42 68.28,-314.51 176.67,-312.69 166.74,-354.47    "></polygon>			<polygon class="st2" points="49.52,-359.97 62.32,-285.9 29.54,-285.9 29.54,-352.61    "></polygon>			<polygon class="st2" points="176.92,-308.63 208,-301.39 68.28,-310.7    "></polygon>			<g>				<rect x="-50" y="-194.23" class="st2" width="300" height="3.74"></rect>			</g>		</g>	</g>	<g>		<g>			<path class="st0" d="M65.62,211.7c-2.09,2.87-4.69,5.41-7.81,7.62s-6.77,3.32-10.94,3.32H35.15c-9.9,0-18.23-2.86-25-8.59    C3.38,208.32,0,201.42,0,193.35V29.29c0-8.07,3.38-14.97,10.16-20.7C16.92,2.87,25.25,0,35.15,0h15.62c9.89,0,18.22,2.87,25,8.59    c6.77,5.73,10.16,12.63,10.16,20.7v62.5H50.78V37.11c0-2.08-0.78-3.91-2.34-5.47c-1.56-1.56-3.39-2.34-5.47-2.34    c-2.09,0-3.91,0.78-5.47,2.34c-1.56,1.56-2.34,3.39-2.34,5.47v148.43c0,2.09,0.84,3.91,2.54,5.47c1.69,1.56,3.45,2.34,5.27,2.34    c2.08,0,3.91-0.71,5.47-2.15c1.56-1.43,2.34-3.32,2.34-5.66v-38.08l-7.81-7.81V112.3h42.97v108.39h-12.5L65.62,211.7z"></path>			<path class="st0" d="M131.24,220.69H99.99V1.95h30.47l0.78,8.2c3.38-4.16,6.64-6.9,9.76-8.2c3.12-1.3,6.77-1.95,10.94-1.95    c7.03,0,12.63,2.28,16.8,6.84c4.16,4.56,6.25,10.09,6.25,16.6v50.78h-31.25V29.29c0-1.56-0.59-2.93-1.76-4.1    c-1.17-1.17-2.67-1.76-4.49-1.76c-1.82,0-3.32,0.59-4.49,1.76c-1.17,1.17-1.76,2.54-1.76,4.1V220.69z"></path>			<path class="st0" d="M228.1,212.49c-4.17,4.17-7.88,6.9-11.13,8.2c-3.26,1.3-6.44,1.95-9.57,1.95c-7.03,0-12.63-2.28-16.8-6.84    c-4.17-4.55-6.25-10.09-6.25-16.6V1.95h31.25v191.39c0,1.56,0.59,2.93,1.76,4.1c1.17,1.17,2.67,1.76,4.49,1.76    c1.82,0,3.32-0.59,4.49-1.76c1.17-1.17,1.76-2.54,1.76-4.1V1.95h31.25v218.73h-30.47L228.1,212.49z"></path>			<path class="st0" d="M326.14,197.25v23.44h-58.59l24.22-195.3h-24.22V1.95h58.59l-23.83,195.3H326.14z"></path>			<path class="st0" d="M334.34,23.44c0-6.51,3.06-12.04,9.18-16.6C349.63,2.28,356.99,0,365.59,0h12.5    c8.59,0,15.95,2.28,22.07,6.84c6.11,4.56,9.18,10.09,9.18,16.6v175.77c0,6.51-3.06,12.05-9.18,16.6    c-6.12,4.56-13.48,6.84-22.07,6.84h-12.5c-8.59,0-15.95-2.28-22.07-6.84c-6.12-4.55-9.18-10.09-9.18-16.6V23.44z M378.09,29.29    c0-1.56-0.59-2.93-1.76-4.1c-1.17-1.17-2.67-1.76-4.49-1.76c-1.82,0-3.32,0.59-4.49,1.76c-1.17,1.17-1.76,2.54-1.76,4.1v164.05    c0,1.56,0.59,2.93,1.76,4.1c1.17,1.17,2.67,1.76,4.49,1.76c1.82,0,3.32-0.59,4.49-1.76c1.17-1.17,1.76-2.54,1.76-4.1V29.29z"></path>			<path class="st0" d="M446.83,1.95l8.59,140.61h1.56l8.59-140.61h31.25l-21.87,218.73h-37.5L415.58,1.95H446.83z"></path>			<path class="st0" d="M503.07,23.44c0-6.51,3.06-12.04,9.18-16.6C518.37,2.28,525.73,0,534.32,0h12.5    c8.59,0,15.95,2.28,22.07,6.84c6.11,4.56,9.18,10.09,9.18,16.6v175.77c0,6.51-3.06,12.05-9.18,16.6    c-6.12,4.56-13.48,6.84-22.07,6.84h-12.5c-8.59,0-15.95-2.28-22.07-6.84c-6.12-4.55-9.18-10.09-9.18-16.6V23.44z M546.82,29.29    c0-1.56-0.59-2.93-1.76-4.1c-1.17-1.17-2.67-1.76-4.49-1.76c-1.82,0-3.32,0.59-4.49,1.76c-1.17,1.17-1.76,2.54-1.76,4.1v164.05    c0,1.56,0.59,2.93,1.76,4.1c1.17,1.17,2.67,1.76,4.49,1.76c1.82,0,3.32-0.59,4.49-1.76c1.17-1.17,1.76-2.54,1.76-4.1V29.29z"></path>			<path class="st0" d="M644.86,197.25v23.44h-58.59l24.22-195.3h-24.22V1.95h58.59l-23.83,195.3H644.86z"></path>		</g>		<g>			<path class="st1" d="M667.11,198.38h37.74c0-16.1,2.84-36.62,15.16-36.62c12.32,0,17.05,17.05,17.05,31.26    c0,14.21-8.13,26.53-8.13,26.53s6.24,0,20.45,0c6.63,0,9.47-24.63,9.47-24.63h79.45c-0.03,0.54-0.05,1.09-0.05,1.64    c0,12.7,7.93,23,17.7,23h7.66c9.78,0,17.7-10.3,17.7-23c0-0.55-0.02-1.1-0.05-1.64h7.37l0.02-52.1h-26.2l8.18-20.84h18v-13.26    H749.37v13.26h18.95l12.32,20.84h-31.26v14.21h112.44l8.82,14.21H749.37v23.68c0,0-5.05-0.79-5.99-15.71    c-1.07-17.04-6.8-30.71-23.38-30.71c-16.58,0-17.53,8.53-17.53,8.53h-8.05l-0.95-112.46l36-12.59l105.63,6.73V15.58L678.32,3.09    l-11.21,5.2v15.26l11.21-4.16v137.65l-11.21,3.06V198.38z"></path>			<polygon class="st1" points="733.46,43.2 742.88,92.14 855.95,94.03 845.6,50.45    "></polygon>			<polygon class="st1" points="723.32,44.71 736.67,121.98 702.48,121.98 702.48,52.39    "></polygon>			<polygon class="st1" points="856.22,98.27 888.63,105.83 742.88,96.11    "></polygon>			<g>				<rect x="667.11" y="217.6" class="st1" width="232.89" height="3.9"></rect>			</g>		</g>	</g></g><g id="Color">	<rect x="-1292.89" y="-3134.39" class="st2" width="268.61" height="268.61"></rect>	<rect x="-945.81" y="-3134.39" class="st1" width="268.61" height="268.61"></rect>	<rect x="-2053.56" y="-3134.39" class="st0" width="268.61" height="268.61"></rect>	<rect x="-1670.21" y="-3134.39" width="268.61" height="268.61"></rect></g></svg>