<?xml version="1.0" encoding="UTF-8"?> <svg xmlns="http://www.w3.org/2000/svg" width="314" height="119" viewBox="0 0 314 119" fill="none"><path d="M15.8999 32.7817C13.294 32.5608 11.0025 34.4943 10.7817 37.1001L7.18276 79.5652C6.96191 82.1711 8.89535 84.4626 11.5012 84.6835C14.1071 84.9043 16.3986 82.9709 16.6195 80.365L19.8185 42.6182L57.5652 45.8172C60.1711 46.0381 62.4626 44.1046 62.6835 41.4988C62.9043 38.8929 60.9709 36.6014 58.365 36.3805L15.8999 32.7817ZM161.5 107L161.528 111.735L161.528 111.735L161.5 107ZM296.832 40.2815C298.368 38.165 297.898 35.204 295.781 33.6678C293.665 32.1316 290.704 32.602 289.168 34.7185L296.832 40.2815ZM15.5 37.5C11.8809 40.5536 11.8822 40.5552 11.8837 40.557C11.8845 40.558 11.8863 40.5601 11.8879 40.562C11.8912 40.5658 11.8954 40.5707 11.9004 40.5767C11.9106 40.5887 11.9243 40.6048 11.9417 40.6251C11.9763 40.6658 12.0254 40.723 12.0888 40.7964C12.2155 40.943 12.3993 41.154 12.6392 41.425C13.1191 41.9671 13.8237 42.7494 14.7456 43.7375C16.5889 45.7134 19.3025 48.5142 22.8257 51.8633C29.8679 58.5577 40.1675 67.4647 53.2383 76.3569C79.3408 94.1146 116.775 111.998 161.528 111.735L161.5 107L161.472 102.265C119.297 102.513 83.7308 85.6468 58.5653 68.5266C46.0022 59.9798 36.1009 51.416 29.3507 44.9992C25.9776 41.7928 23.3972 39.128 21.6705 37.2771C20.8073 36.3518 20.1579 35.6305 19.73 35.1472C19.5161 34.9056 19.3576 34.7235 19.2554 34.6053C19.2044 34.5462 19.1674 34.503 19.1446 34.4763C19.1333 34.463 19.1254 34.4538 19.1212 34.4488C19.119 34.4463 19.1178 34.4448 19.1175 34.4444C19.1173 34.4442 19.1177 34.4447 19.1176 34.4446C19.1183 34.4454 19.1191 34.4464 15.5 37.5ZM161.5 107L161.528 111.735C203.599 111.488 237.452 93.5293 260.648 75.8356C272.261 66.9772 281.269 58.1368 287.383 51.5006C290.442 48.1802 292.783 45.4051 294.369 43.4464C295.162 42.4669 295.767 41.6909 296.179 41.1523C296.385 40.883 296.542 40.6729 296.652 40.5264C296.706 40.4531 296.748 40.3958 296.779 40.3548C296.794 40.3343 296.806 40.3179 296.815 40.3056C296.819 40.2995 296.823 40.2944 296.826 40.2904C296.827 40.2884 296.829 40.2862 296.83 40.2852C296.831 40.2832 296.832 40.2815 293 37.5C289.168 34.7185 289.169 34.7173 289.169 34.7164C289.169 34.7165 289.17 34.7158 289.17 34.7159C289.17 34.7161 289.169 34.7173 289.167 34.7195C289.164 34.724 289.157 34.7326 289.148 34.7453C289.129 34.7707 289.099 34.8123 289.056 34.8696C288.971 34.9843 288.837 35.1619 288.656 35.3982C288.295 35.8709 287.744 36.5783 287.008 37.487C285.536 39.3048 283.327 41.9257 280.418 45.0836C274.595 51.4039 265.991 59.8488 254.904 68.3056C232.701 85.2423 200.804 102.034 161.472 102.265L161.5 107Z" fill="#FE881C"></path></svg> 