<?xml version="1.0" encoding="UTF-8"?> <svg xmlns="http://www.w3.org/2000/svg" viewBox="0 0 62.00 62.00" data-guides="{&quot;vertical&quot;:[],&quot;horizontal&quot;:[]}"><defs></defs><ellipse fill="#ff7a00" cx="31.00006103515625" cy="31.00006103515625" r="9" id="tSvgb9f1036b36" title="Ellipse 1" fill-opacity="1" stroke="none" stroke-opacity="1" rx="31.00006103515625" ry="31.00006103515625" style="transform: rotate(0deg); transform-origin: 31.0001px 31.0001px;"></ellipse><path fill="#ffffff" stroke="none" fill-opacity="1" stroke-width="1" stroke-opacity="1" id="tSvg17248aafa8e" title="Path 1" d="M30.6727 48.0842C30.5131 48.0849 30.3549 48.0539 30.2075 47.9926C30.06 47.9313 29.9263 47.8414 29.8141 47.7277C26.7037 44.6172 23.5933 41.5068 20.4828 38.3963C18.4649 36.3806 17.0902 33.8116 16.5327 31.0143C15.9752 28.217 16.2598 25.3173 17.3507 22.6818C18.4415 20.0464 20.2895 17.7937 22.6609 16.2087C25.0323 14.6238 27.8205 13.7778 30.6727 13.7778C33.525 13.7778 36.3131 14.6238 38.6846 16.2087C41.0561 17.7937 42.9041 20.0464 43.9949 22.6818C45.0858 25.3173 45.3703 28.217 44.8127 31.0143C44.2553 33.8116 42.8807 36.3806 40.8626 38.3963C37.7521 41.5068 34.6417 44.6172 31.5313 47.7277C31.4192 47.8414 31.2854 47.9313 31.138 47.9926C30.9906 48.0539 30.8324 48.0849 30.6727 48.0842ZM30.6727 16.2184C28.3029 16.22 25.9868 16.924 24.0169 18.2414C22.047 19.5588 20.5117 21.4304 19.6051 23.62C18.6984 25.8095 18.461 28.2186 18.9229 30.543C19.3848 32.8673 20.5251 35.0025 22.2 36.6793C25.0243 39.5035 27.8485 42.3277 30.6727 45.1519C33.497 42.3277 36.3212 39.5035 39.1455 36.6793C40.8202 35.0025 41.9606 32.8673 42.4226 30.543C42.8845 28.2186 42.6471 25.8095 41.7405 23.62C40.8336 21.4304 39.2984 19.5588 37.3286 18.2414C35.3587 16.924 33.0426 16.22 30.6727 16.2184Z"></path><path fill="none" stroke="black" fill-opacity="1" stroke-width="0.1" stroke-opacity="1" id="tSvgdd24faf834" title="Path 2" d="M30.6727 48.0842C30.5131 48.0852 30.3549 48.0539 30.2075 47.9926"></path><path fill="none" stroke="black" fill-opacity="1" stroke-width="0.1" stroke-opacity="1" id="tSvg13e6a74bcd6" title="Path 3" d="M30.2075 47.9926C30.06 47.9316 29.9263 47.8414 29.8141 47.7277"></path><path fill="none" stroke="black" fill-opacity="1" stroke-width="0.1" stroke-opacity="1" id="tSvg14b120b1571" title="Path 4" d="M29.8141 47.7273C26.7036 44.6169 23.5932 41.5064 20.4827 38.396"></path><path fill="none" stroke="black" fill-opacity="1" stroke-width="0.1" stroke-opacity="1" id="tSvg15851600a35" title="Path 5" d="M20.4828 38.3963C18.4649 36.3806 17.0902 33.8116 16.5327 31.0144"></path><path fill="none" stroke="black" fill-opacity="1" stroke-width="0.1" stroke-opacity="1" id="tSvgd2dd4447cd" title="Path 6" d="M16.5327 31.014C15.9752 28.2168 16.2598 25.317 17.3507 22.6816"></path><path fill="none" stroke="black" fill-opacity="1" stroke-width="0.1" stroke-opacity="1" id="tSvgf215ac8a97" title="Path 7" d="M17.3507 22.682C18.4416 20.0466 20.2895 17.7939 22.6609 16.2089"></path><path fill="none" stroke="black" fill-opacity="1" stroke-width="0.1" stroke-opacity="1" id="tSvgfb8a8b0f50" title="Path 8" d="M22.661 16.2087C25.0323 14.6238 27.8206 13.7778 30.6728 13.7778"></path><path fill="none" stroke="black" fill-opacity="1" stroke-width="0.1" stroke-opacity="1" id="tSvgafccd80d3a" title="Path 9" d="M30.6727 13.7778C33.525 13.7778 36.3131 14.6238 38.6846 16.2087"></path><path fill="none" stroke="black" fill-opacity="1" stroke-width="0.1" stroke-opacity="1" id="tSvg82adb28fa8" title="Path 10" d="M38.6846 16.2089C41.0561 17.7939 42.9041 20.0466 43.9949 22.682"></path><path fill="none" stroke="black" fill-opacity="1" stroke-width="0.1" stroke-opacity="1" id="tSvg90c1949a81" title="Path 11" d="M43.9946 22.6816C45.0855 25.317 45.3703 28.2168 44.8127 31.014"></path><path fill="none" stroke="black" fill-opacity="1" stroke-width="0.1" stroke-opacity="1" id="tSvgd5e51bdc19" title="Path 12" d="M44.8127 31.0144C44.2553 33.8116 42.8807 36.3806 40.8626 38.3963"></path><path fill="none" stroke="black" fill-opacity="1" stroke-width="0.1" stroke-opacity="1" id="tSvg14f8d9211cb" title="Path 13" d="M40.8626 38.396C37.7521 41.5064 34.6417 44.6169 31.5313 47.7273"></path><path fill="none" stroke="black" fill-opacity="1" stroke-width="0.1" stroke-opacity="1" id="tSvgd73c27ac9b" title="Path 14" d="M31.5313 47.7277C31.4191 47.8414 31.2854 47.9316 31.138 47.9926"></path><path fill="none" stroke="black" fill-opacity="1" stroke-width="0.1" stroke-opacity="1" id="tSvg82b55e887f" title="Path 15" d="M31.138 47.9926C30.9906 48.0539 30.8324 48.0852 30.6727 48.0842"></path><path fill="none" stroke="black" fill-opacity="1" stroke-width="0.1" stroke-opacity="1" id="tSvg11e63e53009" title="Path 16" d="M30.6728 16.2182C28.303 16.2199 25.9869 16.9238 24.017 18.2412"></path><path fill="none" stroke="black" fill-opacity="1" stroke-width="0.1" stroke-opacity="1" id="tSvg4abe569547" title="Path 17" d="M24.0168 18.2415C22.047 19.5588 20.5117 21.4305 19.605 23.62"></path><path fill="none" stroke="black" fill-opacity="1" stroke-width="0.1" stroke-opacity="1" id="tSvgfceb5a17c8" title="Path 18" d="M19.6051 23.62C18.6984 25.8096 18.4611 28.2187 18.923 30.5431"></path><path fill="none" stroke="black" fill-opacity="1" stroke-width="0.1" stroke-opacity="1" id="tSvg18d07f5d5be" title="Path 19" d="M18.9228 30.5426C19.3847 32.867 20.5251 35.0022 22.2 36.6789"></path><path fill="none" stroke="black" fill-opacity="1" stroke-width="0.1" stroke-opacity="1" id="tSvg172c93924a" title="Path 20" d="M22.1999 36.6789C25.0242 39.5031 27.8484 42.3274 30.6726 45.1516"></path><path fill="none" stroke="black" fill-opacity="1" stroke-width="0.1" stroke-opacity="1" id="tSvg10e26c96954" title="Path 21" d="M30.6727 45.1516C33.497 42.3274 36.3212 39.5031 39.1455 36.6789"></path><path fill="none" stroke="black" fill-opacity="1" stroke-width="0.1" stroke-opacity="1" id="tSvga50c7e01f1" title="Path 22" d="M39.1455 36.6789C40.8205 35.0022 41.9606 32.867 42.4226 30.5426"></path><path fill="none" stroke="black" fill-opacity="1" stroke-width="0.1" stroke-opacity="1" id="tSvgaa1aabdef0" title="Path 23" d="M42.4226 30.5431C42.8845 28.2187 42.6471 25.8096 41.7405 23.62"></path><path fill="none" stroke="black" fill-opacity="1" stroke-width="0.1" stroke-opacity="1" id="tSvg13bb0e73f9" title="Path 24" d="M41.7405 23.62C40.834 21.4305 39.2984 19.5588 37.3286 18.2415"></path><path fill="none" stroke="black" fill-opacity="1" stroke-width="0.1" stroke-opacity="1" id="tSvg12bc813478f" title="Path 25" d="M37.3286 18.2412C35.3587 16.9238 33.0426 16.2199 30.6727 16.2182"></path><path fill="#ffffff" stroke="none" fill-opacity="1" stroke-width="1" stroke-opacity="1" id="tSvg169c73194b3" title="Path 26" d="M30.6727 33.5518C29.4712 33.5518 28.2966 33.1955 27.2976 32.528C26.2986 31.8605 25.5199 30.9117 25.0601 29.8016C24.6003 28.6915 24.48 27.47 24.7144 26.2916C24.9488 25.1131 25.5274 24.0307 26.377 23.181C27.2266 22.3314 28.3091 21.7528 29.4875 21.5184C30.666 21.284 31.8875 21.4043 32.9975 21.8641C34.1076 22.3239 35.0562 23.1026 35.7238 24.1016C36.3917 25.1007 36.7478 26.2752 36.7478 27.4768C36.7478 29.088 36.1078 30.6332 34.9684 31.7725C33.8291 32.9118 32.2839 33.5518 30.6727 33.5518ZM30.6727 23.8317C29.9518 23.8317 29.247 24.0455 28.6476 24.446C28.0482 24.8465 27.581 25.4158 27.3051 26.0819C27.0293 26.7479 26.9571 27.4808 27.0977 28.1879C27.2383 28.895 27.5855 29.5444 28.0953 30.0542C28.605 30.564 29.2545 30.9111 29.9616 31.0518C30.6687 31.1924 31.4016 31.1202 32.0676 30.8443C32.7337 30.5684 33.3029 30.1013 33.7035 29.5018C34.104 28.9024 34.3178 28.1977 34.3178 27.4768C34.3178 26.51 33.9337 25.5829 33.2501 24.8993C32.5666 24.2157 31.6395 23.8317 30.6727 23.8317Z"></path><path fill="none" stroke="black" fill-opacity="1" stroke-width="0.1" stroke-opacity="1" id="tSvgda58bb422" title="Path 27" d="M30.6728 33.5518C29.4712 33.5518 28.2967 33.1956 27.2977 32.528"></path><path fill="none" stroke="black" fill-opacity="1" stroke-width="0.1" stroke-opacity="1" id="tSvg1781d83ac38" title="Path 28" d="M27.2977 32.5282C26.2986 31.8606 25.52 30.9118 25.0601 29.8017"></path><path fill="none" stroke="black" fill-opacity="1" stroke-width="0.1" stroke-opacity="1" id="tSvg72d9bc0ace" title="Path 29" d="M25.0601 29.8017C24.6003 28.6916 24.48 27.4702 24.7144 26.2917"></path><path fill="none" stroke="black" fill-opacity="1" stroke-width="0.1" stroke-opacity="1" id="tSvg478400feaa" title="Path 30" d="M24.7143 26.2916C24.9487 25.1132 25.5273 24.0307 26.3769 23.1811"></path><path fill="none" stroke="black" fill-opacity="1" stroke-width="0.1" stroke-opacity="1" id="tSvg1197d0777d7" title="Path 31" d="M26.3771 23.1812C27.2267 22.3316 28.3091 21.753 29.4876 21.5186"></path><path fill="none" stroke="black" fill-opacity="1" stroke-width="0.1" stroke-opacity="1" id="tSvgbe73f9a03e" title="Path 32" d="M29.4874 21.5184C30.6659 21.284 31.8874 21.4043 32.9975 21.8641"></path><path fill="none" stroke="black" fill-opacity="1" stroke-width="0.1" stroke-opacity="1" id="tSvg13d2848c8b2" title="Path 33" d="M32.9975 21.8642C34.1075 22.324 35.0562 23.1027 35.7238 24.1017"></path><path fill="none" stroke="black" fill-opacity="1" stroke-width="0.1" stroke-opacity="1" id="tSvgdccf39bf34" title="Path 34" d="M35.7241 24.1019C36.3917 25.101 36.7478 26.2755 36.7478 27.477"></path><path fill="none" stroke="black" fill-opacity="1" stroke-width="0.1" stroke-opacity="1" id="tSvgc72decef1b" title="Path 35" d="M36.7478 27.4766C36.7478 29.0878 36.1078 30.633 34.9684 31.7723"></path><path fill="none" stroke="black" fill-opacity="1" stroke-width="0.1" stroke-opacity="1" id="tSvg1848fdc180f" title="Path 36" d="M34.9684 31.7729C33.8292 32.9122 32.2839 33.5522 30.6727 33.5522"></path><path fill="none" stroke="black" fill-opacity="1" stroke-width="0.1" stroke-opacity="1" id="tSvg18a6d1cfa6c" title="Path 37" d="M30.6726 23.832C29.9517 23.832 29.247 24.0457 28.6476 24.4463"></path><path fill="none" stroke="black" fill-opacity="1" stroke-width="0.1" stroke-opacity="1" id="tSvg91f3e5c1d1" title="Path 38" d="M28.6477 24.4459C28.0483 24.8464 27.5811 25.4156 27.3052 26.0817"></path><path fill="none" stroke="black" fill-opacity="1" stroke-width="0.1" stroke-opacity="1" id="tSvgd36eac0a8a" title="Path 39" d="M27.3052 26.0815C27.0293 26.7475 26.9571 27.4804 27.0977 28.1875"></path><path fill="none" stroke="black" fill-opacity="1" stroke-width="0.1" stroke-opacity="1" id="tSvgd19a7d623a" title="Path 40" d="M27.0977 28.188C27.2384 28.8951 27.5855 29.5445 28.0953 30.0543"></path><path fill="none" stroke="black" fill-opacity="1" stroke-width="0.1" stroke-opacity="1" id="tSvg127435ec27e" title="Path 41" d="M28.0953 30.054C28.605 30.5638 29.2545 30.911 29.9616 31.0516"></path><path fill="none" stroke="black" fill-opacity="1" stroke-width="0.1" stroke-opacity="1" id="tSvg409c7e2142" title="Path 42" d="M29.9615 31.0519C30.6686 31.1926 31.4015 31.1204 32.0675 30.8445"></path><path fill="none" stroke="black" fill-opacity="1" stroke-width="0.1" stroke-opacity="1" id="tSvg18e479a22e" title="Path 43" d="M32.0676 30.844C32.7337 30.5681 33.303 30.101 33.7035 29.5015"></path><path fill="none" stroke="black" fill-opacity="1" stroke-width="0.1" stroke-opacity="1" id="tSvg16510bdcb32" title="Path 44" d="M33.7034 29.5017C34.104 28.9022 34.3178 28.1975 34.3178 27.4766"></path><path fill="none" stroke="black" fill-opacity="1" stroke-width="0.1" stroke-opacity="1" id="tSvg4a3f05d533" title="Path 45" d="M34.3178 27.4766C34.3178 26.5098 33.9338 25.5827 33.2502 24.8991"></path><path fill="none" stroke="black" fill-opacity="1" stroke-width="0.1" stroke-opacity="1" id="tSvge0e92786d2" title="Path 46" d="M33.2501 24.8996C32.5666 24.216 31.6395 23.832 30.6727 23.832"></path></svg> 