<svg xmlns="http://www.w3.org/2000/svg" viewBox="0 0 512 512" fill="#999" height="30"><path d="M8 176a8 8 0 008-8V16h152a8 8 0 000-16H8a8 8 0 00-8 8v160a8 8 0 008 8zm160 320H16V344a8 8 0 00-16 0v160a8 8 0 008 8h160a8 8 0 000-16zm336-160a8 8 0 00-8 8v152H344a8 8 0 000 16h160a8 8 0 008-8V344a8 8 0 00-8-8zm0-336H344a8 8 0 000 16h152v152a8 8 0 0016 0V8a8 8 0 00-8-8z"/><path d="M199.2 88H96a8 8 0 00-8 8v103.2a8 8 0 0016 0V104h95.2a8 8 0 000-16zm0 320H104v-95.2a8 8 0 00-16 0V416a8 8 0 008 8h103.2a8 8 0 000-16zm224.8 8V312.8a8 8 0 00-16 0V408h-95.2a8 8 0 000 16H416a8 8 0 008-8zM312.8 104H408v95.2a8 8 0 0016 0V96a8 8 0 00-8-8H312.8a8 8 0 000 16zM96 280a8 8 0 008-8v-32a8 8 0 00-16 0v32a8 8 0 008 8zm320-48a8 8 0 00-8 8v32a8 8 0 0016 0v-32a8 8 0 00-8-8zM272 408h-32a8 8 0 000 16h32a8 8 0 000-16zm8-320h-48a8 8 0 000 16h48a8 8 0 000-16z"/></svg>