<svg xmlns="http://www.w3.org/2000/svg" viewBox="0 0 512 512" fill="#999" height="30"><path d="M394.726 194.026c-34.227-76.653-124.113-111.045-200.766-76.818a8.002 8.002 0 106.536 14.608c56.696-25.366 123.379-8.941 161.807 39.857 46.303 58.798 36.173 144-22.625 190.303s-144 36.173-190.303-22.625-36.173-144 22.625-190.303a8.005 8.005 0 10-9.92-12.568 152 152 0 00-58.091 119.531C103.995 339.958 172.053 408.006 256 408a152.003 152.003 0 0061.908-13.208c76.653-34.227 111.045-124.113 76.818-200.766zM64 248H8a8 8 0 000 16h56a8 8 0 000-16zm440 0h-56a8 8 0 000 16h56a8 8 0 000-16zM256 0a8 8 0 00-8 8v56a8 8 0 0016 0V8a8 8 0 00-8-8zm0 440a8 8 0 00-8 8v56a8 8 0 0016 0v-56a8 8 0 00-8-8zM125.888 114.576L80.64 69.328A8 8 0 0069.328 80.64l45.248 45.248a8 8 0 1011.312-11.312zM442.672 431.36l-45.248-45.248a8 8 0 00-11.116 0 8 8 0 00-.196 11.312l45.248 45.248a8 8 0 1011.312-11.312zm0-361.836a8 8 0 00-11.312-.196l-45.248 45.248a8 8 0 005.656 13.656 8 8 0 005.656-2.344l45.248-45.248a8.001 8.001 0 000-11.116zM125.888 386.308a8 8 0 00-11.312-.196L69.328 431.36a8 8 0 005.656 13.656 8 8 0 005.656-2.344l45.248-45.248a8.001 8.001 0 000-11.116z"/></svg>