<svg xmlns="http://www.w3.org/2000/svg" viewBox="0 0 512 512" fill="#999" height="30"><path d="M256 104c-83.947.01-151.991 68.072-151.981 152.019.011 83.947 68.072 151.991 152.019 151.981a152 152 0 0088.194-28.216 8.001 8.001 0 00-9.296-13.024A134.844 134.844 0 01264 391.696V120.408c71.8 4.259 127.881 63.666 128 135.592a134.596 134.596 0 01-29.056 84 8.009 8.009 0 0012.576 9.92A150.464 150.464 0 00408 256c-.093-83.909-68.091-151.907-152-152zm-8 287.592A135.738 135.738 0 01146.264 336H248v55.592zM248 320H136.064a134.98 134.98 0 01-15.656-56H248v56zm0-72H120.408a134.98 134.98 0 0115.656-56H248v56zm0-72H146.264A135.738 135.738 0 01248 120.408V176zM72 256a8 8 0 00-8-8H8a8 8 0 000 16h56a8 8 0 008-8zm432-8h-56a8 8 0 000 16h56a8 8 0 000-16zM256 72a8 8 0 008-8V8a8 8 0 00-16 0v56a8 8 0 008 8zm0 368a8 8 0 00-8 8v56a8 8 0 0016 0v-56a8 8 0 00-8-8zM114.576 125.888a8 8 0 0011.312-11.312L80.64 69.328A8 8 0 0069.328 80.64l45.248 45.248zm282.848 260.224a8 8 0 00-11.312.196 8 8 0 000 11.116l45.248 45.248a8 8 0 0011.312-.196 8 8 0 000-11.116l-45.248-45.248zm-5.656-257.88a8 8 0 005.656-2.344l45.248-45.248a8 8 0 00-11.312-11.312l-45.248 45.248a8 8 0 005.656 13.656zm-277.192 257.88L69.328 431.36a8 8 0 00-.196 11.312 8 8 0 0011.508 0l45.248-45.248a8 8 0 00-11.312-11.312z"/></svg>