<svg width="44" height="44" viewBox="0 0 44 44" fill="none" xmlns="http://www.w3.org/2000/svg">
<g id="icon">
<g id="Vector">
<path d="M36.6567 39.6V36.4571H40.4281V32.6857H36.6567V29.5429H40.4281V25.7714H36.6567V22.6286H40.4281V18.8571H36.6567V15.7143H40.4281V11.9429H36.6567V9.42857H32.8853V11.9429H24.0853V9.42857H20.3139V11.9429H17.7996V9.42857H14.0281V11.9429H10.8853V15.7143H14.0281V18.8571H10.8853V22.6286H14.0281V25.7714H10.8853V29.5429H14.0281V32.6857H10.8853V36.4571H14.0281V39.6H12.0167V37.7143H8.62242V6.91429H10.8853V4.4H27.2281C27.4167 5.15429 28.0453 5.65714 28.8624 5.65714C29.8053 5.65714 30.5596 4.90286 30.5596 3.96C30.5596 3.01714 29.8053 2.26286 28.8624 2.26286C28.2338 2.26286 27.6681 2.64 27.3539 3.14286H10.8853V3.01714C10.8853 1.32 9.50242 0 7.86813 0H5.60528C3.90814 0 2.58813 1.32 2.58813 3.01714V6.91429H4.85099V37.7143H2.58813V44H42.3139V39.6H36.6567ZM28.8624 3.45714C29.1138 3.45714 29.3024 3.70857 29.3024 3.96C29.3024 4.21143 29.1138 4.4 28.8624 4.4C28.611 4.4 28.4224 4.14857 28.4224 3.89714C28.4224 3.64571 28.611 3.45714 28.8624 3.45714ZM35.3996 39.6H34.1424V36.4571H35.3996V39.6ZM20.3139 39.6H17.7996V36.4571H20.3139V39.6ZM21.571 36.4571H22.8281V39.6H21.571V36.4571ZM24.0853 36.4571H26.5996V39.6H24.0853V36.4571ZM27.8567 36.4571H29.1138V39.6H27.8567V36.4571ZM30.371 36.4571H32.8853V39.6H30.371V36.4571ZM35.3996 32.6857H34.1424V29.5429H35.3996V32.6857ZM20.3139 32.6857H17.7996V29.5429H20.3139V32.6857ZM21.571 29.5429H22.8281V32.6857H21.571V29.5429ZM24.0853 29.5429H26.5996V32.6857H24.0853V29.5429ZM27.8567 29.5429H29.1138V32.6857H27.8567V29.5429ZM30.371 29.5429H32.8853V32.6857H30.371V29.5429ZM35.3996 25.7714H34.1424V22.6286H35.3996V25.7714ZM20.3139 25.7714H17.7996V22.6286H20.3139V25.7714ZM21.571 22.6286H22.8281V25.7714H21.571V22.6286ZM24.0853 22.6286H26.5996V25.7714H24.0853V22.6286ZM27.8567 22.6286H29.1138V25.7714H27.8567V22.6286ZM30.371 22.6286H32.8853V25.7714H30.371V22.6286ZM35.3996 18.8571H34.1424V15.7143H35.3996V18.8571ZM20.3139 18.8571H17.7996V15.7143H20.3139V18.8571ZM21.571 15.7143H22.8281V18.8571H21.571V15.7143ZM24.0853 15.7143H26.5996V18.8571H24.0853V15.7143ZM27.8567 15.7143H29.1138V18.8571H27.8567V15.7143ZM30.371 15.7143H32.8853V18.8571H30.371V15.7143ZM34.1424 10.6857H35.3996V11.9429H34.1424V10.6857ZM21.571 10.6857H22.8281V11.9429H21.571V10.6857ZM15.2853 10.6857H16.5424V11.9429H15.2853V10.6857ZM12.1424 14.4571V13.2H39.171V14.4571H12.1424ZM15.2853 15.7143H16.5424V18.8571H15.2853V15.7143ZM12.1424 21.3714V20.1143H39.171V21.3714H12.1424ZM15.2853 22.6286H16.5424V25.7714H15.2853V22.6286ZM12.1424 28.2857V27.0286H39.171V28.2857H12.1424ZM15.2853 29.5429H16.5424V32.6857H15.2853V29.5429ZM12.1424 35.2V33.9429H39.171V35.2H12.1424ZM15.2853 36.4571H16.5424V39.6H15.2853V36.4571ZM6.10813 31.5543L7.36528 30.6114V32.8743L6.10813 31.9314V31.5543ZM6.10813 26.5257L7.36528 25.5829V27.8457L6.10813 26.9029V26.5257ZM6.10813 21.4971L7.36528 20.5543V22.8171L6.10813 21.8743V21.4971ZM6.10813 16.4686L7.36528 15.5257V17.7886L6.10813 16.8457V16.4686ZM6.10813 11.44L7.36528 10.4971V12.76L6.10813 11.8171V11.44ZM7.36528 7.73143L6.23385 6.91429H7.36528V7.73143ZM3.84528 3.01714C3.84528 2.01143 4.59956 1.25714 5.60528 1.25714H7.80528C8.81099 1.25714 9.56528 2.07429 9.56528 3.01714V5.65714H3.84528V3.01714ZM6.10813 8.36L7.11385 9.11429L6.10813 9.86857V8.36ZM6.10813 13.3886L7.11385 14.1429L6.10813 14.8971V13.3886ZM6.10813 18.4171L7.11385 19.1714L6.10813 19.9257V18.4171ZM6.10813 23.4457L7.11385 24.2L6.10813 24.9543V23.4457ZM6.10813 28.4743L7.11385 29.2286L6.10813 29.9829V28.4743ZM6.10813 33.5029L7.11385 34.2571L6.10813 35.0114V33.5029ZM6.10813 36.5829L7.36528 35.64V37.7143H6.10813V36.5829ZM8.87385 39.6V42.7429H3.84528V38.9714H10.7596V39.6H8.87385ZM41.0567 42.7429H10.2567V40.8571H41.0567V42.7429Z" fill="#3E3E40"/>
<path d="M26.5996 10.6857H30.371V6.91429H26.5996V10.6857ZM27.8567 8.17143H29.1139V9.42857H27.8567V8.17143Z" fill="#3E3E40"/>
<path d="M8.24528 3.14286H5.10242V4.4H8.24528V3.14286Z" fill="#3E3E40"/>
</g>
</g>
</svg>
