<svg width="44" height="44" viewBox="0 0 44 44" fill="none" xmlns="http://www.w3.org/2000/svg">
<g id="icon">
<g id="Vector">
<path d="M30.874 0V44H43.199V0H30.874ZM34.5715 42.7246V38.8986H35.1877V42.7246H34.5715ZM37.6527 42.7246H36.4202V38.8986H37.6527V42.7246ZM39.5015 42.7246H38.8852V38.8986H39.5015V42.7246ZM41.9665 42.7246H40.734V37.6232H33.339V42.7246H32.1065V1.27536H41.9665V42.7246Z" fill="#3E3E40"/>
<path d="M36.4202 34.4986H33.339V35.7739H36.4202V34.4986Z" fill="#3E3E40"/>
<path d="M40.734 34.4986H37.6527V35.7739H40.734V34.4986Z" fill="#3E3E40"/>
<path d="M36.4202 31.9478H33.339V33.2232H36.4202V31.9478Z" fill="#3E3E40"/>
<path d="M40.734 31.9478H37.6527V33.2232H40.734V31.9478Z" fill="#3E3E40"/>
<path d="M36.4202 29.3971H33.339V30.6725H36.4202V29.3971Z" fill="#3E3E40"/>
<path d="M40.734 29.3971H37.6527V30.6725H40.734V29.3971Z" fill="#3E3E40"/>
<path d="M40.734 26.8464H33.339V28.1217H40.734V26.8464Z" fill="#3E3E40"/>
<path d="M40.734 24.2957H33.339V25.571H40.734V24.2957Z" fill="#3E3E40"/>
<path d="M36.4202 21.7449H33.339V23.0203H36.4202V21.7449Z" fill="#3E3E40"/>
<path d="M40.734 21.7449H37.6527V23.0203H40.734V21.7449Z" fill="#3E3E40"/>
<path d="M36.4202 19.1942H33.339V20.4696H36.4202V19.1942Z" fill="#3E3E40"/>
<path d="M40.734 19.1942H37.6527V20.4696H40.734V19.1942Z" fill="#3E3E40"/>
<path d="M36.4202 16.6435H33.339V17.9188H36.4202V16.6435Z" fill="#3E3E40"/>
<path d="M40.734 16.6435H37.6527V17.9188H40.734V16.6435Z" fill="#3E3E40"/>
<path d="M40.734 14.0928H33.339V15.3681H40.734V14.0928Z" fill="#3E3E40"/>
<path d="M40.734 11.542H33.339V12.8174H40.734V11.542Z" fill="#3E3E40"/>
<path d="M36.4202 8.99131H33.339V10.2667H36.4202V8.99131Z" fill="#3E3E40"/>
<path d="M40.734 8.99131H37.6527V10.2667H40.734V8.99131Z" fill="#3E3E40"/>
<path d="M36.4202 6.44058H33.339V7.71594H36.4202V6.44058Z" fill="#3E3E40"/>
<path d="M40.734 6.44058H37.6527V7.71594H40.734V6.44058Z" fill="#3E3E40"/>
<path d="M36.4202 3.88986H33.339V5.16522H36.4202V3.88986Z" fill="#3E3E40"/>
<path d="M40.734 3.88986H37.6527V5.16522H40.734V3.88986Z" fill="#3E3E40"/>
<path d="M16.0841 5.10145V44H28.409V5.10145H16.0841ZM19.7816 42.7246V38.8986H21.6303V42.7246H19.7816ZM22.8628 42.7246V38.8986H24.7116V42.7246H22.8628ZM27.1765 42.7246H25.944V37.6232H18.5491V42.7246H17.3166V6.37681H27.1765V42.7246Z" fill="#3E3E40"/>
<path d="M21.6303 34.4986H18.5491V35.7739H21.6303V34.4986Z" fill="#3E3E40"/>
<path d="M25.944 34.4986H22.8628V35.7739H25.944V34.4986Z" fill="#3E3E40"/>
<path d="M21.6303 31.9478H18.5491V33.2232H21.6303V31.9478Z" fill="#3E3E40"/>
<path d="M25.944 31.9478H22.8628V33.2232H25.944V31.9478Z" fill="#3E3E40"/>
<path d="M21.6303 29.3971H18.5491V30.6725H21.6303V29.3971Z" fill="#3E3E40"/>
<path d="M25.944 29.3971H22.8628V30.6725H25.944V29.3971Z" fill="#3E3E40"/>
<path d="M21.6303 26.8464H18.5491V28.1217H21.6303V26.8464Z" fill="#3E3E40"/>
<path d="M25.944 26.8464H22.8628V28.1217H25.944V26.8464Z" fill="#3E3E40"/>
<path d="M21.6303 24.2957H18.5491V25.571H21.6303V24.2957Z" fill="#3E3E40"/>
<path d="M25.944 24.2957H22.8628V25.571H25.944V24.2957Z" fill="#3E3E40"/>
<path d="M21.6303 21.7449H18.5491V23.0203H21.6303V21.7449Z" fill="#3E3E40"/>
<path d="M25.944 21.7449H22.8628V23.0203H25.944V21.7449Z" fill="#3E3E40"/>
<path d="M21.6303 19.1942H18.5491V20.4696H21.6303V19.1942Z" fill="#3E3E40"/>
<path d="M25.944 19.1942H22.8628V20.4696H25.944V19.1942Z" fill="#3E3E40"/>
<path d="M25.944 16.6435H18.5491V17.9188H25.944V16.6435Z" fill="#3E3E40"/>
<path d="M25.944 14.0928H18.5491V15.3681H25.944V14.0928Z" fill="#3E3E40"/>
<path d="M25.944 11.542H18.5491V12.8174H25.944V11.542Z" fill="#3E3E40"/>
<path d="M25.944 8.99131H18.5491V10.2667H25.944V8.99131Z" fill="#3E3E40"/>
<path d="M1.29419 10.2029V44H13.6191V10.2029H1.29419ZM4.99167 42.7246V38.8986H5.60791V42.7246H4.99167ZM6.84041 42.7246V38.8986H8.0729V42.7246H6.84041ZM9.30539 42.7246V38.8986H9.92164V42.7246H9.30539ZM12.3866 42.7246H11.1541V37.6232H3.75918V42.7246H2.52668V11.4783H12.3866V42.7246Z" fill="#3E3E40"/>
<path d="M11.1541 34.4986H3.75918V35.7739H11.1541V34.4986Z" fill="#3E3E40"/>
<path d="M11.1541 31.9478H3.75918V33.2232H11.1541V31.9478Z" fill="#3E3E40"/>
<path d="M6.84041 29.3971H3.75918V30.6725H6.84041V29.3971Z" fill="#3E3E40"/>
<path d="M11.1541 29.3971H8.0729V30.6725H11.1541V29.3971Z" fill="#3E3E40"/>
<path d="M6.84041 26.8464H3.75918V28.1217H6.84041V26.8464Z" fill="#3E3E40"/>
<path d="M11.1541 26.8464H8.0729V28.1217H11.1541V26.8464Z" fill="#3E3E40"/>
<path d="M6.84041 24.2957H3.75918V25.571H6.84041V24.2957Z" fill="#3E3E40"/>
<path d="M11.1541 24.2957H8.0729V25.571H11.1541V24.2957Z" fill="#3E3E40"/>
<path d="M6.84041 21.7449H3.75918V23.0203H6.84041V21.7449Z" fill="#3E3E40"/>
<path d="M11.1541 21.7449H8.0729V23.0203H11.1541V21.7449Z" fill="#3E3E40"/>
<path d="M6.84041 19.1942H3.75918V20.4696H6.84041V19.1942Z" fill="#3E3E40"/>
<path d="M11.1541 19.1942H8.0729V20.4696H11.1541V19.1942Z" fill="#3E3E40"/>
<path d="M11.1541 16.6435H3.75918V17.9188H11.1541V16.6435Z" fill="#3E3E40"/>
<path d="M11.1541 14.0928H3.75918V15.3681H11.1541V14.0928Z" fill="#3E3E40"/>
</g>
</g>
</svg>
