<svg width="44" height="44" viewBox="0 0 44 44" fill="none" xmlns="http://www.w3.org/2000/svg">
<g id="icon">
<g id="Vector">
<path d="M31.7288 36.9903V30.0287H24.1343V36.9903H31.7288ZM30.463 35.7246H28.5644V33.826H30.463V35.7246ZM30.463 31.2945V32.5602H28.5644V31.2945H30.463ZM25.4 31.2945H27.2987V32.5602H25.4V31.2945ZM25.4 35.7246V33.826H27.2987V35.7246H25.4Z" fill="#3E3E40"/>
<path d="M37.9942 39.5851C37.8021 39.5748 37.6097 39.5962 37.4246 39.6484C36.8431 38.6433 35.9563 37.8496 34.8931 37.3827V31.3514L36.7285 33.1931L39.8928 30.0287L34.8931 24.9657V17.3713H35.526V13.574H29.1973V17.3713H29.8301V19.9028L22.9318 12.9412L19.1726 16.7004C18.7031 16.2468 18.0786 15.9888 17.4258 15.979C17.0795 15.9807 16.7373 16.0548 16.4213 16.1965C16.1052 16.3382 15.8223 16.5443 15.5905 16.8017C14.9603 16.4225 14.2374 16.2254 13.502 16.2321C12.9486 16.2337 12.401 16.345 11.8908 16.5594C11.3807 16.7739 10.918 17.0873 10.5297 17.4816C10.1413 17.8758 9.83489 18.3431 9.62813 18.8564C9.42137 19.3698 9.31836 19.919 9.32505 20.4723C9.32505 20.6622 9.38834 20.8521 9.38834 21.0419C8.94539 21.3496 8.58234 21.7585 8.32939 22.2348C8.07644 22.7111 7.94092 23.2409 7.93411 23.7802C7.9273 24.3194 8.0494 24.8525 8.29024 25.335C8.53107 25.8175 8.88369 26.2355 9.31872 26.5543L5.90754 29.9654L9.00862 33.1298L10.8439 31.2945V38.0093C10.0905 38.0198 9.35212 38.2223 8.69874 38.5977C8.04536 38.9732 7.49854 39.509 7.11 40.1547C6.70579 40.1024 6.29506 40.1371 5.90534 40.2564C5.51562 40.3757 5.1559 40.577 4.85028 40.8467C4.54466 41.1163 4.3002 41.4482 4.13326 41.82C3.96633 42.1918 3.88078 42.595 3.88235 43.0026C3.88235 43.1292 3.94563 43.3191 3.94563 43.4456L4.00892 43.9519H40.7155L41.3484 43.8254L41.4117 43.2558V43.0026C41.4134 42.5534 41.3261 42.1082 41.155 41.6928C40.9838 41.2774 40.7322 40.9 40.4145 40.5823C40.0968 40.2647 39.7194 40.013 39.304 39.8418C38.8886 39.6707 38.4435 39.5834 37.9942 39.5851ZM30.463 14.8398H34.2602V16.1055H30.463V14.8398ZM33.6274 17.3713V23.4469L31.0959 20.9154V17.3713H33.6274ZM9.19848 23.9531C9.19629 23.5548 9.30842 23.1642 9.52156 22.8277C9.73469 22.4911 10.0399 22.2228 10.4009 22.0545L10.8439 21.8014L10.7174 21.2951C10.6649 21.0455 10.6437 20.7904 10.6541 20.5356C10.649 19.7561 10.9521 19.0062 11.4973 18.449C12.0426 17.8919 12.7859 17.5728 13.5653 17.5611C13.8906 17.5378 14.2166 17.5949 14.5146 17.7273C14.8126 17.8598 15.0734 18.0635 15.2741 18.3206L15.9069 18.8269L16.2867 18.1307C16.3928 17.9201 16.5557 17.7432 16.757 17.6202C16.9583 17.4972 17.1899 17.4329 17.4258 17.4346C17.7017 17.4213 17.9725 17.5116 18.1853 17.6877L10.1478 25.7252C9.85407 25.5327 9.61329 25.2696 9.44745 24.9601C9.28162 24.6505 9.19602 24.3043 9.19848 23.9531ZM9.00862 31.3578L7.67958 30.0287L22.8685 14.8398L38.0575 30.0287L36.7285 31.3578L34.8931 29.5224V29.3959H34.7665L22.8685 17.4978L10.9705 29.3959H10.8439V29.5224L9.00862 31.3578ZM10.8439 42.6862H5.14809C5.21249 42.325 5.39804 41.9965 5.67415 41.7549C5.95026 41.5133 6.30045 41.373 6.66699 41.3572C6.83821 41.3469 7.00986 41.3683 7.17328 41.4204L7.74287 41.6103L7.99602 41.104C8.25398 40.5642 8.65691 40.1067 9.15981 39.7826C9.6627 39.4585 10.2458 39.2806 10.8439 39.2687V42.6862ZM14.6412 42.6862V31.2945H20.9699V35.0917H19.7042V37.6232H20.9699V42.6862H14.6412ZM22.2357 30.0287H13.3754V42.6862H12.1097V30.0287L22.8685 19.2699L33.6274 30.0794V36.9903C33.335 36.9373 33.0385 36.9097 32.7414 36.9081C31.9929 36.9126 31.2532 37.0698 30.5676 37.3702C29.8821 37.6705 29.265 38.1076 28.7542 38.6548C28.7163 38.6928 28.691 38.7371 28.653 38.7687L28.5644 38.8889C27.9991 38.6682 27.3851 38.6028 26.786 38.6996C26.1869 38.7964 25.6247 39.0518 25.1577 39.4394C24.6907 39.8269 24.336 40.3324 24.1305 40.9034C23.9249 41.4743 23.8759 42.0899 23.9887 42.6862H22.2357V30.0287ZM25.2735 42.6862C25.1934 42.3628 25.1863 42.0256 25.2526 41.6991C25.3189 41.3725 25.4571 41.0649 25.657 40.7983C25.8569 40.5318 26.1136 40.313 26.4085 40.1579C26.7033 40.0028 27.029 39.9152 27.3619 39.9015C27.6673 39.9022 27.9691 39.9669 28.248 40.0914L28.4378 40.218C28.7521 40.3959 29.0141 40.6535 29.1973 40.9648L29.2416 41.047C29.3035 41.1666 29.3544 41.2916 29.3935 41.4204L29.4314 41.547C29.5341 41.9236 29.5119 42.3233 29.3681 42.6862H25.2735ZM30.7162 42.6862C30.7197 42.642 30.7197 42.5975 30.7162 42.5533C30.7162 42.509 30.7162 42.4584 30.7162 42.4077V42.3508C30.7222 42.2517 30.7222 42.1524 30.7162 42.0533C30.7267 41.5792 30.6363 41.1082 30.4508 40.6717C30.2653 40.2353 29.989 39.8433 29.6403 39.5218C30.0347 39.1058 30.5126 38.778 31.0427 38.5598C31.5728 38.3417 32.1431 38.2381 32.716 38.2561H32.9882L33.2413 38.2877C33.9126 38.4141 34.5444 38.698 35.0846 39.1161C35.6248 39.5341 36.058 40.0745 36.3487 40.6926L36.6019 41.1989L37.1715 41.0091C37.3982 40.9418 37.6317 40.8994 37.8676 40.8825C38.3821 40.8783 38.8813 41.0576 39.2756 41.3881C39.67 41.7186 39.9337 42.1788 40.0194 42.6862H30.7162Z" fill="#3E3E40"/>
</g>
</g>
</svg>
