<svg width="44" height="45" viewBox="0 0 44 45" fill="none" xmlns="http://www.w3.org/2000/svg">
<g id="icon">
<g id="Vector">
<path d="M4.47861 15.8585H8.67028V11.6668H4.47861V15.8585ZM5.67623 12.8645H7.47266V14.6609H5.67623V12.8645Z" fill="#3E3E40"/>
<path d="M10.4667 15.8585H14.6584V11.6668H10.4667V15.8585ZM11.6643 12.8645H13.4607V14.6609H11.6643V12.8645Z" fill="#3E3E40"/>
<path d="M20.6465 11.6668H16.4548V15.8585H20.6465V11.6668ZM19.4488 14.6609H17.6524V12.8645H19.4488V14.6609Z" fill="#3E3E40"/>
<path d="M4.47861 21.8466H8.67028V17.6549H4.47861V21.8466ZM5.67623 18.8525H7.47266V20.649H5.67623V18.8525Z" fill="#3E3E40"/>
<path d="M10.4667 21.8466H14.6584V17.6549H10.4667V21.8466ZM11.6643 18.8525H13.4607V20.649H11.6643V18.8525Z" fill="#3E3E40"/>
<path d="M20.6465 17.6549H16.4548V21.8466H20.6465V17.6549ZM19.4488 20.649H17.6524V18.8525H19.4488V20.649Z" fill="#3E3E40"/>
<path d="M4.47861 27.8347H8.67028V23.643H4.47861V27.8347ZM5.67623 24.8406H7.47266V26.6371H5.67623V24.8406Z" fill="#3E3E40"/>
<path d="M10.4667 27.8347H14.6584V23.643H10.4667V27.8347ZM11.6643 24.8406H13.4607V26.6371H11.6643V24.8406Z" fill="#3E3E40"/>
<path d="M20.6465 23.643H16.4548V27.8347H20.6465V23.643ZM19.4488 26.6371H17.6524V24.8406H19.4488V26.6371Z" fill="#3E3E40"/>
<path d="M32.6226 21.8466H28.431V27.2359H32.6226V21.8466ZM31.425 26.0383H29.6286V23.0442H31.425V26.0383Z" fill="#3E3E40"/>
<path d="M38.6107 21.8466H34.4191V27.2359H38.6107V21.8466ZM37.4131 26.0383H35.6167V23.0442H37.4131V26.0383Z" fill="#3E3E40"/>
<path d="M44 34.1821C44.0003 33.4436 43.8398 32.714 43.5296 32.0439C43.2193 31.3738 42.7668 30.7793 42.2036 30.3018V20.0502H42.8024V17.0561H40.4071V14.0621H23.6405V8.6728H21.8441V6.87637H8.07147V8.6728H6.87385V3.88232H3.281V8.6728H1.48457V30.7569C0.533839 31.7109 0 33.0029 0 34.3497C0 35.6966 0.533839 36.9885 1.48457 37.9426V44.6013H42.2036V38.0623C42.7668 37.5848 43.2193 36.9903 43.5296 36.3202C43.8398 35.6501 44.0003 34.9205 44 34.1821ZM42.8024 34.1821C42.8016 35.1089 42.4691 36.0049 41.865 36.7078C41.2609 37.4108 40.4251 37.8743 39.5089 38.0144V36.9366V36.9725L41.9042 34.5773L41.0539 33.727L39.5089 35.3198V33.0443H38.3113V38.0144C37.5759 37.8999 36.8887 37.577 36.3312 37.0838C35.7737 36.5906 35.3693 35.948 35.166 35.232C34.9626 34.516 34.9688 33.7568 35.1838 33.0442C35.3988 32.3316 35.8136 31.6956 36.379 31.2116C36.9445 30.7276 37.6368 30.4159 38.374 30.3134C39.1112 30.2108 39.8624 30.3218 40.5384 30.6332C41.2145 30.9446 41.787 31.4433 42.1883 32.0701C42.5896 32.697 42.8027 33.4258 42.8024 34.1701V34.1821ZM35.6167 30.3018V30.2299H35.7005L35.6167 30.3018ZM23.6405 15.2597H39.2095V17.0561H23.6405V15.2597ZM23.6405 18.2537H41.6048V18.8525H23.6405V18.2537ZM23.6405 23.0442H25.4369V26.0383H23.6405V23.0442ZM9.26908 8.07399H20.6465V8.6728H9.26908V8.07399ZM4.47861 5.07994H5.67623V8.6728H4.47861V5.07994ZM1.18516 34.3617C1.18486 33.6174 1.39798 32.8886 1.79924 32.2617C2.20051 31.6349 2.7731 31.1362 3.44914 30.8248C4.12518 30.5135 4.87632 30.4025 5.61353 30.505C6.35073 30.6075 7.04309 30.9192 7.60852 31.4032C8.17395 31.8872 8.58876 32.5232 8.80376 33.2358C9.01875 33.9484 9.02494 34.7077 8.82157 35.4236C8.6182 36.1396 8.21381 36.7823 7.65633 37.2754C7.09886 37.7686 6.41167 38.0915 5.67623 38.206V37.1282L5.71815 37.1641L8.11338 34.7689L7.26307 33.9246L5.67623 35.5114V33.224H4.47861V38.206C3.56038 38.0656 2.72301 37.6003 2.11866 36.8949C1.51431 36.1895 1.18308 35.2906 1.18516 34.3617ZM2.68219 38.8528C3.24073 39.1506 3.84998 39.3415 4.47861 39.4156V43.4037H2.68219V38.8528ZM14.6584 43.4037H11.6643V36.8168H14.6584V43.4037ZM10.4667 35.6192V43.4037H5.67623V39.4156C6.62574 39.303 7.52432 38.9251 8.26901 38.3254C9.01371 37.7256 9.57441 36.9283 9.88689 36.0246C10.1994 35.1209 10.251 34.1475 10.0358 33.2158C9.82063 32.2842 9.34738 31.432 8.67027 30.7569V29.6311H6.95169C6.35498 29.3949 5.71917 29.2731 5.07742 29.2718C4.24169 29.2696 3.41854 29.4754 2.68219 29.8706V9.87041H22.4429V29.4515C22.0136 29.3336 21.5706 29.2731 21.1255 29.2718C20.4837 29.2731 19.8479 29.3949 19.2512 29.6311H16.4548V32.3377C16.1395 33.0656 15.9986 33.8571 16.0435 34.6491C16.0884 35.4411 16.3178 36.2116 16.7133 36.8992C17.1089 37.5868 17.6597 38.1724 18.3218 38.6093C18.9839 39.0463 19.7389 39.3224 20.5267 39.4156V43.4037H15.856V35.6192H10.4667ZM25.4369 31.6611C25.085 31.1029 24.6298 30.6172 24.0956 30.2299H25.4369V31.6611ZM21.7243 38.206V37.1222L21.7662 37.1641L24.1615 34.7689L23.3411 33.9006L21.7243 35.5114V33.224H20.5267V38.206C19.6085 38.0656 18.7711 37.6003 18.1667 36.8949C17.5624 36.1895 17.2312 35.2906 17.2332 34.3617C17.2348 34.1813 17.2488 34.0012 17.2752 33.8228C17.3029 33.5963 17.3469 33.3722 17.4069 33.1521C17.6217 32.4942 18.008 31.9055 18.526 31.4467C19.0441 30.9878 19.6751 30.6753 20.3541 30.5415C21.033 30.4076 21.7354 30.4572 22.3888 30.6851C23.0423 30.9131 23.6231 31.3111 24.0715 31.8382C24.52 32.3653 24.8197 33.0024 24.94 33.6839C25.0602 34.3655 24.9966 35.0667 24.7556 35.7155C24.5147 36.3642 24.1051 36.937 23.5691 37.3747C23.0331 37.8125 22.3901 38.0995 21.7063 38.206H21.7243ZM21.7243 43.4037V39.4156C21.9671 39.3862 22.2074 39.3381 22.4429 39.2719V43.4037H21.7243ZM30.8262 43.4037H29.0298V37.4156H30.8262V43.4037ZM27.8322 36.218V43.4037H23.6405V38.7869C24.4232 38.3435 25.074 37.7001 25.5265 36.9226C25.9789 36.145 26.2166 35.2613 26.2154 34.3617V34.4216H26.6345V29.0323H23.6405V27.2359H26.6345V21.8466H23.6405V20.0502H41.006V29.5473C40.3475 29.2488 39.6331 29.0937 38.9101 29.0922C38.8083 29.0922 38.7125 29.0922 38.6107 29.0922V29.0323H34.4191V31.7868C34.0238 32.5232 33.818 33.3463 33.8202 34.1821C33.8212 34.8826 33.9659 35.5756 34.2454 36.218H27.8322ZM33.2214 43.4037H32.0238V37.4156H33.2214V43.4037ZM34.4191 36.5773C34.8079 37.2973 35.3648 37.9128 36.0424 38.3715C36.72 38.8302 37.4984 39.1185 38.3113 39.212V43.4037H34.4191V36.5773ZM41.006 43.4037H39.5089V39.212C40.026 39.1475 40.5306 39.0063 41.006 38.7929V43.4037Z" fill="#3E3E40"/>
<path d="M10.4667 33.8228H14.6584V29.6311H10.4667V33.8228ZM11.6643 30.8287H13.4607V32.6252H11.6643V30.8287Z" fill="#3E3E40"/>
<path d="M32.6226 29.0323H28.431V34.4216H32.6226V29.0323ZM31.425 33.224H29.6286V30.2299H31.425V33.224Z" fill="#3E3E40"/>
</g>
</g>
</svg>
