<svg width="44" height="45" viewBox="0 0 44 45" fill="none" xmlns="http://www.w3.org/2000/svg">
<g id="icon">
<g id="Vector">
<path d="M39.5323 29.3188L41.1569 30.9434L44 28.1003L38.2462 22.3465C39.4212 21.8027 40.4156 20.9334 41.1115 19.8415C41.8073 18.7497 42.1755 17.4812 42.1723 16.1865C42.1713 14.9696 41.8443 13.7753 41.2252 12.7277C40.6062 11.68 39.7177 10.8174 38.6523 10.2296V9.89111C38.6517 8.71178 38.2891 7.56106 37.6136 6.59439C36.938 5.62772 35.9821 4.89167 34.8748 4.48568C33.7676 4.07969 32.5624 4.02332 31.4221 4.32418C30.2818 4.62504 29.2613 5.26864 28.4985 6.16804C28.2112 6.08997 27.916 6.04456 27.6185 6.03265C26.898 6.03458 26.1938 6.24704 25.5924 6.64392C24.9911 7.0408 24.5189 7.60478 24.2338 8.2665L17.1938 1.29419L0 18.488L2.84308 21.3311L4.33231 19.8419V40.1496H0.270769V44.2111H42.24V40.1496H39.5323V29.3188ZM27.6185 7.45419C27.9231 7.45677 28.2235 7.52609 28.4985 7.65727L28.9723 7.86034L29.3108 7.45419C29.7164 6.87712 30.253 6.40446 30.8766 6.07498C31.5003 5.7455 32.1932 5.5686 32.8985 5.55881C33.4765 5.55791 34.0491 5.67111 34.5833 5.89192C35.1176 6.11272 35.603 6.43679 36.0117 6.84555C36.4205 7.2543 36.7445 7.73971 36.9654 8.27394C37.1862 8.80818 37.2994 9.38074 37.2985 9.95881C37.3095 10.1642 37.2866 10.37 37.2308 10.568L37.1631 11.0419L37.6369 11.245C38.578 11.6864 39.3757 12.3841 39.9384 13.2581C40.5011 14.1322 40.8062 15.1471 40.8185 16.1865C40.8272 17.3018 40.4856 18.3917 39.8419 19.3025C39.1983 20.2134 38.285 20.8992 37.2308 21.2634L25.3169 9.34958C25.4183 8.81432 25.7041 8.33154 26.1246 7.98524C26.5451 7.63893 27.0737 7.45101 27.6185 7.45419ZM2.84308 19.5034L1.89538 18.488L17.1938 3.18957L42.1046 28.1003L41.1569 29.048L17.1938 5.08496L2.84308 19.5034ZM30.0554 28.6419V19.8419L38.1785 27.965V40.1496H36.1477V28.6419H30.0554ZM30.0554 36.765V35.4111H34.7938V36.765H30.0554ZM34.7938 38.1188V40.1496H30.0554V38.1188H34.7938ZM30.0554 34.0573V32.7034H34.7938V34.0573H30.0554ZM30.0554 31.3496V29.9957H34.7938V31.3496H30.0554ZM8.73231 29.3188V40.1496H5.68615V18.5557L17.1938 7.04804L28.7015 18.5557V40.2173H16.1785V29.3188H8.73231ZM14.8246 30.6727V40.1496H10.0862V30.6727H14.8246ZM40.8862 41.5034V42.8573H1.62462V41.5034H40.8862Z" fill="#3E3E40"/>
<path d="M27.0092 29.3188H19.5631V37.4419H27.0092V29.3188ZM22.6092 36.088H20.9169V30.6727H22.6092V36.088ZM25.6554 36.088H23.9631V30.6727H25.6554V36.088Z" fill="#3E3E40"/>
<path d="M27.0092 17.8111H19.5631V25.9342H27.0092V17.8111ZM22.6092 24.5803H20.9169V19.165H22.6092V24.5803ZM25.6554 24.5803H23.9631V19.165H25.6554V24.5803Z" fill="#3E3E40"/>
<path d="M16.1785 27.965C16.1785 27.2468 15.8932 26.5581 15.3854 26.0503C14.8776 25.5425 14.1889 25.2573 13.4708 25.2573H11.44C10.7219 25.2573 10.0332 25.5425 9.52537 26.0503C9.01758 26.5581 8.73231 27.2468 8.73231 27.965V28.6419H16.1785V27.965ZM10.2892 27.288C10.403 27.0826 10.5698 26.9115 10.7722 26.7924C10.9746 26.6734 11.2052 26.6108 11.44 26.6111H13.4708C13.7056 26.6108 13.9362 26.6734 14.1386 26.7924C14.341 26.9115 14.5078 27.0826 14.6215 27.288H10.2892Z" fill="#3E3E40"/>
<path d="M16.1785 17.8111H8.73231V22.5496H16.1785V17.8111ZM11.7785 21.1957H10.0862V19.165H11.7785V21.1957ZM14.8246 21.1957H13.1323V19.165H14.8246V21.1957Z" fill="#3E3E40"/>
<path d="M14.4862 34.7342H13.1323V36.088H14.4862V34.7342Z" fill="#3E3E40"/>
</g>
</g>
</svg>
