<svg width="20" height="20" viewBox="0 0 20 20" fill="none" xmlns="http://www.w3.org/2000/svg">
<g id="people">
<path id="Path 7 (Stroke)" d="M18.75 17.5C18.75 17.5 20 17.5 20 16.25C20 15 18.75 11.25 13.75 11.25C8.75 11.25 7.5 15 7.5 16.25C7.5 17.5 8.75 17.5 8.75 17.5H18.75ZM8.77793 16.25C8.7736 16.2495 8.76754 16.2487 8.76019 16.2475C8.75672 16.2469 8.75333 16.2463 8.75001 16.2456C8.75182 15.9156 8.95859 14.9586 9.69907 14.0947C10.3917 13.2867 11.6034 12.5 13.75 12.5C15.8966 12.5 17.1083 13.2867 17.8009 14.0947C18.5414 14.9586 18.7482 15.9156 18.75 16.2456C18.7467 16.2463 18.7433 16.2469 18.7398 16.2475C18.7325 16.2487 18.7264 16.2495 18.7221 16.25H8.77793Z" fill="#FF0000"/>
<path id="Oval (Stroke)" d="M13.75 8.75C15.1307 8.75 16.25 7.63071 16.25 6.25C16.25 4.86929 15.1307 3.75 13.75 3.75C12.3693 3.75 11.25 4.86929 11.25 6.25C11.25 7.63071 12.3693 8.75 13.75 8.75ZM17.5 6.25C17.5 8.32107 15.8211 10 13.75 10C11.6789 10 10 8.32107 10 6.25C10 4.17893 11.6789 2.5 13.75 2.5C15.8211 2.5 17.5 4.17893 17.5 6.25Z" fill="#FF0000"/>
<path id="Path (Stroke)" d="M8.66991 11.6C8.21017 11.4529 7.69942 11.346 7.13285 11.2913C6.85244 11.2643 6.55835 11.25 6.25 11.25C1.25 11.25 0 15 0 16.25C0 17.0833 0.416667 17.5 1.25 17.5H6.52045C6.34445 17.1449 6.25 16.7239 6.25 16.25C6.25 14.9871 6.72156 13.6975 7.61227 12.6202C7.91659 12.2522 8.26983 11.9089 8.66991 11.6ZM6.15005 12.5006C5.40319 13.642 5 14.9434 5 16.25H1.25C1.25 15.9241 1.45531 14.9625 2.19907 14.0947C2.88086 13.2993 4.06562 12.5246 6.15005 12.5006Z" fill="#FF0000"/>
<path id="Oval (Stroke)_2" d="M1.875 6.875C1.875 4.80393 3.55393 3.125 5.625 3.125C7.69607 3.125 9.375 4.80393 9.375 6.875C9.375 8.94607 7.69607 10.625 5.625 10.625C3.55393 10.625 1.875 8.94607 1.875 6.875ZM5.625 4.375C4.24429 4.375 3.125 5.49429 3.125 6.875C3.125 8.25571 4.24429 9.375 5.625 9.375C7.00571 9.375 8.125 8.25571 8.125 6.875C8.125 5.49429 7.00571 4.375 5.625 4.375Z" fill="#FF0000"/>
</g>
</svg>
