<svg width="20" height="20" viewBox="0 0 20 20" fill="none" xmlns="http://www.w3.org/2000/svg">
<g id="mortarboard">
<g id="Union">
<path d="M10.2643 2.55864C10.0968 2.48045 9.90323 2.48045 9.7357 2.55864L0.360698 6.93364C0.134892 7.03901 -0.0067438 7.26845 0.000247493 7.51754C0.00723874 7.76662 0.161521 7.98775 0.392882 8.0803L9.76788 11.8303C9.91689 11.8899 10.0831 11.8899 10.2321 11.8303L17.5 8.92315V16.25C16.8096 16.25 16.25 16.8096 16.25 17.5V20H20V17.5C20 16.8096 19.4404 16.25 18.75 16.25V8.42315L19.6071 8.0803C19.8385 7.98775 19.9928 7.76662 19.9998 7.51754C20.0067 7.26845 19.8651 7.03901 19.6393 6.93364L10.2643 2.55864ZM10 10.5769L2.19752 7.45586L10 3.81471L17.8025 7.45586L10 10.5769Z" fill="#FF0000"/>
<path d="M5.21945 11.2898C5.05686 11.2288 4.87623 11.2382 4.72086 11.3158C4.56549 11.3934 4.4494 11.5321 4.4004 11.6986L3.7754 13.8236C3.68444 14.1329 3.84359 14.4606 4.14288 14.5803L9.76788 16.8303C9.91689 16.8899 10.0831 16.8899 10.2321 16.8303L15.8571 14.5803C16.1564 14.4606 16.3156 14.1329 16.2246 13.8236L15.5996 11.6986C15.5506 11.5321 15.4345 11.3934 15.2791 11.3158C15.1238 11.2382 14.9431 11.2288 14.7806 11.2898L10 13.0825L5.21945 11.2898ZM5.13504 13.6309L5.40994 12.6962L9.78055 14.3352C9.92204 14.3883 10.078 14.3883 10.2195 14.3352L14.5901 12.6962L14.865 13.6309L10 15.5768L5.13504 13.6309Z" fill="#FF0000"/>
</g>
</g>
</svg>
