<svg width="20" height="18" viewBox="0 0 20 18" fill="none" xmlns="http://www.w3.org/2000/svg">
<g id="Group 255">
<path id="v2 (Stroke)" fill-rule="evenodd" clip-rule="evenodd" d="M14.375 5.5C14.7202 5.5 15 5.77982 15 6.125V6.75H16.2742C16.8438 6.75 17.3825 7.00892 17.7383 7.4537L19.5891 9.76717C19.8551 10.0996 20 10.5127 20 10.9385V13.625C20 14.6605 19.1605 15.5 18.125 15.5H17.5C17.5 16.8807 16.3807 18 15 18C13.6193 18 12.5 16.8807 12.5 15.5H6.25C6.25 16.8807 5.13071 18 3.75 18C2.36929 18 1.25 16.8807 1.25 15.5C0.559643 15.5 0 14.9404 0 14.25V13H13.75V6.125C13.75 5.77982 14.0298 5.5 14.375 5.5ZM3.75 14.25C3.05964 14.25 2.5 14.8096 2.5 15.5C2.5 16.1904 3.05964 16.75 3.75 16.75C4.44036 16.75 5 16.1904 5 15.5C5 14.8096 4.44036 14.25 3.75 14.25ZM15 14.25C14.3096 14.25 13.75 14.8096 13.75 15.5C13.75 16.1904 14.3096 16.75 15 16.75C15.6904 16.75 16.25 16.1904 16.25 15.5C16.25 14.8096 15.6904 14.25 15 14.25ZM17.1655 14.25C16.7333 13.5027 15.9254 13 15 13V8H16.2742C16.4641 8 16.6437 8.08631 16.7623 8.23457L18.613 10.548C18.7017 10.6589 18.75 10.7966 18.75 10.9385V13.625C18.75 13.9702 18.4702 14.25 18.125 14.25H17.1655Z" fill="#FF0000"/>
<path id="Rectangle 436 (Stroke)" fill-rule="evenodd" clip-rule="evenodd" d="M1.25 8C1.25 7.30964 1.80964 6.75 2.5 6.75H11.25C11.9404 6.75 12.5 7.30964 12.5 8V13C12.5 13.6904 11.9404 14.25 11.25 14.25H2.5C1.80964 14.25 1.25 13.6904 1.25 13V8ZM2.5 8V13H11.25V8H2.5Z" fill="#FF0000"/>
<path id="Rectangle 438 (Stroke)" fill-rule="evenodd" clip-rule="evenodd" d="M1.25 1.75C1.25 1.05964 1.80964 0.5 2.5 0.5H11.25C11.9404 0.5 12.5 1.05964 12.5 1.75V6.75C12.5 7.44036 11.9404 8 11.25 8H2.5C1.80964 8 1.25 7.44036 1.25 6.75V1.75ZM2.5 1.75V6.75H11.25V1.75H2.5Z" fill="#FF0000"/>
</g>
</svg>
