<svg width="19" height="20" viewBox="0 0 19 20" fill="none" xmlns="http://www.w3.org/2000/svg">
<g id="calculator">
<path id="Rectangle 440 (Stroke)" fill-rule="evenodd" clip-rule="evenodd" d="M0.25 1.25C0.25 0.559644 0.809644 0 1.5 0H17.75C18.4404 0 19 0.559644 19 1.25V18.75C19 19.4404 18.4404 20 17.75 20H1.5C0.809644 20 0.25 19.4404 0.25 18.75V1.25ZM1.5 1.25V18.75H17.75V1.25H1.5Z" fill="#FF0000"/>
<path id="Rectangle 441 (Stroke)" fill-rule="evenodd" clip-rule="evenodd" d="M2.75 15C2.75 14.3096 3.30964 13.75 4 13.75H5.25C5.94036 13.75 6.5 14.3096 6.5 15V16.25C6.5 16.9404 5.94036 17.5 5.25 17.5H4C3.30964 17.5 2.75 16.9404 2.75 16.25V15ZM5.25 15H4V16.25H5.25V15Z" fill="#FF0000"/>
<path id="Rectangle 444 (Stroke)" fill-rule="evenodd" clip-rule="evenodd" d="M2.75 10C2.75 9.30964 3.30964 8.75 4 8.75H5.25C5.94036 8.75 6.5 9.30964 6.5 10V11.25C6.5 11.9404 5.94036 12.5 5.25 12.5H4C3.30964 12.5 2.75 11.9404 2.75 11.25V10ZM5.25 10H4V11.25H5.25V10Z" fill="#FF0000"/>
<path id="Rectangle 446 (Stroke)" fill-rule="evenodd" clip-rule="evenodd" d="M2.75 3.75C2.75 3.05964 3.30964 2.5 4 2.5H15.25C15.9404 2.5 16.5 3.05964 16.5 3.75V6.25C16.5 6.94036 15.9404 7.5 15.25 7.5H4C3.30964 7.5 2.75 6.94036 2.75 6.25V3.75ZM4 3.75V6.25H15.25V3.75H4Z" fill="#FF0000"/>
<path id="Rectangle 442 (Stroke)" fill-rule="evenodd" clip-rule="evenodd" d="M7.75 15C7.75 14.3096 8.30964 13.75 9 13.75H10.25C10.9404 13.75 11.5 14.3096 11.5 15V16.25C11.5 16.9404 10.9404 17.5 10.25 17.5H9C8.30964 17.5 7.75 16.9404 7.75 16.25V15ZM10.25 15H9V16.25H10.25V15Z" fill="#FF0000"/>
<path id="Rectangle 445 (Stroke)" fill-rule="evenodd" clip-rule="evenodd" d="M7.75 10C7.75 9.30964 8.30964 8.75 9 8.75H10.25C10.9404 8.75 11.5 9.30964 11.5 10V11.25C11.5 11.9404 10.9404 12.5 10.25 12.5H9C8.30964 12.5 7.75 11.9404 7.75 11.25V10ZM10.25 10H9V11.25H10.25V10Z" fill="#FF0000"/>
<path id="Rectangle 443 (Stroke)" fill-rule="evenodd" clip-rule="evenodd" d="M12.75 10C12.75 9.30964 13.3096 8.75 14 8.75H15.25C15.9404 8.75 16.5 9.30964 16.5 10V16.25C16.5 16.9404 15.9404 17.5 15.25 17.5H14C13.3096 17.5 12.75 16.9404 12.75 16.25V10ZM15.25 10H14V16.25H15.25V10Z" fill="#FF0000"/>
</g>
</svg>
