<svg width="20" height="20" viewBox="0 0 20 20" fill="none" xmlns="http://www.w3.org/2000/svg">
<g id="star">
<path id="Subtract" d="M3.58266 18.5634C3.48541 19.1178 4.03237 19.5517 4.51542 19.3034L10.002 16.4835L15.4885 19.3034C15.9715 19.5517 16.5185 19.1178 16.4212 18.5634L15.3841 12.6516L19.787 8.45578C20.1985 8.06366 19.9855 7.34671 19.4342 7.2684L13.3111 6.39856L10.581 0.990381C10.3351 0.503206 9.66885 0.503206 9.42291 0.990381L6.69276 6.39856L0.569668 7.2684C0.0184315 7.34671 -0.194569 8.06366 0.216907 8.45578L4.61982 12.6516L3.58266 18.5634ZM9.71342 15.1033L5.10623 17.4712L5.97405 12.5246C6.01495 12.2915 5.93803 12.0527 5.77061 11.8931L2.13706 8.4305L7.20245 7.71092C7.41184 7.68117 7.59468 7.54743 7.69346 7.35176L10.002 2.77884L12.3104 7.35176C12.4092 7.54743 12.5921 7.68117 12.8015 7.71092L17.8668 8.4305L14.2333 11.8931C14.0659 12.0527 13.989 12.2915 14.0299 12.5246L14.8977 17.4712L10.2905 15.1033C10.1085 15.0097 9.89541 15.0097 9.71342 15.1033Z" fill="#FF0000"/>
</g>
</svg>
