<svg width="20" height="18" viewBox="0 0 20 18" fill="none" xmlns="http://www.w3.org/2000/svg">
<g id="Group 257">
<path id="Rectangle 438 (Stroke)" fill-rule="evenodd" clip-rule="evenodd" d="M0 1.5C0 0.809644 0.559644 0.25 1.25 0.25H12.5C13.1904 0.25 13.75 0.809644 13.75 1.5V5.25C13.75 5.94036 13.1904 6.5 12.5 6.5H7.5V9C7.5 9.69036 6.94036 10.25 6.25 10.25H5.51777L3.38388 12.3839C3.02639 12.7414 2.48874 12.8483 2.02165 12.6549C1.55455 12.4614 1.25 12.0056 1.25 11.5V10.25C0.559644 10.25 0 9.69036 0 9V1.5ZM1.25 9H2.5V11.5L5 9H6.25L7.5 6.5L12.5 5.25V1.5H1.25V9Z" fill="#FF0000"/>
<path id="Rectangle 439 (Stroke)" fill-rule="evenodd" clip-rule="evenodd" d="M6.25 6.5C6.25 5.80964 6.80964 5.25 7.5 5.25H18.75C19.4404 5.25 20 5.80964 20 6.5V14C20 14.6904 19.4404 15.25 18.75 15.25V16.5C18.75 17.0056 18.4454 17.4614 17.9784 17.6548C17.5113 17.8483 16.9736 17.7414 16.6161 17.3839L14.4822 15.25H7.5C6.80964 15.25 6.25 14.6904 6.25 14V6.5ZM15 14L17.5 16.5V14H18.75V6.5H7.5V14H15Z" fill="#FF0000"/>
<path id="Ellipse 419" d="M11.25 10.875C11.25 11.2202 10.9702 11.5 10.625 11.5C10.2798 11.5 10 11.2202 10 10.875C10 10.5298 10.2798 10.25 10.625 10.25C10.9702 10.25 11.25 10.5298 11.25 10.875Z" fill="#FF0000"/>
<path id="Ellipse 420" d="M13.75 10.875C13.75 11.2202 13.4702 11.5 13.125 11.5C12.7798 11.5 12.5 11.2202 12.5 10.875C12.5 10.5298 12.7798 10.25 13.125 10.25C13.4702 10.25 13.75 10.5298 13.75 10.875Z" fill="#FF0000"/>
<path id="Ellipse 421" d="M16.25 10.875C16.25 11.2202 15.9702 11.5 15.625 11.5C15.2798 11.5 15 11.2202 15 10.875C15 10.5298 15.2798 10.25 15.625 10.25C15.9702 10.25 16.25 10.5298 16.25 10.875Z" fill="#FF0000"/>
</g>
</svg>
