<svg width="40" height="40" viewBox="0 0 40 40" fill="none" xmlns="http://www.w3.org/2000/svg"><rect width="40" height="40" rx="20" fill="#F3DB76"/><path d="M24.6291 16.9953L23.7832 16.1674C23.6691 16.0558 23.5265 16 23.3649 16C23.2034 16 23.0608 16.0558 22.9467 16.1674L18.8786 20.1488L17.0632 18.3628C16.9491 18.2512 16.8065 18.1953 16.6449 18.1953C16.4834 18.1953 16.3408 18.2512 16.2267 18.3628L15.3808 19.1907C15.2572 19.3023 15.2002 19.4419 15.2002 19.6C15.2002 19.7581 15.2572 19.8977 15.3713 20.0093L17.6145 22.2047L18.4604 23.0326C18.5745 23.1442 18.717 23.2 18.8786 23.2C19.0402 23.2 19.1828 23.1442 19.2968 23.0326L20.1428 22.2047L24.6291 17.814C24.7432 17.7023 24.8002 17.5628 24.8002 17.4047C24.8002 17.2465 24.7432 17.107 24.6291 16.9953Z" fill="#313131"/></svg>