<svg width="11" height="14" viewBox="0 0 11 14" fill="none" xmlns="http://www.w3.org/2000/svg"><path d="M8.33471 6.12572V3.5C8.33471 1.56966 6.83979 0 5.00137 0C3.16296 0 1.66804 1.56966 1.66804 3.5V6.12572C0.747458 6.12572 0 6.90767 0 7.87428V12.2486C0 13.2152 0.747458 14 1.66804 14H8.33471C9.25529 14 10.0027 13.2152 10.0027 12.2486V7.87428C10 6.90767 9.25254 6.12572 8.33471 6.12572ZM5.41632 10.3673V11.8129C5.41632 12.0552 5.22946 12.2514 4.99863 12.2514C4.76779 12.2514 4.58093 12.0552 4.58093 11.8129V10.3673C4.33636 10.2143 4.16323 9.946 4.16323 9.62572C4.16323 9.14097 4.53696 8.75144 4.99588 8.75144C5.4548 8.75144 5.82853 9.14386 5.82853 9.62572C5.83402 9.946 5.6609 10.2143 5.41632 10.3673ZM6.66667 6.12572H3.33333V3.5C3.33333 2.53339 4.08079 1.74856 5.00137 1.74856C5.91921 1.74856 6.66667 2.53339 6.66667 3.5V6.12572Z" fill="#fff"/></svg>