<svg width="24" height="24" viewBox="0 0 24 24" fill="none" xmlns="http://www.w3.org/2000/svg">
<path fill-rule="evenodd" clip-rule="evenodd" d="M24 24H0V0H24V24ZM23.04 0.96H12.48V11.52H23.04V0.96ZM23.04 12.48H12.48V23.04H23.04V12.48ZM11.52 0.96H0.96V11.52H11.52V0.96ZM11.52 12.48H0.96V23.04H11.52V12.48ZM5.75989 2.87989H6.71989V5.75989H9.59989V6.71989H6.71989V9.59989H5.75989V6.71989H2.87989V5.75989H5.75989V2.87989ZM21.1197 5.75992H14.3997V6.71992H21.1197V5.75992ZM14.3997 16.3199H21.1197V17.2799H14.3997V16.3199ZM21.1197 18.2401H14.3997V19.2001H21.1197V18.2401ZM6.23962 17.0814L8.27578 15.0452L8.9545 15.7239L6.91834 17.7601L8.9545 19.7962L8.27578 20.4749L6.23962 18.4387L4.20346 20.4749L3.52474 19.7962L5.5609 17.7601L3.52474 15.7239L4.20346 15.0452L6.23962 17.0814Z" fill="#0069B4"/>
</svg>
