<svg xmlns="http://www.w3.org/2000/svg" xmlns:xlink="http://www.w3.org/1999/xlink" x="0px" y="0px" width="166.67px" height="50px" viewBox="0 0 166.67 50" xml:space="preserve"><g id="Logo">	<rect x="-4003.46" y="-125" width="1000" height="300"></rect>	<rect x="-4003.46" y="240.21" width="300" height="300"></rect>	<rect x="-4003.46" y="-1631.19" width="1000" height="1000"></rect>	<rect x="-4003.46" y="-587.08" width="1000" height="400"></rect>	<g>		<g>			<path d="M-4268.87-1229.14h-60.23l18.81-47.91h41.37v-30.49h-320.1v30.49h43.55l28.31,47.91h-71.86v32.66h258.45l20.27,32.66    h-278.72v54.44c0,0-11.6-1.83-13.76-36.11c-2.47-39.18-15.64-70.59-53.74-70.59s-40.28,19.6-40.28,19.6h-18.51l-2.18-258.5    l82.75-28.93l242.79,15.47v-53.18l-360.38-28.71l-263.48,142.66v14.02l263.48-119.22v316.39l-263.48,32.66v54.44h104.52    c0-28.31,7.02-58.44,27.52-58.44s26.92,17.07,26.92,58.44c0,41.37-19.73,56.62-19.73,56.62s26.32,0,44.59,0    c11.51,0,16.51-47.91,16.51-47.91h124.12c0-37.02,6.53-84.92,34.84-84.92s39.2,39.2,39.2,71.86s-18.69,60.97-18.69,60.97    s14.33,0,47,0c15.24,0,21.78-56.62,21.78-56.62h182.62c-0.07,1.24-0.11,2.49-0.11,3.76c0,29.19,18.22,52.85,40.69,52.85h17.61    c22.47,0,40.69-23.66,40.69-52.85c0-1.27-0.05-2.52-0.11-3.76h16.93L-4268.87-1229.14z"></path>			<polygon points="-4625.58,-1458.13 -4603.93,-1345.64 -4344.05,-1341.28 -4367.84,-1441.45    "></polygon>			<polygon points="-4648.9,-1454.65 -4618.22,-1277.05 -4696.8,-1277.05 -4696.8,-1436.99    "></polygon>			<polygon points="-4343.43,-1331.55 -4268.92,-1314.17 -4603.93,-1336.5    "></polygon>			<g>				<rect x="-5015.81" y="-1056.03" width="773.02" height="12.96"></rect>			</g>		</g>		<g>			<path d="M-5064.83-727.58c-2.96,4.07-6.65,7.67-11.09,10.81c-4.43,3.14-9.61,4.71-15.52,4.71h-16.63    c-14.05,0-25.87-4.06-35.48-12.19c-9.61-8.12-14.41-17.92-14.41-29.38v-755.12c0-11.45,4.8-21.25,14.41-29.38    c9.61-8.12,21.43-12.19,35.48-12.19h22.17c14.04,0,25.86,4.07,35.48,12.19c9.6,8.13,14.41,17.93,14.41,29.38v115.11h-49.89    v-104.02c0-2.95-1.11-5.54-3.33-7.76c-2.22-2.22-4.81-3.33-7.76-3.33c-2.96,0-5.54,1.11-7.76,3.33    c-2.22,2.22-3.33,4.81-3.33,7.76v732.95c0,2.96,1.2,5.54,3.6,7.76c2.4,2.22,4.89,3.33,7.48,3.33c2.95,0,5.54-1.01,7.76-3.05    c2.22-2.03,3.33-4.71,3.33-8.04v-349.21l-11.09-11.09v-38.8h60.97v448.98h-17.74L-5064.83-727.58z"></path>			<path d="M-4971.7-714.83h-44.35v-310.42h43.24l1.11,11.64c4.8-5.91,9.42-9.79,13.86-11.64c4.43-1.84,9.61-2.77,15.52-2.77    c9.98,0,17.92,3.24,23.84,9.7c5.91,6.47,8.87,14.33,8.87,23.56v72.06h-44.35v-63.75c0-2.22-0.83-4.16-2.49-5.82    c-1.66-1.66-3.79-2.49-6.38-2.49c-2.59,0-4.71,0.83-6.37,2.49c-1.66,1.66-2.49,3.6-2.49,5.82V-714.83z"></path>			<path d="M-4834.24-726.47c-5.92,5.92-11.18,9.8-15.8,11.64c-4.62,1.84-9.15,2.77-13.58,2.77c-9.98,0-17.93-3.23-23.84-9.7    c-5.92-6.46-8.87-14.32-8.87-23.56v-279.93h44.35v271.62c0,2.22,0.83,4.16,2.49,5.82c1.66,1.66,3.78,2.49,6.37,2.49    c2.58,0,4.71-0.83,6.38-2.49c1.66-1.66,2.49-3.6,2.49-5.82v-271.62h44.35v310.42h-43.24L-4834.24-726.47z"></path>			<path d="M-4695.11-748.09v33.26h-83.15l34.37-277.16h-34.37v-33.26h83.15l-33.81,277.16H-4695.11z"></path>			<path d="M-4683.47-994.76c0-9.23,4.34-17.09,13.03-23.56c8.68-6.46,19.12-9.7,31.32-9.7h17.74c12.2,0,22.63,3.24,31.32,9.7    c8.68,6.47,13.03,14.33,13.03,23.56v249.44c0,9.24-4.35,17.1-13.03,23.56c-8.69,6.47-19.12,9.7-31.32,9.7h-17.74    c-12.19,0-22.64-3.23-31.32-9.7c-8.69-6.46-13.03-14.32-13.03-23.56V-994.76z M-4621.39-986.45c0-2.22-0.83-4.16-2.49-5.82    c-1.66-1.66-3.79-2.49-6.38-2.49c-2.59,0-4.71,0.83-6.37,2.49c-1.66,1.66-2.49,3.6-2.49,5.82v232.81c0,2.22,0.83,4.16,2.49,5.82    c1.66,1.66,3.78,2.49,6.37,2.49c2.58,0,4.71-0.83,6.38-2.49c1.66-1.66,2.49-3.6,2.49-5.82V-986.45z"></path>			<path d="M-4523.83-1025.25l12.19,199.55h2.22l12.19-199.55h44.35l-31.04,310.42h-53.21l-31.04-310.42H-4523.83z"></path>			<path d="M-4444.01-994.76c0-9.23,4.34-17.09,13.03-23.56c8.68-6.46,19.12-9.7,31.32-9.7h17.74c12.2,0,22.63,3.24,31.32,9.7    c8.68,6.47,13.03,14.33,13.03,23.56v249.44c0,9.24-4.35,17.1-13.03,23.56c-8.69,6.47-19.12,9.7-31.32,9.7h-17.74    c-12.19,0-22.64-3.23-31.32-9.7c-8.69-6.46-13.03-14.32-13.03-23.56V-994.76z M-4381.93-986.45c0-2.22-0.83-4.16-2.49-5.82    c-1.66-1.66-3.79-2.49-6.38-2.49c-2.59,0-4.71,0.83-6.37,2.49c-1.66,1.66-2.49,3.6-2.49,5.82v232.81c0,2.22,0.83,4.16,2.49,5.82    c1.66,1.66,3.78,2.49,6.37,2.49c2.58,0,4.71-0.83,6.38-2.49c1.66-1.66,2.49-3.6,2.49-5.82V-986.45z"></path>			<path d="M-4242.79-748.09v33.26h-83.15l34.37-277.16h-34.37v-33.26h83.15l-33.81,277.16H-4242.79z"></path>		</g>	</g>	<g>		<path d="M-5069.55-242.77c-3,4.12-6.74,7.77-11.23,10.95c-4.49,3.18-9.74,4.77-15.72,4.77h-16.84c-14.23,0-26.21-4.11-35.94-12.35   c-9.74-8.23-14.6-18.15-14.6-29.76V-505c0-11.6,4.86-21.52,14.6-29.76c9.73-8.23,21.71-12.35,35.94-12.35h22.46   c14.22,0,26.2,4.12,35.94,12.35c9.73,8.24,14.6,18.16,14.6,29.76v89.84h-50.54v-78.61c0-2.99-1.12-5.62-3.37-7.86   c-2.25-2.25-4.87-3.37-7.86-3.37c-3,0-5.61,1.12-7.86,3.37c-2.25,2.25-3.37,4.87-3.37,7.86v213.37c0,3,1.21,5.61,3.65,7.86   c2.43,2.25,4.96,3.37,7.58,3.37c2.99,0,5.61-1.03,7.86-3.09c2.25-2.05,3.37-4.77,3.37-8.14v-54.75l-11.23-11.23v-39.3h61.77   v155.82h-17.97L-5069.55-242.77z"></path>		<path d="M-4975.22-229.86h-44.92V-544.3h43.8l1.12,11.79c4.86-5.98,9.55-9.91,14.04-11.79c4.49-1.87,9.73-2.81,15.72-2.81   c10.11,0,18.15,3.28,24.15,9.83c5.98,6.55,8.98,14.51,8.98,23.86v73h-44.92V-505c0-2.25-0.84-4.21-2.53-5.89   c-1.69-1.68-3.84-2.53-6.46-2.53c-2.62,0-4.77,0.84-6.46,2.53c-1.68,1.68-2.53,3.65-2.53,5.89V-229.86z"></path>		<path d="M-4835.98-241.65c-5.99,5.99-11.33,9.92-16,11.79c-4.68,1.87-9.26,2.81-13.76,2.81c-10.11,0-18.16-3.27-24.15-9.83   c-5.99-6.55-8.98-14.5-8.98-23.86V-544.3h44.92v275.14c0,2.25,0.84,4.21,2.53,5.9s3.83,2.53,6.46,2.53c2.62,0,4.77-0.84,6.46-2.53   c1.69-1.68,2.53-3.65,2.53-5.9V-544.3h44.92v314.44h-43.8L-4835.98-241.65z"></path>		<path d="M-4695.04-263.55v33.69h-84.23l34.81-280.75h-34.81v-33.69h84.23l-34.25,280.75H-4695.04z"></path>		<path d="M-4683.25-513.42c0-9.35,4.4-17.31,13.2-23.86c8.79-6.55,19.37-9.83,31.73-9.83h17.97c12.35,0,22.93,3.28,31.73,9.83   c8.79,6.55,13.2,14.51,13.2,23.86v252.68c0,9.36-4.4,17.32-13.2,23.86c-8.8,6.55-19.37,9.83-31.73,9.83h-17.97   c-12.35,0-22.93-3.27-31.73-9.83c-8.8-6.55-13.2-14.5-13.2-23.86V-513.42z M-4620.36-505c0-2.25-0.84-4.21-2.53-5.89   c-1.69-1.68-3.84-2.53-6.46-2.53c-2.62,0-4.77,0.84-6.46,2.53c-1.68,1.68-2.53,3.65-2.53,5.89v235.83c0,2.25,0.84,4.21,2.53,5.9   c1.69,1.68,3.83,2.53,6.46,2.53c2.62,0,4.77-0.84,6.46-2.53c1.68-1.68,2.53-3.65,2.53-5.9V-505z"></path>		<path d="M-4521.54-544.3l12.35,202.14h2.25l12.35-202.14h44.92l-31.44,314.44h-53.9l-31.44-314.44H-4521.54z"></path>		<path d="M-4440.69-513.42c0-9.35,4.4-17.31,13.2-23.86c8.79-6.55,19.37-9.83,31.73-9.83h17.97c12.35,0,22.93,3.28,31.73,9.83   c8.79,6.55,13.2,14.51,13.2,23.86v252.68c0,9.36-4.41,17.32-13.2,23.86c-8.8,6.55-19.37,9.83-31.73,9.83h-17.97   c-12.35,0-22.93-3.27-31.73-9.83c-8.8-6.55-13.2-14.5-13.2-23.86V-513.42z M-4377.8-505c0-2.25-0.84-4.21-2.53-5.89   c-1.68-1.68-3.84-2.53-6.46-2.53c-2.62,0-4.77,0.84-6.46,2.53c-1.68,1.68-2.53,3.65-2.53,5.89v235.83c0,2.25,0.84,4.21,2.53,5.9   s3.83,2.53,6.46,2.53c2.61,0,4.77-0.84,6.46-2.53s2.53-3.65,2.53-5.9V-505z"></path>		<path d="M-4236.86-263.55v33.69h-84.23l34.81-280.75h-34.81v-33.69h84.23l-34.25,280.75H-4236.86z"></path>	</g>	<g>		<g>			<path d="M-5095.23,130.03c-2.18,3-4.9,5.66-8.17,7.97c-3.27,2.31-7.09,3.47-11.44,3.47h-12.26c-10.36,0-19.07-2.99-26.16-8.99    c-7.09-5.99-10.62-13.21-10.62-21.66V-60.82c0-8.44,3.54-15.66,10.62-21.66c7.08-5.99,15.8-8.99,26.16-8.99h16.35    c10.35,0,19.07,3,26.16,8.99c7.08,6,10.63,13.22,10.63,21.66V4.57h-36.78v-57.22c0-2.18-0.82-4.09-2.45-5.72    c-1.64-1.64-3.54-2.45-5.72-2.45c-2.18,0-4.09,0.82-5.72,2.45c-1.64,1.63-2.45,3.54-2.45,5.72v155.3c0,2.18,0.88,4.09,2.66,5.72    c1.77,1.64,3.61,2.45,5.52,2.45c2.18,0,4.09-0.75,5.72-2.25c1.63-1.49,2.45-3.47,2.45-5.93V62.8l-8.17-8.17V26.02h44.96v113.41    h-13.08L-5095.23,130.03z"></path>			<path d="M-5026.57,139.43h-32.69V-89.43h31.88l0.82,8.58c3.54-4.35,6.95-7.22,10.22-8.58c3.27-1.36,7.08-2.04,11.44-2.04    c7.36,0,13.21,2.39,17.57,7.15c4.35,4.77,6.54,10.56,6.54,17.37v53.13h-32.69v-47c0-1.63-0.61-3.06-1.84-4.29    c-1.23-1.23-2.8-1.84-4.7-1.84c-1.91,0-3.47,0.61-4.7,1.84c-1.23,1.23-1.84,2.66-1.84,4.29V139.43z"></path>			<path d="M-4925.22,130.85c-4.36,4.36-8.24,7.22-11.65,8.58c-3.41,1.36-6.74,2.04-10.01,2.04c-7.36,0-13.22-2.38-17.57-7.15    c-4.36-4.76-6.54-10.56-6.54-17.37V-89.43h32.69v200.26c0,1.64,0.61,3.07,1.84,4.29s2.79,1.84,4.7,1.84c1.9,0,3.47-0.61,4.7-1.84    c1.23-1.23,1.84-2.66,1.84-4.29V-89.43h32.7v228.86h-31.88L-4925.22,130.85z"></path>			<path d="M-4822.64,114.91v24.52h-61.3l25.34-204.34h-25.34v-24.52h61.3l-24.93,204.34H-4822.64z"></path>			<path d="M-4814.06-66.95c0-6.81,3.2-12.6,9.6-17.37c6.4-4.76,14.1-7.15,23.09-7.15h13.08c8.99,0,16.69,2.39,23.09,7.15    c6.4,4.77,9.6,10.56,9.6,17.37v183.91c0,6.81-3.21,12.61-9.6,17.37c-6.4,4.77-14.1,7.15-23.09,7.15h-13.08    c-8.99,0-16.69-2.38-23.09-7.15c-6.4-4.76-9.6-10.56-9.6-17.37V-66.95z M-4768.29-60.82c0-1.63-0.61-3.06-1.84-4.29    c-1.23-1.23-2.8-1.84-4.7-1.84c-1.91,0-3.47,0.61-4.7,1.84c-1.23,1.23-1.84,2.66-1.84,4.29v171.65c0,1.64,0.61,3.07,1.84,4.29    s2.79,1.84,4.7,1.84c1.9,0,3.47-0.61,4.7-1.84c1.23-1.23,1.84-2.66,1.84-4.29V-60.82z"></path>			<path d="M-4696.36-89.43l8.99,147.13h1.64l8.99-147.13h32.69l-22.89,228.86h-39.23l-22.89-228.86H-4696.36z"></path>			<path d="M-4637.52-66.95c0-6.81,3.2-12.6,9.6-17.37c6.4-4.76,14.1-7.15,23.09-7.15h13.08c8.99,0,16.69,2.39,23.09,7.15    c6.4,4.77,9.6,10.56,9.6,17.37v183.91c0,6.81-3.21,12.61-9.6,17.37c-6.4,4.77-14.1,7.15-23.09,7.15h-13.08    c-8.99,0-16.69-2.38-23.09-7.15c-6.4-4.76-9.6-10.56-9.6-17.37V-66.95z M-4591.74-60.82c0-1.63-0.61-3.06-1.84-4.29    c-1.23-1.23-2.8-1.84-4.7-1.84c-1.91,0-3.47,0.61-4.7,1.84c-1.23,1.23-1.84,2.66-1.84,4.29v171.65c0,1.64,0.61,3.07,1.84,4.29    s2.79,1.84,4.7,1.84c1.9,0,3.47-0.61,4.7-1.84c1.23-1.23,1.84-2.66,1.84-4.29V-60.82z"></path>			<path d="M-4489.16,114.91v24.52h-61.3l25.34-204.34h-25.34v-24.52h61.3l-24.93,204.34H-4489.16z"></path>		</g>		<g>			<path d="M-4480.53,114.91h39.48c0-16.85,2.97-38.31,15.86-38.31c12.89,0,17.84,17.84,17.84,32.71s-8.51,27.75-8.51,27.75    s6.52,0,21.39,0c6.94,0,9.91-25.77,9.91-25.77h83.13c-0.03,0.57-0.05,1.14-0.05,1.71c0,13.29,8.29,24.06,18.52,24.06h8.02    c10.23,0,18.52-10.77,18.52-24.06c0-0.58-0.02-1.15-0.05-1.71h7.71l0.02-54.52h-27.42l8.56-21.81h18.83V21.09h-145.71v13.88    h19.82l12.89,21.81h-32.71v14.87h117.65l9.23,14.87h-126.88v24.78c0,0-5.28-0.83-6.26-16.44c-1.12-17.83-7.12-32.13-24.46-32.13    c-17.35,0-18.34,8.92-18.34,8.92h-8.43l-0.99-117.67l37.67-13.17l110.52,7.04v-24.21l-164.05-13.07l-11.73,5.44v15.96l11.73-4.35    V71.64l-11.73,3.2V114.91z"></path>			<polygon points="-4411.11,-47.46 -4401.25,3.74 -4282.95,5.73 -4293.78,-39.87    "></polygon>			<polygon points="-4421.72,-45.88 -4407.76,34.97 -4443.53,34.97 -4443.53,-37.84    "></polygon>			<polygon points="-4282.67,10.16 -4248.75,18.07 -4401.25,7.9    "></polygon>			<g>				<rect x="-4480.53" y="135.02" width="243.68" height="4.08"></rect>			</g>		</g>	</g>	<g>		<path d="M-5200.37,472.74h81.81c0-15.44,2.72-35.1,14.53-35.1s16.35,16.35,16.35,29.97s-7.79,25.43-7.79,25.43s5.98,0,19.6,0   c6.36,0,9.08-23.61,9.08-23.61h76.16c-0.03,0.52-0.05,1.04-0.05,1.57c0,12.17,7.6,22.04,16.97,22.04h7.35   c9.37,0,16.97-9.87,16.97-22.04c0-0.53-0.02-1.05-0.05-1.57h7.06l0.02-49.95h-25.12l7.85-19.98h17.25v-12.71h-133.5v12.71h18.16   l11.81,19.98h-29.97v13.62h107.79l8.46,13.62h-116.24v22.7c0,0-4.84-0.76-5.74-15.06c-1.03-16.34-6.52-29.44-22.41-29.44   c-15.89,0-16.8,8.17-16.8,8.17h-7.72l-0.91-107.81l34.51-12.07l101.26,6.45v-22.18l-150.3-11.97l-56.39,25.28v14.63l56.39-24.28   V433.1l-56.39,12.88V472.74z"></path>		<polygon points="-5091.13,323.97 -5082.1,370.89 -4973.71,372.71 -4983.63,330.93   "></polygon>		<polygon points="-5100.85,325.42 -5088.06,399.5 -5120.83,399.5 -5120.83,332.79   "></polygon>		<polygon points="-4973.45,376.76 -4942.38,384.01 -5082.1,374.7   "></polygon>		<g>			<rect x="-5200.37" y="491.16" width="300" height="3.74"></rect>		</g>	</g>	<g>		<g>			<path fill="#FFFFFF" d="M-3071.95-1229.14h-60.23l18.81-47.91h41.37v-30.49h-320.09v30.49h43.55l28.31,47.91h-71.86v32.66h258.45    l20.27,32.66h-278.72v54.44c0,0-11.6-1.83-13.76-36.11c-2.47-39.18-15.64-70.59-53.74-70.59c-38.11,0-40.28,19.6-40.28,19.6    h-18.51l-2.18-258.5l82.75-28.93l242.79,15.47v-53.18l-360.38-28.71l-263.48,142.66v14.02l263.48-119.22v316.39l-263.48,32.66    v54.44h104.52c0-28.31,7.02-58.44,27.52-58.44c20.5,0,26.92,17.07,26.92,58.44c0,41.37-19.73,56.62-19.73,56.62s26.32,0,44.59,0    c11.51,0,16.51-47.91,16.51-47.91h124.12c0-37.02,6.53-84.92,34.84-84.92c28.31,0,39.2,39.2,39.2,71.86s-18.69,60.97-18.69,60.97    s14.33,0,47,0c15.24,0,21.78-56.62,21.78-56.62h182.62c-0.07,1.24-0.11,2.49-0.11,3.76c0,29.19,18.22,52.85,40.69,52.85h17.61    c22.47,0,40.69-23.66,40.69-52.85c0-1.27-0.05-2.52-0.11-3.76h16.93L-3071.95-1229.14z"></path>			<polygon fill="#FFFFFF" points="-3428.67,-1458.13 -3407.02,-1345.64 -3147.13,-1341.28 -3170.93,-1441.45    "></polygon>			<polygon fill="#FFFFFF" points="-3451.98,-1454.65 -3421.3,-1277.05 -3499.89,-1277.05 -3499.89,-1436.99    "></polygon>			<polygon fill="#FFFFFF" points="-3146.51,-1331.55 -3072,-1314.17 -3407.02,-1336.5    "></polygon>			<g>				<rect x="-3818.89" y="-1056.03" fill="#FFFFFF" width="773.02" height="12.96"></rect>			</g>		</g>		<g>			<path fill="#FFFFFF" d="M-3867.91-727.58c-2.96,4.07-6.65,7.67-11.09,10.81s-9.61,4.71-15.52,4.71h-16.63    c-14.05,0-25.87-4.06-35.48-12.19c-9.61-8.12-14.41-17.92-14.41-29.38v-755.12c0-11.45,4.8-21.25,14.41-29.38    c9.61-8.12,21.43-12.19,35.48-12.19h22.17c14.04,0,25.86,4.07,35.48,12.19c9.6,8.13,14.41,17.93,14.41,29.38v115.11h-49.89    v-104.02c0-2.95-1.11-5.54-3.33-7.76c-2.22-2.22-4.81-3.33-7.76-3.33c-2.96,0-5.54,1.11-7.76,3.33    c-2.22,2.22-3.33,4.81-3.33,7.76v732.95c0,2.96,1.2,5.54,3.6,7.76c2.4,2.22,4.89,3.33,7.48,3.33c2.95,0,5.54-1.01,7.76-3.05    c2.22-2.03,3.33-4.71,3.33-8.04v-349.21l-11.09-11.09v-38.8h60.97v448.98h-17.74L-3867.91-727.58z"></path>			<path fill="#FFFFFF" d="M-3774.79-714.83h-44.35v-310.42h43.24l1.11,11.64c4.8-5.91,9.42-9.79,13.86-11.64    c4.43-1.84,9.61-2.77,15.52-2.77c9.98,0,17.92,3.24,23.84,9.7c5.91,6.47,8.87,14.33,8.87,23.56v72.06h-44.35v-63.75    c0-2.22-0.83-4.16-2.49-5.82c-1.66-1.66-3.79-2.49-6.38-2.49c-2.59,0-4.71,0.83-6.37,2.49c-1.66,1.66-2.49,3.6-2.49,5.82V-714.83    z"></path>			<path fill="#FFFFFF" d="M-3637.32-726.47c-5.92,5.92-11.18,9.8-15.8,11.64c-4.62,1.84-9.15,2.77-13.58,2.77    c-9.98,0-17.93-3.23-23.84-9.7c-5.92-6.46-8.87-14.32-8.87-23.56v-279.93h44.35v271.62c0,2.22,0.83,4.16,2.49,5.82    c1.66,1.66,3.78,2.49,6.37,2.49c2.58,0,4.71-0.83,6.38-2.49c1.66-1.66,2.49-3.6,2.49-5.82v-271.62h44.35v310.42h-43.24    L-3637.32-726.47z"></path>			<path fill="#FFFFFF" d="M-3498.19-748.09v33.26h-83.15l34.37-277.16h-34.37v-33.26h83.15L-3532-748.09H-3498.19z"></path>			<path fill="#FFFFFF" d="M-3486.56-994.76c0-9.23,4.34-17.09,13.03-23.56c8.68-6.46,19.12-9.7,31.32-9.7h17.74    c12.19,0,22.63,3.24,31.32,9.7c8.68,6.47,13.03,14.33,13.03,23.56v249.44c0,9.24-4.35,17.1-13.03,23.56    c-8.69,6.47-19.12,9.7-31.32,9.7h-17.74c-12.2,0-22.64-3.23-31.32-9.7c-8.69-6.46-13.03-14.32-13.03-23.56V-994.76z     M-3424.47-986.45c0-2.22-0.83-4.16-2.49-5.82c-1.66-1.66-3.79-2.49-6.38-2.49c-2.59,0-4.71,0.83-6.37,2.49    c-1.66,1.66-2.49,3.6-2.49,5.82v232.81c0,2.22,0.83,4.16,2.49,5.82c1.66,1.66,3.78,2.49,6.37,2.49c2.58,0,4.71-0.83,6.38-2.49    c1.66-1.66,2.49-3.6,2.49-5.82V-986.45z"></path>			<path fill="#FFFFFF" d="M-3326.91-1025.25l12.2,199.55h2.22l12.2-199.55h44.35L-3287-714.83h-53.21l-31.04-310.42H-3326.91z"></path>			<path fill="#FFFFFF" d="M-3247.09-994.76c0-9.23,4.34-17.09,13.03-23.56c8.68-6.46,19.12-9.7,31.32-9.7h17.74    c12.2,0,22.63,3.24,31.32,9.7c8.68,6.47,13.03,14.33,13.03,23.56v249.44c0,9.24-4.35,17.1-13.03,23.56    c-8.69,6.47-19.12,9.7-31.32,9.7h-17.74c-12.2,0-22.64-3.23-31.32-9.7c-8.69-6.46-13.03-14.32-13.03-23.56V-994.76z     M-3185.01-986.45c0-2.22-0.83-4.16-2.49-5.82c-1.66-1.66-3.79-2.49-6.38-2.49c-2.59,0-4.71,0.83-6.37,2.49    c-1.66,1.66-2.49,3.6-2.49,5.82v232.81c0,2.22,0.83,4.16,2.49,5.82c1.66,1.66,3.78,2.49,6.37,2.49c2.58,0,4.71-0.83,6.38-2.49    c1.66-1.66,2.49-3.6,2.49-5.82V-986.45z"></path>			<path fill="#FFFFFF" d="M-3045.88-748.09v33.26h-83.15l34.37-277.16h-34.37v-33.26h83.15l-33.81,277.16H-3045.88z"></path>		</g>	</g>	<g>		<path fill="#FFFFFF" d="M-3872.64-242.77c-3,4.12-6.74,7.77-11.23,10.95s-9.74,4.77-15.72,4.77h-16.85   c-14.23,0-26.21-4.11-35.94-12.35c-9.74-8.23-14.6-18.15-14.6-29.76V-505c0-11.6,4.86-21.52,14.6-29.76   c9.73-8.23,21.71-12.35,35.94-12.35h22.46c14.22,0,26.2,4.12,35.94,12.35c9.73,8.24,14.6,18.16,14.6,29.76v89.84h-50.54v-78.61   c0-2.99-1.12-5.62-3.37-7.86c-2.25-2.25-4.87-3.37-7.86-3.37c-3,0-5.61,1.12-7.86,3.37c-2.25,2.25-3.37,4.87-3.37,7.86v213.37   c0,3,1.21,5.61,3.65,7.86c2.43,2.25,4.96,3.37,7.58,3.37c2.99,0,5.61-1.03,7.86-3.09c2.25-2.05,3.37-4.77,3.37-8.14v-54.75   l-11.23-11.23v-39.3h61.77v155.82h-17.97L-3872.64-242.77z"></path>		<path fill="#FFFFFF" d="M-3778.31-229.86h-44.92V-544.3h43.8l1.12,11.79c4.86-5.98,9.55-9.91,14.04-11.79   c4.49-1.87,9.73-2.81,15.72-2.81c10.11,0,18.15,3.28,24.15,9.83c5.98,6.55,8.98,14.51,8.98,23.86v73h-44.92V-505   c0-2.25-0.84-4.21-2.53-5.89c-1.68-1.68-3.84-2.53-6.46-2.53c-2.62,0-4.77,0.84-6.46,2.53c-1.68,1.68-2.53,3.65-2.53,5.89V-229.86   z"></path>		<path fill="#FFFFFF" d="M-3639.06-241.65c-5.99,5.99-11.33,9.92-16,11.79c-4.68,1.87-9.26,2.81-13.76,2.81   c-10.11,0-18.16-3.27-24.15-9.83c-5.99-6.55-8.98-14.5-8.98-23.86V-544.3h44.92v275.14c0,2.25,0.84,4.21,2.53,5.9   c1.68,1.68,3.83,2.53,6.46,2.53c2.61,0,4.77-0.84,6.46-2.53c1.68-1.68,2.53-3.65,2.53-5.9V-544.3h44.92v314.44h-43.8   L-3639.06-241.65z"></path>		<path fill="#FFFFFF" d="M-3498.12-263.55v33.69h-84.23l34.81-280.75h-34.81v-33.69h84.23l-34.25,280.75H-3498.12z"></path>		<path fill="#FFFFFF" d="M-3486.34-513.42c0-9.35,4.4-17.31,13.2-23.86c8.79-6.55,19.37-9.83,31.73-9.83h17.97   c12.35,0,22.93,3.28,31.73,9.83c8.79,6.55,13.2,14.51,13.2,23.86v252.68c0,9.36-4.41,17.32-13.2,23.86   c-8.8,6.55-19.37,9.83-31.73,9.83h-17.97c-12.35,0-22.93-3.27-31.73-9.83c-8.8-6.55-13.2-14.5-13.2-23.86V-513.42z M-3423.45-505   c0-2.25-0.84-4.21-2.53-5.89c-1.68-1.68-3.84-2.53-6.46-2.53c-2.62,0-4.77,0.84-6.46,2.53c-1.68,1.68-2.53,3.65-2.53,5.89v235.83   c0,2.25,0.84,4.21,2.53,5.9c1.68,1.68,3.83,2.53,6.46,2.53c2.62,0,4.77-0.84,6.46-2.53s2.53-3.65,2.53-5.9V-505z"></path>		<path fill="#FFFFFF" d="M-3324.62-544.3l12.35,202.14h2.25l12.35-202.14h44.92l-31.45,314.44h-53.9l-31.44-314.44H-3324.62z"></path>		<path fill="#FFFFFF" d="M-3243.77-513.42c0-9.35,4.4-17.31,13.2-23.86c8.79-6.55,19.37-9.83,31.73-9.83h17.97   c12.35,0,22.93,3.28,31.73,9.83c8.79,6.55,13.2,14.51,13.2,23.86v252.68c0,9.36-4.41,17.32-13.2,23.86   c-8.8,6.55-19.37,9.83-31.73,9.83h-17.97c-12.35,0-22.93-3.27-31.73-9.83c-8.8-6.55-13.2-14.5-13.2-23.86V-513.42z M-3180.88-505   c0-2.25-0.84-4.21-2.53-5.89c-1.68-1.68-3.84-2.53-6.46-2.53c-2.62,0-4.77,0.84-6.46,2.53c-1.68,1.68-2.53,3.65-2.53,5.89v235.83   c0,2.25,0.84,4.21,2.53,5.9c1.68,1.68,3.83,2.53,6.46,2.53c2.61,0,4.77-0.84,6.46-2.53c1.68-1.68,2.53-3.65,2.53-5.9V-505z"></path>		<path fill="#FFFFFF" d="M-3039.94-263.55v33.69h-84.23l34.81-280.75h-34.81v-33.69h84.23l-34.25,280.75H-3039.94z"></path>	</g>	<g>		<g>			<path fill="#FFFFFF" d="M-3898.31,130.03c-2.18,3-4.9,5.66-8.17,7.97c-3.27,2.31-7.09,3.47-11.44,3.47h-12.26    c-10.36,0-19.07-2.99-26.16-8.99c-7.09-5.99-10.63-13.21-10.63-21.66V-60.82c0-8.44,3.54-15.66,10.63-21.66    c7.08-5.99,15.8-8.99,26.16-8.99h16.35c10.35,0,19.07,3,26.16,8.99c7.08,6,10.63,13.22,10.63,21.66V4.57h-36.78v-57.22    c0-2.18-0.82-4.09-2.45-5.72c-1.64-1.64-3.54-2.45-5.72-2.45c-2.18,0-4.09,0.82-5.72,2.45c-1.64,1.63-2.45,3.54-2.45,5.72v155.3    c0,2.18,0.88,4.09,2.66,5.72c1.77,1.64,3.61,2.45,5.52,2.45c2.18,0,4.09-0.75,5.72-2.25c1.63-1.49,2.45-3.47,2.45-5.93V62.8    l-8.17-8.17V26.02h44.96v113.41h-13.08L-3898.31,130.03z"></path>			<path fill="#FFFFFF" d="M-3829.65,139.43h-32.69V-89.43h31.88l0.82,8.58c3.54-4.35,6.95-7.22,10.22-8.58    c3.27-1.36,7.08-2.04,11.44-2.04c7.36,0,13.21,2.39,17.57,7.15c4.35,4.77,6.54,10.56,6.54,17.37v53.13h-32.7v-47    c0-1.63-0.61-3.06-1.84-4.29c-1.23-1.23-2.8-1.84-4.7-1.84c-1.91,0-3.47,0.61-4.7,1.84c-1.23,1.23-1.84,2.66-1.84,4.29V139.43z"></path>			<path fill="#FFFFFF" d="M-3728.3,130.85c-4.36,4.36-8.24,7.22-11.65,8.58c-3.41,1.36-6.74,2.04-10.01,2.04    c-7.36,0-13.22-2.38-17.57-7.15c-4.36-4.76-6.54-10.56-6.54-17.37V-89.43h32.7v200.26c0,1.64,0.61,3.07,1.84,4.29    s2.79,1.84,4.7,1.84c1.9,0,3.47-0.61,4.7-1.84s1.84-2.66,1.84-4.29V-89.43h32.7v228.86h-31.88L-3728.3,130.85z"></path>			<path fill="#FFFFFF" d="M-3625.72,114.91v24.52h-61.3l25.34-204.34h-25.34v-24.52h61.3l-24.93,204.34H-3625.72z"></path>			<path fill="#FFFFFF" d="M-3617.15-66.95c0-6.81,3.2-12.6,9.6-17.37c6.4-4.76,14.1-7.15,23.09-7.15h13.08    c8.99,0,16.69,2.39,23.09,7.15c6.4,4.77,9.6,10.56,9.6,17.37v183.91c0,6.81-3.21,12.61-9.6,17.37c-6.4,4.77-14.1,7.15-23.09,7.15    h-13.08c-8.99,0-16.69-2.38-23.09-7.15c-6.4-4.76-9.6-10.56-9.6-17.37V-66.95z M-3571.37-60.82c0-1.63-0.61-3.06-1.84-4.29    c-1.23-1.23-2.8-1.84-4.7-1.84c-1.91,0-3.47,0.61-4.7,1.84c-1.23,1.23-1.84,2.66-1.84,4.29v171.65c0,1.64,0.61,3.07,1.84,4.29    c1.23,1.23,2.79,1.84,4.7,1.84c1.9,0,3.47-0.61,4.7-1.84c1.23-1.23,1.84-2.66,1.84-4.29V-60.82z"></path>			<path fill="#FFFFFF" d="M-3499.44-89.43l8.99,147.13h1.64l8.99-147.13h32.7l-22.89,228.86h-39.23l-22.89-228.86H-3499.44z"></path>			<path fill="#FFFFFF" d="M-3440.6-66.95c0-6.81,3.2-12.6,9.6-17.37c6.4-4.76,14.1-7.15,23.09-7.15h13.08    c8.99,0,16.69,2.39,23.09,7.15c6.4,4.77,9.6,10.56,9.6,17.37v183.91c0,6.81-3.21,12.61-9.6,17.37c-6.4,4.77-14.1,7.15-23.09,7.15    h-13.08c-8.99,0-16.69-2.38-23.09-7.15c-6.4-4.76-9.6-10.56-9.6-17.37V-66.95z M-3394.82-60.82c0-1.63-0.61-3.06-1.84-4.29    c-1.23-1.23-2.8-1.84-4.7-1.84c-1.91,0-3.47,0.61-4.7,1.84c-1.23,1.23-1.84,2.66-1.84,4.29v171.65c0,1.64,0.61,3.07,1.84,4.29    c1.23,1.23,2.79,1.84,4.7,1.84c1.9,0,3.47-0.61,4.7-1.84c1.23-1.23,1.84-2.66,1.84-4.29V-60.82z"></path>			<path fill="#FFFFFF" d="M-3292.24,114.91v24.52h-61.3l25.34-204.34h-25.34v-24.52h61.3l-24.93,204.34H-3292.24z"></path>		</g>		<g>			<path fill="#FFFFFF" d="M-3283.62,114.91h39.48c0-16.85,2.97-38.31,15.86-38.31c12.89,0,17.84,17.84,17.84,32.71    s-8.51,27.75-8.51,27.75s6.52,0,21.39,0c6.94,0,9.91-25.77,9.91-25.77h83.13c-0.03,0.57-0.05,1.14-0.05,1.71    c0,13.29,8.29,24.06,18.52,24.06h8.02c10.23,0,18.52-10.77,18.52-24.06c0-0.58-0.02-1.15-0.05-1.71h7.71l0.02-54.52h-27.42    l8.56-21.81h18.83V21.09h-145.71v13.88h19.82l12.89,21.81h-32.71v14.87h117.65l9.23,14.87h-126.88v24.78    c0,0-5.28-0.83-6.26-16.44c-1.12-17.83-7.12-32.13-24.46-32.13s-18.34,8.92-18.34,8.92h-8.43l-0.99-117.67l37.67-13.17    l110.52,7.04v-24.21l-164.05-13.07l-11.73,5.44v15.96l11.73-4.35V71.64l-11.73,3.2V114.91z"></path>			<polygon fill="#FFFFFF" points="-3214.19,-47.46 -3204.33,3.74 -3086.03,5.73 -3096.86,-39.87    "></polygon>			<polygon fill="#FFFFFF" points="-3224.8,-45.88 -3210.84,34.97 -3246.61,34.97 -3246.61,-37.84    "></polygon>			<polygon fill="#FFFFFF" points="-3085.75,10.16 -3051.83,18.07 -3204.33,7.9    "></polygon>			<g>				<rect x="-3283.62" y="135.02" fill="#FFFFFF" width="243.68" height="4.08"></rect>			</g>		</g>	</g>	<g>		<path fill="#FFFFFF" d="M-4003.46,472.74h81.81c0-15.44,2.72-35.1,14.53-35.1c11.81,0,16.35,16.35,16.35,29.97   s-7.79,25.43-7.79,25.43s5.98,0,19.6,0c6.36,0,9.08-23.61,9.08-23.61h76.16c-0.03,0.52-0.05,1.04-0.05,1.57   c0,12.17,7.6,22.04,16.97,22.04h7.35c9.37,0,16.97-9.87,16.97-22.04c0-0.53-0.02-1.05-0.05-1.57h7.06l0.02-49.95h-25.12   l7.84-19.98h17.25v-12.71h-133.5v12.71h18.16l11.81,19.98h-29.97v13.62h107.79l8.46,13.62h-116.24v22.7c0,0-4.84-0.76-5.74-15.06   c-1.03-16.34-6.52-29.44-22.41-29.44s-16.8,8.17-16.8,8.17h-7.72l-0.91-107.81l34.51-12.07l101.26,6.45v-22.18l-150.3-11.97   l-56.39,25.28v14.63l56.39-24.28V433.1l-56.39,12.88V472.74z"></path>		<polygon fill="#FFFFFF" points="-3894.21,323.97 -3885.18,370.89 -3776.79,372.71 -3786.72,330.93   "></polygon>		<polygon fill="#FFFFFF" points="-3903.93,325.42 -3891.14,399.5 -3923.91,399.5 -3923.91,332.79   "></polygon>		<polygon fill="#FFFFFF" points="-3776.53,376.76 -3745.46,384.01 -3885.18,374.7   "></polygon>		<g>			<rect x="-4003.46" y="491.16" fill="#FFFFFF" width="300" height="3.74"></rect>		</g>	</g>	<g>		<g>			<path d="M-1863.15-1229.14h-60.23l18.81-47.91h41.37v-30.49h-320.09v30.49h43.55l28.31,47.91h-71.86v32.66h258.45l20.27,32.66    h-278.72v54.44c0,0-11.6-1.83-13.76-36.11c-2.47-39.18-15.64-70.59-53.74-70.59c-38.11,0-40.28,19.6-40.28,19.6h-18.51    l-2.18-258.5l82.75-28.93l242.79,15.47v-53.18l-360.38-28.71l-263.48,142.66v14.02l263.48-119.22v316.39l-263.48,32.66v54.44    h104.52c0-28.31,7.02-58.44,27.52-58.44c20.5,0,26.92,17.07,26.92,58.44c0,41.37-19.73,56.62-19.73,56.62s26.32,0,44.59,0    c11.51,0,16.51-47.91,16.51-47.91h124.12c0-37.02,6.53-84.92,34.84-84.92c28.31,0,39.2,39.2,39.2,71.86s-18.69,60.97-18.69,60.97    s14.33,0,47,0c15.24,0,21.78-56.62,21.78-56.62h182.62c-0.07,1.24-0.11,2.49-0.11,3.76c0,29.19,18.22,52.85,40.69,52.85h17.61    c22.47,0,40.69-23.66,40.69-52.85c0-1.27-0.05-2.52-0.11-3.76h16.93L-1863.15-1229.14z"></path>			<polygon points="-2219.86,-1458.13 -2198.21,-1345.64 -1938.32,-1341.28 -1962.12,-1441.45    "></polygon>			<polygon points="-2243.17,-1454.65 -2212.5,-1277.05 -2291.08,-1277.05 -2291.08,-1436.99    "></polygon>			<polygon points="-1937.7,-1331.55 -1863.2,-1314.17 -2198.21,-1336.5    "></polygon>			<g>				<rect x="-2610.08" y="-1056.03" width="773.02" height="12.96"></rect>			</g>		</g>		<g>			<path fill="#F68B21" d="M-2659.1-727.58c-2.96,4.07-6.65,7.67-11.09,10.81c-4.43,3.14-9.61,4.71-15.52,4.71h-16.63    c-14.05,0-25.87-4.06-35.48-12.19c-9.61-8.12-14.41-17.92-14.41-29.38v-755.12c0-11.45,4.8-21.25,14.41-29.38    c9.61-8.12,21.43-12.19,35.48-12.19h22.17c14.04,0,25.86,4.07,35.48,12.19c9.6,8.13,14.41,17.93,14.41,29.38v115.11h-49.89    v-104.02c0-2.95-1.11-5.54-3.33-7.76c-2.22-2.22-4.81-3.33-7.76-3.33c-2.96,0-5.54,1.11-7.76,3.33    c-2.22,2.22-3.33,4.81-3.33,7.76v732.95c0,2.96,1.2,5.54,3.6,7.76c2.4,2.22,4.89,3.33,7.48,3.33c2.95,0,5.54-1.01,7.76-3.05    c2.22-2.03,3.33-4.71,3.33-8.04v-349.21l-11.09-11.09v-38.8h60.97v448.98h-17.74L-2659.1-727.58z"></path>			<path fill="#F68B21" d="M-2565.98-714.83h-44.35v-310.42h43.24l1.11,11.64c4.8-5.91,9.42-9.79,13.86-11.64    c4.43-1.84,9.61-2.77,15.52-2.77c9.98,0,17.92,3.24,23.84,9.7c5.91,6.47,8.87,14.33,8.87,23.56v72.06h-44.35v-63.75    c0-2.22-0.83-4.16-2.49-5.82c-1.66-1.66-3.79-2.49-6.38-2.49c-2.59,0-4.71,0.83-6.37,2.49c-1.66,1.66-2.49,3.6-2.49,5.82V-714.83    z"></path>			<path fill="#F68B21" d="M-2428.52-726.47c-5.92,5.92-11.18,9.8-15.8,11.64c-4.62,1.84-9.15,2.77-13.58,2.77    c-9.98,0-17.93-3.23-23.84-9.7c-5.92-6.46-8.87-14.32-8.87-23.56v-279.93h44.35v271.62c0,2.22,0.83,4.16,2.49,5.82    c1.66,1.66,3.78,2.49,6.37,2.49c2.58,0,4.71-0.83,6.38-2.49c1.66-1.66,2.49-3.6,2.49-5.82v-271.62h44.35v310.42h-43.24    L-2428.52-726.47z"></path>			<path fill="#F68B21" d="M-2289.38-748.09v33.26h-83.15l34.37-277.16h-34.37v-33.26h83.15l-33.81,277.16H-2289.38z"></path>			<path fill="#F68B21" d="M-2277.75-994.76c0-9.23,4.34-17.09,13.03-23.56c8.68-6.46,19.12-9.7,31.32-9.7h17.74    c12.19,0,22.63,3.24,31.32,9.7c8.68,6.47,13.03,14.33,13.03,23.56v249.44c0,9.24-4.35,17.1-13.03,23.56    c-8.69,6.47-19.12,9.7-31.32,9.7h-17.74c-12.2,0-22.64-3.23-31.32-9.7c-8.69-6.46-13.03-14.32-13.03-23.56V-994.76z     M-2215.66-986.45c0-2.22-0.83-4.16-2.49-5.82c-1.66-1.66-3.79-2.49-6.38-2.49c-2.59,0-4.71,0.83-6.37,2.49    c-1.66,1.66-2.49,3.6-2.49,5.82v232.81c0,2.22,0.83,4.16,2.49,5.82c1.66,1.66,3.78,2.49,6.37,2.49c2.58,0,4.71-0.83,6.38-2.49    c1.66-1.66,2.49-3.6,2.49-5.82V-986.45z"></path>			<path fill="#F68B21" d="M-2118.1-1025.25l12.2,199.55h2.22l12.19-199.55h44.35l-31.04,310.42h-53.21l-31.04-310.42H-2118.1z"></path>			<path fill="#F68B21" d="M-2038.29-994.76c0-9.23,4.34-17.09,13.03-23.56c8.68-6.46,19.12-9.7,31.32-9.7h17.74    c12.19,0,22.63,3.24,31.32,9.7c8.68,6.47,13.03,14.33,13.03,23.56v249.44c0,9.24-4.35,17.1-13.03,23.56    c-8.69,6.47-19.12,9.7-31.32,9.7h-17.74c-12.19,0-22.64-3.23-31.32-9.7c-8.69-6.46-13.03-14.32-13.03-23.56V-994.76z     M-1976.2-986.45c0-2.22-0.83-4.16-2.49-5.82c-1.66-1.66-3.79-2.49-6.38-2.49c-2.59,0-4.71,0.83-6.37,2.49    c-1.66,1.66-2.49,3.6-2.49,5.82v232.81c0,2.22,0.83,4.16,2.49,5.82c1.66,1.66,3.78,2.49,6.37,2.49c2.58,0,4.71-0.83,6.38-2.49    c1.66-1.66,2.49-3.6,2.49-5.82V-986.45z"></path>			<path fill="#F68B21" d="M-1837.07-748.09v33.26h-83.15l34.37-277.16h-34.37v-33.26h83.15l-33.81,277.16H-1837.07z"></path>		</g>	</g>	<g>		<path fill="#F68B21" d="M-2663.83-242.77c-3,4.12-6.74,7.77-11.23,10.95s-9.74,4.77-15.72,4.77h-16.85   c-14.23,0-26.21-4.11-35.94-12.35c-9.74-8.23-14.6-18.15-14.6-29.76V-505c0-11.6,4.86-21.52,14.6-29.76   c9.73-8.23,21.71-12.35,35.94-12.35h22.46c14.22,0,26.2,4.12,35.94,12.35c9.73,8.24,14.6,18.16,14.6,29.76v89.84h-50.54v-78.61   c0-2.99-1.12-5.62-3.37-7.86c-2.25-2.25-4.87-3.37-7.86-3.37c-3,0-5.61,1.12-7.86,3.37c-2.25,2.25-3.37,4.87-3.37,7.86v213.37   c0,3,1.21,5.61,3.65,7.86c2.43,2.25,4.96,3.37,7.58,3.37c2.99,0,5.61-1.03,7.86-3.09c2.25-2.05,3.37-4.77,3.37-8.14v-54.75   l-11.23-11.23v-39.3h61.77v155.82h-17.97L-2663.83-242.77z"></path>		<path fill="#F68B21" d="M-2569.5-229.86h-44.92V-544.3h43.8l1.12,11.79c4.86-5.98,9.55-9.91,14.04-11.79   c4.49-1.87,9.73-2.81,15.72-2.81c10.11,0,18.15,3.28,24.15,9.83c5.98,6.55,8.98,14.51,8.98,23.86v73h-44.92V-505   c0-2.25-0.84-4.21-2.53-5.89c-1.68-1.68-3.84-2.53-6.46-2.53c-2.62,0-4.77,0.84-6.46,2.53c-1.68,1.68-2.53,3.65-2.53,5.89V-229.86   z"></path>		<path fill="#F68B21" d="M-2430.25-241.65c-5.99,5.99-11.33,9.92-16,11.79c-4.68,1.87-9.26,2.81-13.76,2.81   c-10.11,0-18.16-3.27-24.15-9.83c-5.99-6.55-8.98-14.5-8.98-23.86V-544.3h44.92v275.14c0,2.25,0.84,4.21,2.53,5.9   s3.83,2.53,6.46,2.53c2.61,0,4.77-0.84,6.46-2.53c1.68-1.68,2.53-3.65,2.53-5.9V-544.3h44.92v314.44h-43.8L-2430.25-241.65z"></path>		<path fill="#F68B21" d="M-2289.31-263.55v33.69h-84.23l34.81-280.75h-34.81v-33.69h84.23l-34.25,280.75H-2289.31z"></path>		<path fill="#F68B21" d="M-2277.53-513.42c0-9.35,4.4-17.31,13.2-23.86c8.79-6.55,19.37-9.83,31.73-9.83h17.97   c12.35,0,22.93,3.28,31.73,9.83c8.79,6.55,13.2,14.51,13.2,23.86v252.68c0,9.36-4.41,17.32-13.2,23.86   c-8.8,6.55-19.37,9.83-31.73,9.83h-17.97c-12.35,0-22.93-3.27-31.73-9.83c-8.8-6.55-13.2-14.5-13.2-23.86V-513.42z M-2214.64-505   c0-2.25-0.84-4.21-2.53-5.89c-1.68-1.68-3.84-2.53-6.46-2.53c-2.62,0-4.77,0.84-6.46,2.53c-1.68,1.68-2.53,3.65-2.53,5.89v235.83   c0,2.25,0.84,4.21,2.53,5.9c1.68,1.68,3.83,2.53,6.46,2.53c2.62,0,4.77-0.84,6.46-2.53c1.68-1.68,2.53-3.65,2.53-5.9V-505z"></path>		<path fill="#F68B21" d="M-2115.81-544.3l12.35,202.14h2.25l12.35-202.14h44.92l-31.44,314.44h-53.9l-31.44-314.44H-2115.81z"></path>		<path fill="#F68B21" d="M-2034.96-513.42c0-9.35,4.4-17.31,13.2-23.86c8.79-6.55,19.37-9.83,31.73-9.83h17.97   c12.35,0,22.93,3.28,31.73,9.83c8.79,6.55,13.2,14.51,13.2,23.86v252.68c0,9.36-4.41,17.32-13.2,23.86   c-8.8,6.55-19.37,9.83-31.73,9.83h-17.97c-12.35,0-22.93-3.27-31.73-9.83c-8.8-6.55-13.2-14.5-13.2-23.86V-513.42z M-1972.07-505   c0-2.25-0.84-4.21-2.53-5.89c-1.68-1.68-3.84-2.53-6.46-2.53c-2.62,0-4.77,0.84-6.46,2.53c-1.68,1.68-2.53,3.65-2.53,5.89v235.83   c0,2.25,0.84,4.21,2.53,5.9c1.68,1.68,3.83,2.53,6.46,2.53c2.62,0,4.77-0.84,6.46-2.53c1.68-1.68,2.53-3.65,2.53-5.9V-505z"></path>		<path fill="#F68B21" d="M-1831.13-263.55v33.69h-84.23l34.81-280.75h-34.81v-33.69h84.23l-34.25,280.75H-1831.13z"></path>	</g>	<g>		<g>			<path fill="#F68B21" d="M-2689.5,130.03c-2.18,3-4.9,5.66-8.17,7.97c-3.27,2.31-7.09,3.47-11.44,3.47h-12.26    c-10.36,0-19.07-2.99-26.16-8.99c-7.09-5.99-10.63-13.21-10.63-21.66V-60.82c0-8.44,3.54-15.66,10.63-21.66    c7.08-5.99,15.8-8.99,26.16-8.99h16.35c10.35,0,19.07,3,26.16,8.99c7.08,6,10.63,13.22,10.63,21.66V4.57h-36.78v-57.22    c0-2.18-0.82-4.09-2.45-5.72c-1.64-1.64-3.54-2.45-5.72-2.45c-2.18,0-4.09,0.82-5.72,2.45c-1.64,1.63-2.45,3.54-2.45,5.72v155.3    c0,2.18,0.88,4.09,2.66,5.72c1.77,1.64,3.61,2.45,5.52,2.45c2.18,0,4.09-0.75,5.72-2.25c1.63-1.49,2.45-3.47,2.45-5.93V62.8    l-8.17-8.17V26.02h44.96v113.41h-13.08L-2689.5,130.03z"></path>			<path fill="#F68B21" d="M-2620.85,139.43h-32.69V-89.43h31.88l0.82,8.58c3.54-4.35,6.95-7.22,10.22-8.58    c3.27-1.36,7.08-2.04,11.44-2.04c7.36,0,13.21,2.39,17.57,7.15c4.35,4.77,6.54,10.56,6.54,17.37v53.13h-32.69v-47    c0-1.63-0.61-3.06-1.84-4.29c-1.23-1.23-2.8-1.84-4.7-1.84c-1.91,0-3.47,0.61-4.7,1.84c-1.23,1.23-1.84,2.66-1.84,4.29V139.43z"></path>			<path fill="#F68B21" d="M-2519.5,130.85c-4.36,4.36-8.24,7.22-11.65,8.58c-3.41,1.36-6.74,2.04-10.01,2.04    c-7.36,0-13.22-2.38-17.57-7.15c-4.36-4.76-6.54-10.56-6.54-17.37V-89.43h32.7v200.26c0,1.64,0.61,3.07,1.84,4.29    s2.79,1.84,4.7,1.84c1.9,0,3.47-0.61,4.7-1.84s1.84-2.66,1.84-4.29V-89.43h32.7v228.86h-31.88L-2519.5,130.85z"></path>			<path fill="#F68B21" d="M-2416.92,114.91v24.52h-61.3l25.34-204.34h-25.34v-24.52h61.3l-24.93,204.34H-2416.92z"></path>			<path fill="#F68B21" d="M-2408.34-66.95c0-6.81,3.2-12.6,9.6-17.37c6.4-4.76,14.1-7.15,23.09-7.15h13.08    c8.99,0,16.69,2.39,23.09,7.15c6.4,4.77,9.6,10.56,9.6,17.37v183.91c0,6.81-3.21,12.61-9.6,17.37c-6.4,4.77-14.1,7.15-23.09,7.15    h-13.08c-8.99,0-16.69-2.38-23.09-7.15c-6.4-4.76-9.6-10.56-9.6-17.37V-66.95z M-2362.57-60.82c0-1.63-0.61-3.06-1.84-4.29    c-1.23-1.23-2.8-1.84-4.7-1.84c-1.91,0-3.47,0.61-4.7,1.84c-1.23,1.23-1.84,2.66-1.84,4.29v171.65c0,1.64,0.61,3.07,1.84,4.29    c1.23,1.23,2.79,1.84,4.7,1.84c1.9,0,3.47-0.61,4.7-1.84c1.23-1.23,1.84-2.66,1.84-4.29V-60.82z"></path>			<path fill="#F68B21" d="M-2290.64-89.43l8.99,147.13h1.64l8.99-147.13h32.7l-22.89,228.86h-39.23l-22.89-228.86H-2290.64z"></path>			<path fill="#F68B21" d="M-2231.79-66.95c0-6.81,3.2-12.6,9.6-17.37c6.4-4.76,14.1-7.15,23.09-7.15h13.08    c8.99,0,16.69,2.39,23.09,7.15c6.4,4.77,9.6,10.56,9.6,17.37v183.91c0,6.81-3.21,12.61-9.6,17.37c-6.4,4.77-14.1,7.15-23.09,7.15    h-13.08c-8.99,0-16.69-2.38-23.09-7.15c-6.4-4.76-9.6-10.56-9.6-17.37V-66.95z M-2186.02-60.82c0-1.63-0.61-3.06-1.84-4.29    c-1.23-1.23-2.8-1.84-4.7-1.84c-1.91,0-3.47,0.61-4.7,1.84c-1.23,1.23-1.84,2.66-1.84,4.29v171.65c0,1.64,0.61,3.07,1.84,4.29    c1.23,1.23,2.79,1.84,4.7,1.84c1.9,0,3.47-0.61,4.7-1.84c1.23-1.23,1.84-2.66,1.84-4.29V-60.82z"></path>			<path fill="#F68B21" d="M-2083.44,114.91v24.52h-61.3l25.34-204.34h-25.34v-24.52h61.3l-24.93,204.34H-2083.44z"></path>		</g>		<g>			<path d="M-2074.81,114.91h39.48c0-16.85,2.97-38.31,15.86-38.31c12.89,0,17.84,17.84,17.84,32.71s-8.51,27.75-8.51,27.75    s6.52,0,21.39,0c6.94,0,9.91-25.77,9.91-25.77h83.13c-0.03,0.57-0.05,1.14-0.05,1.71c0,13.29,8.29,24.06,18.52,24.06h8.02    c10.23,0,18.52-10.77,18.52-24.06c0-0.58-0.02-1.15-0.05-1.71h7.71l0.02-54.52h-27.42l8.56-21.81h18.83V21.09h-145.71v13.88    h19.82l12.89,21.81h-32.71v14.87h117.65l9.23,14.87h-126.88v24.78c0,0-5.28-0.83-6.26-16.44c-1.12-17.83-7.12-32.13-24.46-32.13    s-18.34,8.92-18.34,8.92h-8.43l-0.99-117.67l37.67-13.17l110.52,7.04v-24.21l-164.05-13.07l-11.73,5.44v15.96l11.73-4.35V71.64    l-11.73,3.2V114.91z"></path>			<polygon points="-2005.38,-47.46 -1995.53,3.74 -1877.22,5.73 -1888.06,-39.87    "></polygon>			<polygon points="-2016,-45.88 -2002.03,34.97 -2037.8,34.97 -2037.8,-37.84    "></polygon>			<polygon points="-1876.94,10.16 -1843.03,18.07 -1995.53,7.9    "></polygon>			<g>				<rect x="-2074.81" y="135.02" width="243.68" height="4.08"></rect>			</g>		</g>	</g>	<g>		<rect x="-2794.65" y="240.21" fill="#F68B21" width="300" height="300"></rect>		<g>			<path d="M-2794.65,472.74h81.81c0-15.44,2.72-35.1,14.53-35.1s16.35,16.35,16.35,29.97s-7.79,25.43-7.79,25.43s5.98,0,19.6,0    c6.36,0,9.08-23.61,9.08-23.61h76.16c-0.03,0.52-0.05,1.04-0.05,1.57c0,12.17,7.6,22.04,16.97,22.04h7.35    c9.37,0,16.97-9.87,16.97-22.04c0-0.53-0.02-1.05-0.05-1.57h7.06l0.02-49.95h-25.12l7.84-19.98h17.25v-12.71h-133.5v12.71h18.16    l11.81,19.98h-29.97v13.62h107.79l8.46,13.62h-116.24v22.7c0,0-4.84-0.76-5.74-15.06c-1.03-16.34-6.52-29.44-22.41-29.44    s-16.8,8.17-16.8,8.17h-7.72l-0.91-107.81l34.51-12.07l101.26,6.45v-22.18l-150.3-11.97l-56.39,25.28v14.63l56.39-24.28V433.1    l-56.39,12.88V472.74z"></path>			<polygon points="-2685.4,323.97 -2676.37,370.89 -2567.98,372.71 -2577.91,330.93    "></polygon>			<polygon points="-2695.12,325.42 -2682.33,399.5 -2715.1,399.5 -2715.1,332.79    "></polygon>			<polygon points="-2567.72,376.76 -2536.65,384.01 -2676.37,374.7    "></polygon>			<g>				<rect x="-2794.65" y="491.16" width="300" height="3.74"></rect>			</g>		</g>	</g>	<g>		<g>			<path fill="#1037B6" d="M-682.08-1229.14h-60.23l18.81-47.91h41.37v-30.49h-320.1v30.49h43.55l28.31,47.91h-71.86v32.66h258.45    l20.27,32.66h-278.72v54.44c0,0-11.6-1.83-13.76-36.11c-2.47-39.18-15.64-70.59-53.74-70.59s-40.28,19.6-40.28,19.6h-18.51    l-2.18-258.5l82.75-28.93l242.79,15.47v-53.18l-360.38-28.71l-263.48,142.66v14.02l263.48-119.22v316.39l-263.48,32.66v54.44    h104.52c0-28.31,7.02-58.44,27.52-58.44c20.5,0,26.92,17.07,26.92,58.44c0,41.37-19.73,56.62-19.73,56.62s26.32,0,44.59,0    c11.51,0,16.51-47.91,16.51-47.91h124.12c0-37.02,6.53-84.92,34.84-84.92s39.2,39.2,39.2,71.86s-18.69,60.97-18.69,60.97    s14.33,0,47,0c15.24,0,21.78-56.62,21.78-56.62h182.62c-0.07,1.24-0.11,2.49-0.11,3.76c0,29.19,18.22,52.85,40.69,52.85h17.61    c22.47,0,40.69-23.66,40.69-52.85c0-1.27-0.05-2.52-0.11-3.76h16.93L-682.08-1229.14z"></path>			<polygon fill="#1037B6" points="-1038.8,-1458.13 -1017.15,-1345.64 -757.26,-1341.28 -781.06,-1441.45    "></polygon>			<polygon fill="#1037B6" points="-1062.11,-1454.65 -1031.43,-1277.05 -1110.01,-1277.05 -1110.01,-1436.99    "></polygon>			<polygon fill="#1037B6" points="-756.64,-1331.55 -682.13,-1314.17 -1017.15,-1336.5    "></polygon>			<g>				<rect x="-1429.02" y="-1056.03" fill="#1037B6" width="773.02" height="12.96"></rect>			</g>		</g>		<g>			<path fill="#F68B21" d="M-1478.04-727.58c-2.96,4.07-6.65,7.67-11.09,10.81s-9.61,4.71-15.52,4.71h-16.63    c-14.05,0-25.87-4.06-35.48-12.19c-9.61-8.12-14.41-17.92-14.41-29.38v-755.12c0-11.45,4.8-21.25,14.41-29.38    c9.61-8.12,21.43-12.19,35.48-12.19h22.17c14.04,0,25.86,4.07,35.48,12.19c9.6,8.13,14.41,17.93,14.41,29.38v115.11h-49.89    v-104.02c0-2.95-1.11-5.54-3.33-7.76c-2.22-2.22-4.81-3.33-7.76-3.33c-2.96,0-5.54,1.11-7.76,3.33    c-2.22,2.22-3.33,4.81-3.33,7.76v732.95c0,2.96,1.2,5.54,3.6,7.76c2.4,2.22,4.89,3.33,7.48,3.33c2.95,0,5.54-1.01,7.76-3.05    c2.22-2.03,3.33-4.71,3.33-8.04v-349.21l-11.09-11.09v-38.8h60.97v448.98h-17.74L-1478.04-727.58z"></path>			<path fill="#F68B21" d="M-1384.92-714.83h-44.35v-310.42h43.24l1.11,11.64c4.8-5.91,9.42-9.79,13.86-11.64    c4.43-1.84,9.61-2.77,15.52-2.77c9.98,0,17.92,3.24,23.84,9.7c5.91,6.47,8.87,14.33,8.87,23.56v72.06h-44.35v-63.75    c0-2.22-0.83-4.16-2.49-5.82c-1.66-1.66-3.79-2.49-6.38-2.49c-2.59,0-4.71,0.83-6.37,2.49c-1.66,1.66-2.49,3.6-2.49,5.82V-714.83    z"></path>			<path fill="#F68B21" d="M-1247.45-726.47c-5.92,5.92-11.18,9.8-15.8,11.64c-4.62,1.84-9.15,2.77-13.58,2.77    c-9.98,0-17.93-3.23-23.84-9.7c-5.92-6.46-8.87-14.32-8.87-23.56v-279.93h44.35v271.62c0,2.22,0.83,4.16,2.49,5.82    c1.66,1.66,3.78,2.49,6.37,2.49c2.58,0,4.71-0.83,6.38-2.49c1.66-1.66,2.49-3.6,2.49-5.82v-271.62h44.35v310.42h-43.24    L-1247.45-726.47z"></path>			<path fill="#F68B21" d="M-1108.32-748.09v33.26h-83.15l34.37-277.16h-34.37v-33.26h83.15l-33.81,277.16H-1108.32z"></path>			<path fill="#F68B21" d="M-1096.68-994.76c0-9.23,4.34-17.09,13.03-23.56c8.68-6.46,19.12-9.7,31.32-9.7h17.74    c12.2,0,22.63,3.24,31.32,9.7c8.68,6.47,13.03,14.33,13.03,23.56v249.44c0,9.24-4.35,17.1-13.03,23.56    c-8.69,6.47-19.12,9.7-31.32,9.7h-17.74c-12.19,0-22.64-3.23-31.32-9.7c-8.69-6.46-13.03-14.32-13.03-23.56V-994.76z     M-1034.6-986.45c0-2.22-0.83-4.16-2.49-5.82c-1.66-1.66-3.79-2.49-6.38-2.49c-2.59,0-4.71,0.83-6.37,2.49    c-1.66,1.66-2.49,3.6-2.49,5.82v232.81c0,2.22,0.83,4.16,2.49,5.82c1.66,1.66,3.78,2.49,6.37,2.49c2.58,0,4.71-0.83,6.38-2.49    c1.66-1.66,2.49-3.6,2.49-5.82V-986.45z"></path>			<path fill="#F68B21" d="M-937.04-1025.25l12.19,199.55h2.22l12.19-199.55h44.35l-31.04,310.42h-53.21l-31.04-310.42H-937.04z"></path>			<path fill="#F68B21" d="M-857.22-994.76c0-9.23,4.34-17.09,13.03-23.56c8.68-6.46,19.12-9.7,31.32-9.7h17.74    c12.2,0,22.63,3.24,31.32,9.7c8.68,6.47,13.03,14.33,13.03,23.56v249.44c0,9.24-4.35,17.1-13.03,23.56    c-8.69,6.47-19.12,9.7-31.32,9.7h-17.74c-12.19,0-22.64-3.23-31.32-9.7c-8.69-6.46-13.03-14.32-13.03-23.56V-994.76z     M-795.14-986.45c0-2.22-0.83-4.16-2.49-5.82c-1.66-1.66-3.79-2.49-6.38-2.49c-2.59,0-4.71,0.83-6.37,2.49    c-1.66,1.66-2.49,3.6-2.49,5.82v232.81c0,2.22,0.83,4.16,2.49,5.82c1.66,1.66,3.78,2.49,6.37,2.49c2.58,0,4.71-0.83,6.38-2.49    c1.66-1.66,2.49-3.6,2.49-5.82V-986.45z"></path>			<path fill="#F68B21" d="M-656-748.09v33.26h-83.15l34.37-277.16h-34.37v-33.26H-656l-33.81,277.16H-656z"></path>		</g>	</g>	<g>		<path fill="#F68B21" d="M-1482.77-242.77c-3,4.12-6.74,7.77-11.23,10.95s-9.74,4.77-15.72,4.77h-16.85   c-14.23,0-26.21-4.11-35.94-12.35c-9.74-8.23-14.6-18.15-14.6-29.76V-505c0-11.6,4.86-21.52,14.6-29.76   c9.73-8.23,21.71-12.35,35.94-12.35h22.46c14.22,0,26.2,4.12,35.94,12.35c9.73,8.24,14.6,18.16,14.6,29.76v89.84h-50.54v-78.61   c0-2.99-1.12-5.62-3.37-7.86c-2.25-2.25-4.87-3.37-7.86-3.37c-3,0-5.61,1.12-7.86,3.37c-2.25,2.25-3.37,4.87-3.37,7.86v213.37   c0,3,1.21,5.61,3.65,7.86c2.43,2.25,4.96,3.37,7.58,3.37c2.99,0,5.61-1.03,7.86-3.09c2.25-2.05,3.37-4.77,3.37-8.14v-54.75   l-11.23-11.23v-39.3h61.77v155.82h-17.97L-1482.77-242.77z"></path>		<path fill="#F68B21" d="M-1388.44-229.86h-44.92V-544.3h43.8l1.12,11.79c4.86-5.98,9.55-9.91,14.04-11.79   c4.49-1.87,9.73-2.81,15.72-2.81c10.11,0,18.15,3.28,24.15,9.83c5.98,6.55,8.98,14.51,8.98,23.86v73h-44.92V-505   c0-2.25-0.84-4.21-2.53-5.89c-1.68-1.68-3.84-2.53-6.46-2.53c-2.62,0-4.77,0.84-6.46,2.53c-1.68,1.68-2.53,3.65-2.53,5.89V-229.86   z"></path>		<path fill="#F68B21" d="M-1249.19-241.65c-5.99,5.99-11.33,9.92-16,11.79c-4.68,1.87-9.26,2.81-13.76,2.81   c-10.11,0-18.16-3.27-24.15-9.83c-5.99-6.55-8.98-14.5-8.98-23.86V-544.3h44.92v275.14c0,2.25,0.84,4.21,2.53,5.9   c1.68,1.68,3.83,2.53,6.46,2.53c2.62,0,4.77-0.84,6.46-2.53c1.68-1.68,2.53-3.65,2.53-5.9V-544.3h44.92v314.44h-43.8   L-1249.19-241.65z"></path>		<path fill="#F68B21" d="M-1108.25-263.55v33.69h-84.23l34.81-280.75h-34.81v-33.69h84.23l-34.25,280.75H-1108.25z"></path>		<path fill="#F68B21" d="M-1096.46-513.42c0-9.35,4.4-17.31,13.2-23.86c8.79-6.55,19.37-9.83,31.73-9.83h17.97   c12.35,0,22.93,3.28,31.73,9.83c8.79,6.55,13.2,14.51,13.2,23.86v252.68c0,9.36-4.41,17.32-13.2,23.86   c-8.8,6.55-19.37,9.83-31.73,9.83h-17.97c-12.35,0-22.93-3.27-31.73-9.83c-8.8-6.55-13.2-14.5-13.2-23.86V-513.42z M-1033.57-505   c0-2.25-0.84-4.21-2.53-5.89c-1.68-1.68-3.84-2.53-6.46-2.53c-2.62,0-4.77,0.84-6.46,2.53c-1.68,1.68-2.53,3.65-2.53,5.89v235.83   c0,2.25,0.84,4.21,2.53,5.9c1.68,1.68,3.83,2.53,6.46,2.53c2.62,0,4.77-0.84,6.46-2.53c1.68-1.68,2.53-3.65,2.53-5.9V-505z"></path>		<path fill="#F68B21" d="M-934.75-544.3l12.35,202.14h2.25l12.35-202.14h44.92l-31.44,314.44h-53.9l-31.44-314.44H-934.75z"></path>		<path fill="#F68B21" d="M-853.9-513.42c0-9.35,4.4-17.31,13.2-23.86c8.79-6.55,19.37-9.83,31.73-9.83h17.97   c12.35,0,22.93,3.28,31.73,9.83c8.79,6.55,13.2,14.51,13.2,23.86v252.68c0,9.36-4.41,17.32-13.2,23.86   c-8.8,6.55-19.37,9.83-31.73,9.83h-17.97c-12.35,0-22.93-3.27-31.73-9.83c-8.8-6.55-13.2-14.5-13.2-23.86V-513.42z M-791.01-505   c0-2.25-0.84-4.21-2.53-5.89c-1.68-1.68-3.84-2.53-6.46-2.53c-2.62,0-4.77,0.84-6.46,2.53c-1.68,1.68-2.53,3.65-2.53,5.89v235.83   c0,2.25,0.84,4.21,2.53,5.9s3.83,2.53,6.46,2.53c2.62,0,4.77-0.84,6.46-2.53c1.68-1.68,2.53-3.65,2.53-5.9V-505z"></path>		<path fill="#F68B21" d="M-650.07-263.55v33.69h-84.23l34.81-280.75h-34.81v-33.69h84.23l-34.25,280.75H-650.07z"></path>	</g>	<g>		<g>			<path fill="#FFFFFF" d="M12.34,43.88c-0.39,0.54-0.88,1.02-1.47,1.43s-1.27,0.62-2.06,0.62h-2.2c-1.86,0-3.43-0.54-4.7-1.62    C0.64,43.25,0,41.95,0,40.43V9.57c0-1.52,0.64-2.82,1.91-3.89c1.27-1.08,2.84-1.62,4.7-1.62h2.94c1.86,0,3.43,0.54,4.7,1.62    c1.27,1.08,1.91,2.38,1.91,3.89v11.76H9.55V11.04c0-0.39-0.15-0.73-0.44-1.03C8.82,9.72,8.47,9.57,8.08,9.57    c-0.39,0-0.73,0.15-1.03,0.44c-0.29,0.29-0.44,0.64-0.44,1.03v27.92c0,0.39,0.16,0.73,0.48,1.03c0.32,0.29,0.65,0.44,0.99,0.44    c0.39,0,0.73-0.13,1.03-0.4c0.29-0.27,0.44-0.62,0.44-1.07V31.8l-1.47-1.47v-5.14h8.08v20.39h-2.35L12.34,43.88z"></path>			<path fill="#FFFFFF" d="M24.69,45.57h-5.88V4.43h5.73l0.15,1.54c0.64-0.78,1.25-1.3,1.84-1.54c0.59-0.24,1.27-0.37,2.06-0.37    c1.32,0,2.38,0.43,3.16,1.29c0.78,0.86,1.18,1.9,1.18,3.12v9.55h-5.88V9.57c0-0.29-0.11-0.55-0.33-0.77    c-0.22-0.22-0.5-0.33-0.85-0.33c-0.34,0-0.62,0.11-0.84,0.33s-0.33,0.48-0.33,0.77V45.57z"></path>			<path fill="#FFFFFF" d="M42.91,44.03c-0.78,0.78-1.48,1.3-2.09,1.54c-0.61,0.24-1.21,0.37-1.8,0.37c-1.32,0-2.38-0.43-3.16-1.29    c-0.78-0.86-1.18-1.9-1.18-3.12V4.43h5.88v36c0,0.29,0.11,0.55,0.33,0.77c0.22,0.22,0.5,0.33,0.84,0.33    c0.34,0,0.62-0.11,0.85-0.33c0.22-0.22,0.33-0.48,0.33-0.77v-36h5.88v41.15h-5.73L42.91,44.03z"></path>			<path fill="#FFFFFF" d="M61.35,41.16v4.41H50.33l4.56-36.74h-4.56V4.43h11.02l-4.48,36.74H61.35z"></path>			<path fill="#FFFFFF" d="M62.89,8.47c0-1.22,0.58-2.27,1.73-3.12c1.15-0.86,2.53-1.29,4.15-1.29h2.35c1.62,0,3,0.43,4.15,1.29    C76.42,6.2,77,7.24,77,8.47v33.06c0,1.23-0.58,2.27-1.73,3.12c-1.15,0.86-2.53,1.29-4.15,1.29h-2.35c-1.62,0-3-0.43-4.15-1.29    c-1.15-0.86-1.73-1.9-1.73-3.12V8.47z M71.12,9.57c0-0.29-0.11-0.55-0.33-0.77s-0.5-0.33-0.85-0.33c-0.34,0-0.62,0.11-0.84,0.33    c-0.22,0.22-0.33,0.48-0.33,0.77v30.86c0,0.29,0.11,0.55,0.33,0.77c0.22,0.22,0.5,0.33,0.84,0.33c0.34,0,0.62-0.11,0.85-0.33    s0.33-0.48,0.33-0.77V9.57z"></path>			<path fill="#FFFFFF" d="M84.05,4.43l1.62,26.45h0.29l1.62-26.45h5.88l-4.11,41.15h-7.05L78.18,4.43H84.05z"></path>			<path fill="#FFFFFF" d="M94.63,8.47c0-1.22,0.58-2.27,1.73-3.12c1.15-0.86,2.53-1.29,4.15-1.29h2.35c1.62,0,3,0.43,4.15,1.29    c1.15,0.86,1.73,1.9,1.73,3.12v33.06c0,1.23-0.58,2.27-1.73,3.12c-1.15,0.86-2.53,1.29-4.15,1.29h-2.35c-1.62,0-3-0.43-4.15-1.29    c-1.15-0.86-1.73-1.9-1.73-3.12V8.47z M102.86,9.57c0-0.29-0.11-0.55-0.33-0.77c-0.22-0.22-0.5-0.33-0.85-0.33    c-0.34,0-0.62,0.11-0.84,0.33s-0.33,0.48-0.33,0.77v30.86c0,0.29,0.11,0.55,0.33,0.77s0.5,0.33,0.84,0.33    c0.34,0,0.62-0.11,0.85-0.33c0.22-0.22,0.33-0.48,0.33-0.77V9.57z"></path>			<path fill="#FFFFFF" d="M121.31,41.16v4.41h-11.02l4.56-36.74h-4.56V4.43h11.02l-4.48,36.74H121.31z"></path>		</g>		<g>			<path fill="#1037B6" d="M122.86,41.16h7.1c0-3.03,0.53-6.89,2.85-6.89c2.32,0,3.21,3.21,3.21,5.88c0,2.67-1.53,4.99-1.53,4.99    s1.17,0,3.85,0c1.25,0,1.78-4.63,1.78-4.63h14.95c-0.01,0.1-0.01,0.2-0.01,0.31c0,2.39,1.49,4.33,3.33,4.33h1.44    c1.84,0,3.33-1.94,3.33-4.33c0-0.1,0-0.21-0.01-0.31h1.39l0-9.8h-4.93l1.54-3.92h3.39V24.3h-26.2v2.49h3.56l2.32,3.92h-5.88v2.67    h21.15l1.66,2.67h-22.81v4.46c0,0-0.95-0.15-1.13-2.96c-0.2-3.21-1.28-5.78-4.4-5.78s-3.3,1.6-3.3,1.6H128l-0.18-21.16l6.77-2.37    l19.87,1.27V6.78l-29.49-2.35l-2.11,0.98v2.87l2.11-0.78v25.89l-2.11,0.58V41.16z"></path>			<polygon fill="#1037B6" points="135.34,11.97 137.11,21.18 158.38,21.53 156.43,13.34    "></polygon>			<polygon fill="#1037B6" points="133.43,12.26 135.94,26.79 129.51,26.79 129.51,13.7    "></polygon>			<polygon fill="#1037B6" points="158.43,22.33 164.53,23.75 137.11,21.93    "></polygon>			<g>				<rect x="122.86" y="44.78" fill="#1037B6" width="43.81" height="0.73"></rect>			</g>		</g>	</g>	<g>		<g>			<path fill="#FFFFFF" d="M-1508.44,130.03c-2.18,3-4.9,5.66-8.17,7.97c-3.27,2.31-7.09,3.47-11.44,3.47h-12.26    c-10.36,0-19.07-2.99-26.16-8.99c-7.09-5.99-10.63-13.21-10.63-21.66V-60.82c0-8.44,3.54-15.66,10.63-21.66    c7.08-5.99,15.8-8.99,26.16-8.99h16.35c10.35,0,19.07,3,26.16,8.99c7.08,6,10.63,13.22,10.63,21.66V4.57h-36.78v-57.22    c0-2.18-0.82-4.09-2.45-5.72c-1.64-1.64-3.54-2.45-5.72-2.45c-2.18,0-4.09,0.82-5.72,2.45c-1.64,1.63-2.45,3.54-2.45,5.72v155.3    c0,2.18,0.88,4.09,2.66,5.72c1.77,1.64,3.61,2.45,5.52,2.45c2.18,0,4.09-0.75,5.72-2.25c1.63-1.49,2.45-3.47,2.45-5.93V62.8    l-8.17-8.17V26.02h44.96v113.41h-13.08L-1508.44,130.03z"></path>			<path fill="#FFFFFF" d="M-1439.78,139.43h-32.69V-89.43h31.88l0.82,8.58c3.54-4.35,6.95-7.22,10.22-8.58    c3.27-1.36,7.08-2.04,11.44-2.04c7.36,0,13.21,2.39,17.57,7.15c4.35,4.77,6.54,10.56,6.54,17.37v53.13h-32.69v-47    c0-1.63-0.61-3.06-1.84-4.29c-1.23-1.23-2.8-1.84-4.7-1.84c-1.91,0-3.47,0.61-4.7,1.84c-1.23,1.23-1.84,2.66-1.84,4.29V139.43z"></path>			<path fill="#FFFFFF" d="M-1338.43,130.85c-4.36,4.36-8.24,7.22-11.65,8.58c-3.41,1.36-6.74,2.04-10.01,2.04    c-7.36,0-13.22-2.38-17.57-7.15c-4.36-4.76-6.54-10.56-6.54-17.37V-89.43h32.69v200.26c0,1.64,0.61,3.07,1.84,4.29    c1.23,1.23,2.79,1.84,4.7,1.84c1.9,0,3.47-0.61,4.7-1.84s1.84-2.66,1.84-4.29V-89.43h32.69v228.86h-31.88L-1338.43,130.85z"></path>			<path fill="#FFFFFF" d="M-1235.85,114.91v24.52h-61.3l25.34-204.34h-25.34v-24.52h61.3l-24.93,204.34H-1235.85z"></path>			<path fill="#FFFFFF" d="M-1227.28-66.95c0-6.81,3.2-12.6,9.6-17.37c6.4-4.76,14.1-7.15,23.09-7.15h13.08    c8.99,0,16.69,2.39,23.09,7.15c6.4,4.77,9.6,10.56,9.6,17.37v183.91c0,6.81-3.21,12.61-9.6,17.37c-6.4,4.77-14.1,7.15-23.09,7.15    h-13.08c-8.99,0-16.69-2.38-23.09-7.15c-6.4-4.76-9.6-10.56-9.6-17.37V-66.95z M-1181.5-60.82c0-1.63-0.61-3.06-1.84-4.29    c-1.23-1.23-2.8-1.84-4.7-1.84c-1.91,0-3.47,0.61-4.7,1.84c-1.23,1.23-1.84,2.66-1.84,4.29v171.65c0,1.64,0.61,3.07,1.84,4.29    c1.23,1.23,2.79,1.84,4.7,1.84c1.9,0,3.47-0.61,4.7-1.84s1.84-2.66,1.84-4.29V-60.82z"></path>			<path fill="#FFFFFF" d="M-1109.57-89.43l8.99,147.13h1.64l8.99-147.13h32.69l-22.89,228.86h-39.23l-22.89-228.86H-1109.57z"></path>			<path fill="#FFFFFF" d="M-1050.73-66.95c0-6.81,3.2-12.6,9.6-17.37c6.4-4.76,14.1-7.15,23.09-7.15h13.08    c8.99,0,16.69,2.39,23.09,7.15c6.4,4.77,9.6,10.56,9.6,17.37v183.91c0,6.81-3.21,12.61-9.6,17.37c-6.4,4.77-14.1,7.15-23.09,7.15    h-13.08c-8.99,0-16.69-2.38-23.09-7.15c-6.4-4.76-9.6-10.56-9.6-17.37V-66.95z M-1004.95-60.82c0-1.63-0.61-3.06-1.84-4.29    c-1.23-1.23-2.8-1.84-4.7-1.84c-1.91,0-3.47,0.61-4.7,1.84c-1.23,1.23-1.84,2.66-1.84,4.29v171.65c0,1.64,0.61,3.07,1.84,4.29    c1.23,1.23,2.79,1.84,4.7,1.84c1.9,0,3.47-0.61,4.7-1.84s1.84-2.66,1.84-4.29V-60.82z"></path>			<path fill="#FFFFFF" d="M-902.37,114.91v24.52h-61.3l25.34-204.34h-25.34v-24.52h61.3l-24.93,204.34H-902.37z"></path>		</g>		<g>			<path fill="#1037B6" d="M-893.74,114.91h39.48c0-16.85,2.97-38.31,15.86-38.31s17.84,17.84,17.84,32.71s-8.51,27.75-8.51,27.75    s6.52,0,21.39,0c6.94,0,9.91-25.77,9.91-25.77h83.13c-0.03,0.57-0.05,1.14-0.05,1.71c0,13.29,8.29,24.06,18.52,24.06h8.02    c10.23,0,18.52-10.77,18.52-24.06c0-0.58-0.02-1.15-0.05-1.71h7.71l0.02-54.52h-27.42l8.56-21.81h18.83V21.09h-145.71v13.88    h19.82l12.89,21.81h-32.71v14.87h117.65l9.23,14.87h-126.88v24.78c0,0-5.28-0.83-6.26-16.44c-1.12-17.83-7.12-32.13-24.46-32.13    s-18.34,8.92-18.34,8.92h-8.43l-0.99-117.67l37.67-13.17l110.52,7.04v-24.21l-164.05-13.07l-11.73,5.44v15.96l11.73-4.35V71.64    l-11.73,3.2V114.91z"></path>			<polygon fill="#1037B6" points="-824.32,-47.46 -814.46,3.74 -696.16,5.73 -706.99,-39.87    "></polygon>			<polygon fill="#1037B6" points="-834.93,-45.88 -820.97,34.97 -856.74,34.97 -856.74,-37.84    "></polygon>			<polygon fill="#1037B6" points="-695.88,10.16 -661.96,18.07 -814.46,7.9    "></polygon>			<g>				<rect x="-893.74" y="135.02" fill="#1037B6" width="243.68" height="4.08"></rect>			</g>		</g>	</g>	<g>		<rect x="-1613.58" y="240.21" fill="#F68B21" width="300" height="300"></rect>		<g>			<path fill="#1037B6" d="M-1613.58,472.74h81.81c0-15.44,2.72-35.1,14.53-35.1s16.35,16.35,16.35,29.97s-7.79,25.43-7.79,25.43    s5.98,0,19.6,0c6.36,0,9.08-23.61,9.08-23.61h76.16c-0.03,0.52-0.05,1.04-0.05,1.57c0,12.17,7.6,22.04,16.97,22.04h7.35    c9.37,0,16.97-9.87,16.97-22.04c0-0.53-0.02-1.05-0.05-1.57h7.06l0.02-49.95h-25.12l7.84-19.98h17.26v-12.71h-133.5v12.71h18.16    l11.81,19.98h-29.97v13.62h107.79l8.46,13.62h-116.24v22.7c0,0-4.84-0.76-5.74-15.06c-1.03-16.34-6.52-29.44-22.41-29.44    s-16.8,8.17-16.8,8.17h-7.72l-0.91-107.81l34.51-12.07l101.26,6.45v-22.18l-150.3-11.97l-56.39,25.28v14.63l56.39-24.28V433.1    l-56.39,12.88V472.74z"></path>			<polygon fill="#1037B6" points="-1504.34,323.97 -1495.31,370.89 -1386.92,372.71 -1396.84,330.93    "></polygon>			<polygon fill="#1037B6" points="-1514.06,325.42 -1501.27,399.5 -1534.04,399.5 -1534.04,332.79    "></polygon>			<polygon fill="#1037B6" points="-1386.66,376.76 -1355.59,384.01 -1495.31,374.7    "></polygon>			<g>				<rect x="-1613.58" y="491.16" fill="#1037B6" width="300" height="3.74"></rect>			</g>		</g>	</g></g><g id="Color">	<rect x="-2856.48" y="-2448.99" fill="#1037B6" width="268.61" height="268.61"></rect>	<rect x="-2509.4" y="-2448.99" fill="#F68B21" width="268.61" height="268.61"></rect>	<rect x="-3617.15" y="-2448.99" fill="#FFFFFF" width="268.61" height="268.61"></rect>	<rect x="-3233.79" y="-2448.99" width="268.61" height="268.61"></rect></g></svg>