<svg width="132" height="40" viewBox="0 0 132 40" fill="none" xmlns="http://www.w3.org/2000/svg">
<g clip-path="url(#clip0_2134_16473)">
<path d="M36.7422 -0.108349V40.27H62.0509V30.7565H48.1233V24.5944H59.6603V15.0808H48.1233V9.40516H62.0509V-0.108349H36.7422Z" fill="#0069B4"/>
<path d="M16.1106 20.4862H16.0066C15.5389 17.243 12.109 -0.108349 12.109 -0.108349H0.15625L9.77042 40.27H21.3594L32.7925 -0.108349H20.5279C20.5279 -0.108349 16.6303 17.243 16.1106 20.4862Z" fill="#0069B4"/>
<path d="M88.8686 19.4052L97.9111 -0.108349H85.9584L79.6182 14.1079L79.3584 -0.108349H68.2891V40.27H79.3584V24.5944L86.7899 40.27H98.9505L88.8686 19.4052Z" fill="#0069B4"/>
<path d="M112.561 26.1619L115.783 8.97273L118.693 26.1619H112.561ZM122.955 -0.108349H109.079L98.9453 40.27H110.69L111.626 35.0808H119.265L120.097 40.27H131.841L122.955 -0.108349Z" fill="#0069B4"/>
</g>
<defs>
<clipPath id="clip0_2134_16473">
<rect width="132" height="40" fill="white"/>
</clipPath>
</defs>
</svg>
