<svg width="16" height="17" viewBox="0 0 16 17" fill="none" xmlns="http://www.w3.org/2000/svg">
<path d="M3.65447 1.82805C3.59544 1.75211 3.52092 1.6896 3.43587 1.64468C3.35082 1.59975 3.25719 1.57343 3.16119 1.56747C3.06519 1.56151 2.96902 1.57605 2.87907 1.61012C2.78912 1.64418 2.70744 1.69699 2.63947 1.76505L1.60547 2.80005C1.12247 3.28405 0.944471 3.96905 1.15547 4.57005C2.03121 7.05764 3.45577 9.31615 5.32347 11.1781C7.1854 13.0457 9.4439 14.4703 11.9315 15.3461C12.5325 15.5571 13.2175 15.3791 13.7015 14.8961L14.7355 13.8621C14.8035 13.7941 14.8563 13.7124 14.8904 13.6225C14.9245 13.5325 14.939 13.4363 14.933 13.3403C14.9271 13.2443 14.9008 13.1507 14.8558 13.0656C14.8109 12.9806 14.7484 12.9061 14.6725 12.8471L12.3655 11.0531C12.2843 10.9901 12.19 10.9465 12.0895 10.9253C11.989 10.9042 11.8851 10.9061 11.7855 10.9311L9.59547 11.4781C9.30315 11.5511 8.99689 11.5472 8.70652 11.4668C8.41614 11.3864 8.15154 11.2321 7.93847 11.0191L5.48247 8.56205C5.26924 8.34909 5.1148 8.08453 5.03418 7.79415C4.95357 7.50377 4.94954 7.19746 5.02247 6.90505L5.57047 4.71505C5.59538 4.61545 5.59734 4.51149 5.57621 4.41101C5.55507 4.31054 5.51139 4.21618 5.44847 4.13505L3.65447 1.82805ZM1.88447 1.01105C2.05947 0.836 2.2697 0.700181 2.50121 0.612612C2.73272 0.525043 2.98021 0.487728 3.22725 0.503144C3.47429 0.51856 3.71522 0.586355 3.93405 0.702028C4.15288 0.8177 4.3446 0.978602 4.49647 1.17405L6.29047 3.48005C6.61947 3.90305 6.73547 4.45405 6.60547 4.97405L6.05847 7.16405C6.03019 7.27748 6.03172 7.3963 6.06291 7.50896C6.0941 7.62163 6.15388 7.72431 6.23647 7.80705L8.69347 10.2641C8.77631 10.3468 8.87916 10.4067 8.99202 10.4379C9.10488 10.4691 9.22389 10.4705 9.33747 10.4421L11.5265 9.89505C11.7831 9.83089 12.0509 9.82591 12.3098 9.88048C12.5686 9.93505 12.8116 10.0477 13.0205 10.2101L15.3265 12.0041C16.1555 12.649 16.2315 13.8741 15.4895 14.6151L14.4555 15.6491C13.7155 16.3891 12.6095 16.7141 11.5785 16.3511C8.93965 15.4226 6.54374 13.9119 4.56847 11.9311C2.58776 9.95607 1.07708 7.56051 0.148471 4.92205C-0.213529 3.89205 0.111471 2.78505 0.851471 2.04505L1.88547 1.01105H1.88447Z" fill="#FFFFFF"/>
</svg>
