<?xml version="1.0" encoding="UTF-8"?> <svg xmlns="http://www.w3.org/2000/svg" xmlns:xlink="http://www.w3.org/1999/xlink" version="1.1" id="Capa_1" x="0px" y="0px" viewBox="0 0 512 512" style="enable-background:new 0 0 512 512;" xml:space="preserve"><g><g><path d="M377,240H272V135c0-8.284-6.716-15-15-15s-15,6.716-15,15v120c0,8.284,6.716,15,15,15h120c8.284,0,15-6.716,15-15 S385.284,240,377,240z" fill="#000000" style="fill: rgb(67, 97, 205);"></path></g></g><g><g><path d="M257,0C117.105,0,0,113.025,0,255c0,140.644,115.914,257,257,257c142.13,0,255-117.257,255-257 C512,114.061,397.951,0,257,0z M257,482.2C131.832,482.2,29.8,380.168,29.8,255C29.8,130.935,131.832,29.8,257,29.8 c124.065,0,225.2,101.135,225.2,225.2C482.2,380.168,381.065,482.2,257,482.2z" fill="#000000" style="fill: rgb(67, 97, 205);"></path></g></g><g><g><path d="M257,60C149.617,60,60,147.075,60,255c0,107.493,89.147,197,197,197c108.026,0,195-89.693,195-197 C452,147.477,364.523,60,257,60z M257,422.2c-90.523,0-167.2-76.677-167.2-167.2c0-90.981,75.116-165.2,167.2-165.2 c90.981,0,165.2,74.219,165.2,165.2C422.2,347.084,347.981,422.2,257,422.2z" fill="#000000" style="fill: rgb(67, 97, 205);"></path></g></g></svg> 