<?xml version="1.0" encoding="UTF-8"?> <svg xmlns="http://www.w3.org/2000/svg" width="89" height="21" viewBox="0 0 89 21" fill="none"> <path fill-rule="evenodd" clip-rule="evenodd" d="M7.73766 4.7226H6.52266C4.28449 4.7226 3.10146 5.83962 3.10146 7.53111C3.10146 9.41409 3.9008 10.3077 5.59542 11.4247L6.97029 12.3503L2.97357 18.2864H0L3.58107 12.9886C1.53474 11.5205 0.351714 10.1162 0.351714 7.69069C0.351714 4.65877 2.46198 2.61621 6.45871 2.61621H10.4235V18.3183H7.70569L7.73766 4.7226ZM21.7102 6.95664V18.3183H19.0244V13.563H15.4114V18.3183H12.7256V6.95664H15.4114V11.4566H19.0244V6.95664H21.7102ZM33.8603 20.9035H31.3663V18.3183H25.3233V20.9035H22.8293V16.18H23.6606C24.6198 14.2971 24.7797 10.6907 24.7797 7.91409V6.95664H32.6133V16.18H33.8283V20.9035H33.8603ZM29.9914 9.06302H27.1458V9.41409C27.1458 11.3928 26.9539 14.4566 26.1866 16.18H29.9914V9.06302ZM39.9033 18.5098C36.4821 18.5098 34.5317 16.5949 34.5317 12.6375C34.5317 9.19069 36.0984 6.70132 39.3598 6.70132C42.0456 6.70132 43.8041 8.20132 43.8041 12.1269V13.563H37.3134C37.4094 15.446 38.1767 16.3715 40.1271 16.3715C41.4381 16.3715 42.8449 15.8609 43.6762 15.3183V17.5205C42.9089 18.063 41.6299 18.5098 39.9033 18.5098ZM37.3134 11.5843H41.0544V11.3609C41.0544 9.92473 40.6387 8.83962 39.2958 8.83962C38.0488 8.83962 37.3774 9.79707 37.3134 11.5843ZM48.3124 12.7332V18.3183H45.6266V6.95664H48.3124V12.1907L52.1173 6.95664H54.8351L51.0302 12.1907L55.3467 18.3183H52.2772L48.3124 12.7332ZM55.1868 12.6375C55.1868 16.4354 56.9134 18.5418 60.5264 18.5418C61.7734 18.5418 62.6687 18.3183 63.3082 17.8396V15.6375C62.6367 16.1162 61.8054 16.4035 60.6863 16.4035C58.7679 16.4035 57.9685 14.9035 57.9685 12.5737C57.9685 10.1162 58.9277 8.83962 60.7183 8.83962C61.7734 8.83962 62.7646 9.19068 63.3082 9.54175V7.24387C62.7326 6.92472 61.7414 6.70132 60.3985 6.70132C56.9773 6.70132 55.1868 9.15877 55.1868 12.6375Z" fill="black"></path> <path fill-rule="evenodd" clip-rule="evenodd" d="M79.5936 0C74.9574 0 71.1845 3.76595 71.1845 8.39361C71.1845 10.6277 72.0798 12.734 73.6465 14.3298C75.1812 15.8617 78.7303 18.0319 78.9542 20.3617C78.9861 20.7128 79.2419 21 79.5936 21C79.9453 21 80.2011 20.7128 80.2331 20.3617C80.4569 18.0638 84.006 15.8617 85.5408 14.3298C87.1075 12.766 88.0027 10.6277 88.0027 8.39361C88.0027 3.76595 84.2298 0 79.5936 0Z" fill="#FF4433"></path> <path opacity="0.251" fill-rule="evenodd" clip-rule="evenodd" d="M79.5946 11.3294C81.2254 11.3294 82.5365 10.0209 82.5365 8.3932C82.5365 6.76554 81.2254 5.45703 79.5946 5.45703C77.9639 5.45703 76.6528 6.76554 76.6528 8.3932C76.6528 10.0209 77.9639 11.3294 79.5946 11.3294Z" fill="black"></path> </svg> 